STARTFONT 2.1
COMMENT
COMMENT Converted from OpenType font "ibmplex.ttf" by "otf2bdf 3.0".
COMMENT
FONT -FreeType-IBM Plex Sans Thin-Medium-R-Normal--77-560-100-100-P-341-ISO10646-1
SIZE 56 100 100
FONTBOUNDINGBOX 103 101 -12 -16
STARTPROPERTIES 19
FOUNDRY "FreeType"
FAMILY_NAME "IBM Plex Sans Thin"
WEIGHT_NAME "Medium"
SLANT "R"
SETWIDTH_NAME "Normal"
ADD_STYLE_NAME ""
PIXEL_SIZE 77
POINT_SIZE 560
RESOLUTION_X 100
RESOLUTION_Y 100
SPACING "P"
AVERAGE_WIDTH 341
CHARSET_REGISTRY "ISO10646"
CHARSET_ENCODING "1"
FONT_ASCENT 79
FONT_DESCENT 21
COPYRIGHT "Copyright 2018 IBM Corp. All rights reserved."
_OTF_FONTFILE "ibmplex.ttf"
_OTF_PSNAME "IBMPlexSans-Thin"
ENDPROPERTIES
CHARS 826
STARTCHAR 0000
ENCODING 0
SWIDTH 0 0
DWIDTH 0 0
BBX 0 0 0 0
BITMAP
ENDCHAR
STARTCHAR 000D
ENCODING 13
SWIDTH 231 0
DWIDTH 18 0
BBX 0 0 0 0
BITMAP
ENDCHAR
STARTCHAR 0020
ENCODING 32
SWIDTH 231 0
DWIDTH 18 0
BBX 0 0 0 0
BITMAP
ENDCHAR
STARTCHAR 0021
ENCODING 33
SWIDTH 244 0
DWIDTH 19 0
BBX 4 54 8 0
BITMAP
60
60
60
60
60
60
60
60
60
60
60
60
60
60
60
60
60
60
60
60
60
60
60
60
60
60
60
60
60
60
40
40
40
40
40
40
40
40
40
40
00
00
00
00
00
00
00
00
00
00
E0
F0
F0
F0
ENDCHAR
STARTCHAR 0022
ENCODING 34
SWIDTH 372 0
DWIDTH 29 0
BBX 13 20 8 38
BITMAP
8008
8008
8008
8008
8008
8008
8008
8008
8008
8008
8008
8008
8008
8008
8008
8008
8008
8008
8008
8008
ENDCHAR
STARTCHAR 0023
ENCODING 35
SWIDTH 707 0
DWIDTH 55 0
BBX 45 54 5 0
BITMAP
000030003000
000030003000
000030003000
000020003000
000020002000
000060002000
000060006000
000060006000
000060006000
000040006000
000040004000
0000C0004000
0000C000C000
0000C000C000
0000C000C000
00008000C000
000080008000
1FFFFFFFFFF8
000180018000
000180018000
000180018000
000100010000
000100010000
000300030000
000300030000
000300030000
000300030000
000200020000
000200020000
000600060000
000600060000
000600060000
000600060000
000400040000
000400040000
FFFFFFFFFFC0
FFFFFFFFFFC0
000C000C0000
0008000C0000
000800080000
001800080000
001800180000
001800180000
001800180000
001000180000
001000100000
003000100000
003000300000
003000300000
003000300000
002000300000
002000200000
006000200000
006000600000
ENDCHAR
STARTCHAR 0024
ENCODING 36
SWIDTH 540 0
DWIDTH 42 0
BBX 34 67 4 -6
BITMAP
0000400000
0000400000
0000400000
0000400000
0000400000
0000400000
0000400000
003FFF0000
01F847E000
0380407000
0E00401C00
1C00400E00
3800400700
3000400380
6000400180
6000400000
6000400000
4000400000
4000400000
4000400000
4000400000
4000400000
4000400000
6000400000
6000400000
3000400000
3000400000
1800400000
0C00400000
0700400000
03C0400000
00FC400000
001FE00000
0000FF0000
000047E000
0000407000
0000401C00
0000400E00
0000400300
0000400300
0000400180
0000400180
00004000C0
00004000C0
00004000C0
00004000C0
00004000C0
00004000C0
00004000C0
00004000C0
00004000C0
8000400080
C000400180
E000400180
7000400300
3800400600
1C00400E00
0700401800
03E040F000
007FFFC000
000FFE0000
0000400000
0000400000
0000400000
0000400000
0000400000
0000400000
ENDCHAR
STARTCHAR 0025
ENCODING 37
SWIDTH 874 0
DWIDTH 68 0
BBX 57 56 6 -1
BITMAP
01FE000000000000
0707800000020000
0C00C00000060000
18006000000C0000
3000300000080000
2000300000180000
6000180000300000
4000180000600000
4000080000600000
C000080000C00000
C0000C0001800000
C0000C0001800000
C0000C0003000000
C0000C0006000000
C0000C0004000000
C0000C000C000000
C0000C0018000000
C0000C0010000000
C0000C0030000000
C0000C0060000000
C0000800C0000000
40001800C0000000
6000180180000000
6000100300000000
3000300300000000
1000600600000000
1800C00C001F8000
0E01800800F9E000
03FF001801803000
0070003003001800
0000002006000C00
0000006004000600
000000C00C000200
0000018008000300
0000018018000300
0000030018000100
0000060018000100
0000040010000180
00000C0010000180
0000180010000180
0000100010000180
0000300010000180
0000600010000180
0000400010000180
0000C00010000180
0001800018000100
0003000018000100
0003000018000300
0006000008000300
000C00000C000200
0008000004000600
0018000006000C00
0030000003001800
0020000001803800
0060000000F9E000
00000000001F8000
ENDCHAR
STARTCHAR 0026
ENCODING 38
SWIDTH 668 0
DWIDTH 52 0
BBX 44 56 5 -1
BITMAP
0003FF000000
000F07C00000
003800700000
006000380000
00C0001C0000
0180000C0000
018000060000
010000060000
030000020000
030000020000
030000020000
030000020000
030000020000
030000060000
030000060000
030000040000
0100000C0000
018000180000
00C000300000
00C000700000
006000C00000
003001800000
003807000000
00181C000000
000C70000000
0007C0000000
000700000000
001D80000000
0070C0000FF0
01C060000800
038030000800
060018000800
0C000C000800
180006000800
300003001800
300001801800
600000C01800
600000601800
600000301000
400000181000
C000000C3000
C00000063000
C00000032000
C0000001E000
40000000C000
60000000E000
60000000B000
600000019800
300000030C00
300000060600
1800000C0300
0C0000180180
0700007000C0
01C003C00060
00FFFF000030
000FF8000000
ENDCHAR
STARTCHAR 0027
ENCODING 39
SWIDTH 218 0
DWIDTH 17 0
BBX 1 20 8 38
BITMAP
80
80
80
80
80
80
80
80
80
80
80
80
80
80
80
80
80
80
80
80
ENDCHAR
STARTCHAR 0028
ENCODING 40
SWIDTH 321 0
DWIDTH 25 0
BBX 16 70 8 -11
BITMAP
0003
0006
000C
0018
0030
0060
0060
00C0
0180
0180
0300
0200
0600
0400
0C00
0800
0800
1800
1000
3000
3000
2000
2000
6000
6000
6000
4000
4000
4000
C000
C000
C000
C000
C000
C000
C000
C000
C000
C000
C000
C000
4000
4000
4000
6000
6000
2000
2000
3000
3000
1000
1000
1800
0800
0C00
0400
0600
0600
0300
0300
0180
0080
00C0
0060
0030
0010
0018
000C
0006
0003
ENDCHAR
STARTCHAR 0029
ENCODING 41
SWIDTH 321 0
DWIDTH 25 0
BBX 16 70 2 -11
BITMAP
C000
6000
3000
1800
0C00
0400
0600
0300
0100
0180
0080
00C0
0060
0060
0020
0030
0010
0018
0018
0008
000C
000C
0004
0004
0006
0006
0006
0002
0002
0002
0002
0003
0003
0003
0003
0003
0003
0003
0003
0002
0002
0002
0002
0006
0006
0006
0004
0004
000C
0008
0008
0018
0018
0010
0030
0020
0060
0040
00C0
0080
0180
0300
0300
0600
0C00
1800
1000
3000
6000
C000
ENDCHAR
STARTCHAR 002A
ENCODING 42
SWIDTH 360 0
DWIDTH 28 0
BBX 26 24 1 34
BITMAP
000C0000
000C0000
000C0000
000C0000
000C0000
000C0000
000C0000
000C0000
400C0000
F80C03C0
1F0C1E00
03ECF000
007F8000
000C0000
001E0000
00330000
00210000
00608000
00C0C000
01806000
01002000
03003000
06001800
04000800
ENDCHAR
STARTCHAR 002B
ENCODING 43
SWIDTH 591 0
DWIDTH 46 0
BBX 37 38 5 5
BITMAP
0000200000
0000200000
0000200000
0000200000
0000200000
0000200000
0000200000
0000200000
0000200000
0000200000
0000200000
0000200000
0000200000
0000200000
0000200000
0000200000
0000200000
0000200000
FFFFFFFFF8
FFFFFFFFF8
0000200000
0000200000
0000200000
0000200000
0000200000
0000200000
0000200000
0000200000
0000200000
0000200000
0000200000
0000200000
0000200000
0000200000
0000200000
0000200000
0000200000
0000200000
ENDCHAR
STARTCHAR 002C
ENCODING 44
SWIDTH 231 0
DWIDTH 18 0
BBX 7 15 4 -11
BITMAP
0E
1E
1E
1E
02
02
06
06
04
0C
08
18
30
20
C0
ENDCHAR
STARTCHAR 002D
ENCODING 45
SWIDTH 385 0
DWIDTH 30 0
BBX 18 2 6 23
BITMAP
FFFFC0
FFFFC0
ENDCHAR
STARTCHAR 002E
ENCODING 46
SWIDTH 231 0
DWIDTH 18 0
BBX 4 4 7 0
BITMAP
70
F0
F0
F0
ENDCHAR
STARTCHAR 002F
ENCODING 47
SWIDTH 308 0
DWIDTH 24 0
BBX 20 70 1 -12
BITMAP
000030
000030
000030
000020
000060
000060
000040
000040
0000C0
0000C0
000080
000080
000180
000180
000100
000300
000300
000300
000200
000600
000600
000400
000400
000C00
000C00
000800
000800
001800
001800
001000
003000
003000
003000
002000
006000
006000
004000
004000
00C000
00C000
008000
008000
018000
018000
010000
030000
030000
030000
020000
060000
060000
040000
040000
0C0000
0C0000
080000
080000
180000
180000
100000
300000
300000
300000
200000
600000
600000
400000
400000
C00000
C00000
ENDCHAR
STARTCHAR 0030
ENCODING 48
SWIDTH 591 0
DWIDTH 46 0
BBX 35 56 6 -1
BITMAP
000FFE0000
003F1F8000
00E001E000
0180007000
0300001800
0600000C00
0C00000600
1800000600
1800000300
3000000300
3000000180
2000000180
6000000080
60000000C0
40000000C0
40000000C0
C000000040
C000000040
C000000060
C000000060
C000000060
C000000060
8000000060
8000000060
8000000060
8000000060
8000000060
8000000060
8000000060
8000000060
8000000060
8000000060
8000000060
8000000060
C000000060
C000000060
C000000060
C000000060
C000000040
C000000040
40000000C0
60000000C0
6000000080
6000000080
2000000180
3000000100
1000000300
1800000300
0C00000600
0C00000C00
0600001C00
0300003800
01C0007000
00F001C000
003FFF8000
0007F80000
ENDCHAR
STARTCHAR 0031
ENCODING 49
SWIDTH 591 0
DWIDTH 46 0
BBX 35 54 7 0
BITMAP
0001E00000
0003600000
0006600000
001C600000
0038600000
0070600000
00C0600000
0180600000
0700600000
0E00600000
1C00600000
3000600000
6000600000
C000600000
8000600000
0000600000
0000600000
0000600000
0000600000
0000600000
0000600000
0000600000
0000600000
0000600000
0000600000
0000600000
0000600000
0000600000
0000600000
0000600000
0000600000
0000600000
0000600000
0000600000
0000600000
0000600000
0000600000
0000600000
0000600000
0000600000
0000600000
0000600000
0000600000
0000600000
0000600000
0000600000
0000600000
0000600000
0000600000
0000600000
0000600000
0000600000
FFFFFFFFE0
FFFFFFFFE0
ENDCHAR
STARTCHAR 0032
ENCODING 50
SWIDTH 591 0
DWIDTH 46 0
BBX 34 55 7 0
BITMAP
003FF80000
00F83F0000
038003C000
060000E000
0C00007000
1800003000
3000001800
2000000800
6000000C00
4000000C00
C000000400
C000000600
0000000600
0000000600
0000000600
0000000600
0000000600
0000000600
0000000400
0000000400
0000000C00
0000000C00
0000000800
0000001800
0000001000
0000003000
0000006000
0000006000
000000C000
0000018000
0000030000
0000060000
00000E0000
00001C0000
0000380000
0000700000
0000E00000
0001C00000
0003800000
0007000000
000E000000
001C000000
0038000000
0070000000
00E0000000
01C0000000
0380000000
0700000000
0E00000000
1C00000000
3800000000
3000000000
6000000000
FFFFFFFFC0
FFFFFFFFC0
ENDCHAR
STARTCHAR 0033
ENCODING 51
SWIDTH 591 0
DWIDTH 46 0
BBX 32 56 6 -1
BITMAP
001FFC00
00FC3F00
03C003C0
070000E0
0C000030
18000018
30000018
3000000C
2000000C
00000006
00000006
00000006
00000006
00000006
00000006
00000006
00000006
00000004
0000000C
0000000C
00000018
00000038
00000070
000000E0
00000380
00001E00
00FFF000
00001F00
000001C0
00000060
00000030
00000018
0000000C
00000006
00000006
00000002
00000003
00000003
00000003
00000003
00000003
00000003
00000003
00000003
00000003
00000003
00000006
80000006
C000000C
6000000C
30000018
18000030
0E0000E0
07C003C0
00FFFF00
001FF000
ENDCHAR
STARTCHAR 0034
ENCODING 52
SWIDTH 591 0
DWIDTH 46 0
BBX 39 54 4 0
BITMAP
0000001C00
0000003C00
0000002C00
0000006C00
000000CC00
0000008C00
0000018C00
0000030C00
0000020C00
0000060C00
00000C0C00
0000180C00
0000180C00
0000300C00
0000600C00
0000400C00
0000C00C00
0001800C00
0001000C00
0003000C00
0006000C00
000C000C00
000C000C00
0018000C00
0030000C00
0030000C00
0060000C00
00C0000C00
0080000C00
0180000C00
0300000C00
0200000C00
0600000C00
0C00000C00
1800000C00
1800000C00
3000000C00
6000000C00
4000000C00
C000000C00
FFFFFFFFFE
FFFFFFFFFE
0000000C00
0000000C00
0000000C00
0000000C00
0000000C00
0000000C00
0000000C00
0000000C00
0000000C00
0000000C00
0000000C00
0000000C00
ENDCHAR
STARTCHAR 0035
ENCODING 53
SWIDTH 591 0
DWIDTH 46 0
BBX 32 55 7 -1
BITMAP
0FFFFFFC
08000000
08000000
08000000
08000000
18000000
18000000
18000000
18000000
18000000
18000000
18000000
18000000
10000000
10000000
10000000
10000000
10000000
10000000
30000000
30000000
30000000
301FFC00
30FF7F80
338001C0
36000060
2C000030
38000018
3000000C
00000004
00000006
00000006
00000003
00000003
00000003
00000003
00000003
00000003
00000003
00000003
00000003
00000003
00000003
00000003
00000002
00000006
80000006
C000000C
6000001C
30000018
18000070
0E0000E0
03C00380
00FFFF00
001FF800
ENDCHAR
STARTCHAR 0036
ENCODING 54
SWIDTH 591 0
DWIDTH 46 0
BBX 33 55 7 -1
BITMAP
00000E0000
0000380000
0000600000
0000C00000
0003800000
0007000000
000C000000
0018000000
0030000000
0060000000
00E0000000
00C0000000
0180000000
0300000000
0300000000
0600000000
0400000000
0C00000000
0800000000
1800000000
1000000000
3000000000
303FFC0000
20F80F8000
638001E000
6700007000
4C00003800
5800001C00
D000000C00
F000000600
E000000600
E000000300
C000000300
C000000300
C000000100
C000000180
C000000180
C000000180
C000000180
C000000180
C000000180
C000000100
C000000100
4000000300
6000000300
6000000200
2000000600
3000000400
1800000C00
0C00001800
0E00003000
070000E000
01E003C000
007FFF0000
000FF00000
ENDCHAR
STARTCHAR 0037
ENCODING 55
SWIDTH 591 0
DWIDTH 46 0
BBX 34 54 6 0
BITMAP
FFFFFFFFC0
C0000000C0
C000000180
C000000180
C000000100
C000000300
C000000300
C000000600
C000000600
C000000C00
C000000C00
C000001800
C000001800
C000001000
0000003000
0000003000
0000006000
0000006000
000000C000
000000C000
0000018000
0000018000
0000010000
0000030000
0000030000
0000060000
0000060000
00000C0000
00000C0000
0000180000
0000180000
0000100000
0000300000
0000300000
0000600000
0000600000
0000C00000
0000C00000
0001800000
0001800000
0001000000
0003000000
0003000000
0006000000
0006000000
000C000000
000C000000
0018000000
0018000000
0010000000
0030000000
0030000000
0060000000
0060000000
ENDCHAR
STARTCHAR 0038
ENCODING 56
SWIDTH 591 0
DWIDTH 46 0
BBX 35 56 6 -1
BITMAP
001FFE0000
007E0FC000
01E000F000
0300003800
0600000C00
0C00000600
1800000600
1800000300
3000000100
3000000180
3000000180
2000000180
6000000180
6000000180
6000000180
2000000180
2000000180
3000000180
3000000100
1000000300
1800000300
0C00000600
0600000C00
0300003800
01C000F000
007C07C000
000FFE0000
00FE0FC000
03C0007000
0700001C00
0C00000E00
1800000300
3000000180
6000000180
60000000C0
C0000000C0
C000000040
C000000060
C000000060
8000000060
8000000060
8000000060
8000000060
C000000060
C000000060
C000000040
40000000C0
60000000C0
3000000180
3000000300
1800000700
0E00000E00
0700003C00
01E000F000
007FFFC000
000FFC0000
ENDCHAR
STARTCHAR 0039
ENCODING 57
SWIDTH 591 0
DWIDTH 46 0
BBX 33 55 7 0
BITMAP
001FFC0000
007E1F8000
01C001C000
0300007000
0600003800
0C00001C00
1800000C00
3000000600
3000000200
6000000300
6000000300
4000000100
4000000180
C000000180
C000000180
C000000180
C000000180
C000000180
C000000180
C000000180
C000000180
4000000180
6000000180
6000000380
3000000380
3000000780
1800000D00
1C00001900
0E00003300
0700006300
01E001C200
007F3F0600
001FFC0600
0000000400
0000000C00
0000000C00
0000001800
0000001800
0000003000
0000003000
0000006000
000000C000
000000C000
0000018000
0000030000
0000060000
00000C0000
0000180000
0000300000
0000600000
0000C00000
0003800000
0007000000
000C000000
0038000000
ENDCHAR
STARTCHAR 003A
ENCODING 58
SWIDTH 257 0
DWIDTH 20 0
BBX 4 40 8 0
BITMAP
60
F0
F0
F0
60
00
00
00
00
00
00
00
00
00
00
00
00
00
00
00
00
00
00
00
00
00
00
00
00
00
00
00
00
00
00
00
F0
F0
F0
F0
ENDCHAR
STARTCHAR 003B
ENCODING 59
SWIDTH 257 0
DWIDTH 20 0
BBX 7 51 5 -11
BITMAP
0C
1E
1E
1E
0C
00
00
00
00
00
00
00
00
00
00
00
00
00
00
00
00
00
00
00
00
00
00
00
00
00
00
00
00
00
00
00
1E
1E
1E
1E
06
06
06
04
0C
08
18
10
30
60
C0
ENDCHAR
STARTCHAR 003C
ENCODING 60
SWIDTH 591 0
DWIDTH 46 0
BBX 33 41 7 3
BITMAP
0000000180
0000000380
0000000E00
0000003800
0000007000
000001C000
0000070000
00000E0000
0000380000
0000E00000
0001C00000
0007000000
001C000000
0038000000
00E0000000
0380000000
0700000000
1C00000000
7000000000
E000000000
C000000000
E000000000
3800000000
0E00000000
0700000000
01C0000000
0070000000
0038000000
000E000000
0003800000
0001C00000
0000700000
00001C0000
00000E0000
0000038000
000000E000
0000007000
0000001C00
0000000700
0000000380
0000000080
ENDCHAR
STARTCHAR 003D
ENCODING 61
SWIDTH 591 0
DWIDTH 46 0
BBX 37 15 5 16
BITMAP
FFFFFFFFF8
0000000000
0000000000
0000000000
0000000000
0000000000
0000000000
0000000000
0000000000
0000000000
0000000000
0000000000
0000000000
FFFFFFFFF8
FFFFFFFFF8
ENDCHAR
STARTCHAR 003E
ENCODING 62
SWIDTH 591 0
DWIDTH 46 0
BBX 33 41 7 3
BITMAP
8000000000
E000000000
3800000000
1C00000000
0700000000
01C0000000
00E0000000
0038000000
000E000000
0007000000
0001C00000
0000700000
0000380000
00000E0000
0000038000
000001C000
0000007000
0000001C00
0000000E00
0000000380
0000000180
0000000700
0000000E00
0000003800
000000E000
000001C000
0000070000
00001C0000
0000380000
0000E00000
0003800000
0007000000
001C000000
0070000000
00E0000000
0380000000
0E00000000
1C00000000
7000000000
C000000000
8000000000
ENDCHAR
STARTCHAR 003F
ENCODING 63
SWIDTH 450 0
DWIDTH 35 0
BBX 30 55 3 0
BITMAP
003FF800
01F03E00
03800380
0E0001C0
0C000060
18000030
30000030
60000018
60000018
40000008
C0000008
C000000C
0000000C
0000000C
0000000C
0000000C
0000000C
00000008
00000018
00000018
00000018
00000030
00000060
00000060
000001C0
00000380
00000E00
0000FC00
000FE000
000C0000
000C0000
000C0000
000C0000
000C0000
000C0000
000C0000
000C0000
000C0000
000C0000
000C0000
000C0000
00000000
00000000
00000000
00000000
00000000
00000000
00000000
00000000
00000000
00000000
000E0000
001E0000
001E0000
001E0000
ENDCHAR
STARTCHAR 0040
ENCODING 64
SWIDTH 874 0
DWIDTH 68 0
BBX 58 64 5 -9
BITMAP
000001FFF0000000
00001F807F000000
0000780003C00000
0001C00000700000
00070000001C0000
000C000000060000
0018000000038000
003000000001C000
0060000000006000
00C0000000003000
0180000000003000
0300000000001800
0200000000000C00
0600000000000400
0C00000000000600
0800000C00000200
180001FFC0800300
1800038070800100
10000E0018800100
300018000C800180
2000300006800180
2000300003800080
6000600001800080
60006000018000C0
60004000018000C0
4000C000008000C0
4000C000008000C0
4000C000008000C0
40008000008000C0
C0008000008000C0
C0008000008000C0
C0008000008000C0
C0008000008000C0
C0008000008000C0
C0008000008000C0
40008000008000C0
4000800000800080
4000800000800080
4000C00000800080
6000C00000800180
6000400001800180
6000600001800100
2000600001800300
2000300002800300
3000300006C00600
100018000CC00400
18000C0018600C00
1800070070303800
080001FFC01FE000
0C00001E00030000
0600000000000000
0200000000000000
0300000000000000
0180000000000000
00C0000000000000
00C0000000000000
0070000000000000
0038000000000000
000C000000000000
0007000000000000
0003C00000000000
0000F00000000000
00001F0000000000
000003FFFFFF0000
ENDCHAR
STARTCHAR 0041
ENCODING 65
SWIDTH 591 0
DWIDTH 46 0
BBX 41 54 3 0
BITMAP
00001C000000
00001C000000
000036000000
000026000000
000066000000
000063000000
000043000000
0000C1000000
0000C1800000
000081800000
000180800000
000180C00000
000100C00000
000300400000
000300600000
000600600000
000600300000
000400300000
000C00100000
000C00180000
000800180000
001800080000
0018000C0000
0010000C0000
003000040000
003000060000
006000060000
006000030000
006000030000
00C000030000
00C000018000
008000018000
018000008000
01800000C000
01FFFFFFC000
03FFFFFFC000
030000006000
060000006000
060000003000
060000003000
0C0000003000
0C0000001800
080000001800
180000000800
180000000C00
100000000C00
300000000400
300000000600
600000000600
600000000300
600000000300
C00000000300
C00000000180
800000000180
ENDCHAR
STARTCHAR 0042
ENCODING 66
SWIDTH 604 0
DWIDTH 47 0
BBX 35 54 8 0
BITMAP
FFFFFF8000
C00001E000
C000007000
C000001800
C000000C00
C000000600
C000000600
C000000300
C000000300
C000000300
C000000300
C000000300
C000000300
C000000300
C000000300
C000000300
C000000300
C000000300
C000000300
C000000600
C000000600
C000000C00
C000001800
C000007000
C00007C000
FFFFFFC000
C00000F000
C000001C00
C000000600
C000000300
C000000180
C000000180
C0000000C0
C0000000C0
C000000040
C000000040
C000000060
C000000060
C000000060
C000000060
C000000060
C000000060
C000000060
C000000040
C0000000C0
C0000000C0
C000000080
C000000180
C000000300
C000000700
C000000E00
C000003C00
FFFFFFF000
FFFFFFC000
ENDCHAR
STARTCHAR 0043
ENCODING 67
SWIDTH 604 0
DWIDTH 47 0
BBX 38 56 5 -1
BITMAP
0001FFC000
000FE1F800
003C001C00
0070000700
00C0000380
01800000C0
0300000060
0600000060
0C00000030
0C00000018
1800000018
1800000000
1000000000
3000000000
3000000000
2000000000
6000000000
6000000000
6000000000
6000000000
6000000000
6000000000
4000000000
4000000000
C000000000
C000000000
C000000000
C000000000
C000000000
C000000000
C000000000
4000000000
4000000000
4000000000
6000000000
6000000000
6000000000
6000000000
6000000000
2000000000
3000000000
3000000000
3000000000
1000000000
180000000C
0800000018
0C00000018
0600000030
0600000060
0300000060
01800000C0
00E0000380
0070000700
001E003C00
0007FFF000
0000FF8000
ENDCHAR
STARTCHAR 0044
ENCODING 68
SWIDTH 655 0
DWIDTH 51 0
BBX 38 54 8 0
BITMAP
FFFFFE0000
C0001FC000
C00000F000
C000003800
C000000E00
C000000700
C000000300
C000000180
C0000000C0
C0000000C0
C000000060
C000000060
C000000030
C000000030
C000000010
C000000018
C000000018
C000000018
C000000018
C000000008
C000000008
C000000008
C00000000C
C00000000C
C00000000C
C00000000C
C00000000C
C00000000C
C00000000C
C00000000C
C00000000C
C00000000C
C000000008
C000000008
C000000008
C000000018
C000000018
C000000018
C000000010
C000000030
C000000030
C000000030
C000000060
C000000060
C0000000C0
C0000000C0
C000000180
C000000300
C000000600
C000001C00
C000003800
C00001E000
FFFFFF8000
FFFFFC0000
ENDCHAR
STARTCHAR 0045
ENCODING 69
SWIDTH 552 0
DWIDTH 43 0
BBX 30 54 8 0
BITMAP
FFFFFFFC
C0000000
C0000000
C0000000
C0000000
C0000000
C0000000
C0000000
C0000000
C0000000
C0000000
C0000000
C0000000
C0000000
C0000000
C0000000
C0000000
C0000000
C0000000
C0000000
C0000000
C0000000
C0000000
C0000000
C0000000
C0000000
FFFFFFF8
C0000000
C0000000
C0000000
C0000000
C0000000
C0000000
C0000000
C0000000
C0000000
C0000000
C0000000
C0000000
C0000000
C0000000
C0000000
C0000000
C0000000
C0000000
C0000000
C0000000
C0000000
C0000000
C0000000
C0000000
C0000000
FFFFFFFC
FFFFFFFC
ENDCHAR
STARTCHAR 0046
ENCODING 70
SWIDTH 527 0
DWIDTH 41 0
BBX 29 54 8 0
BITMAP
FFFFFFF8
C0000000
C0000000
C0000000
C0000000
C0000000
C0000000
C0000000
C0000000
C0000000
C0000000
C0000000
C0000000
C0000000
C0000000
C0000000
C0000000
C0000000
C0000000
C0000000
C0000000
C0000000
C0000000
C0000000
C0000000
C0000000
FFFFFFF0
C0000000
C0000000
C0000000
C0000000
C0000000
C0000000
C0000000
C0000000
C0000000
C0000000
C0000000
C0000000
C0000000
C0000000
C0000000
C0000000
C0000000
C0000000
C0000000
C0000000
C0000000
C0000000
C0000000
C0000000
C0000000
C0000000
C0000000
ENDCHAR
STARTCHAR 0047
ENCODING 71
SWIDTH 655 0
DWIDTH 51 0
BBX 41 56 5 -1
BITMAP
0001FFE00000
000FF0FC0000
001E000F0000
007000038000
00E00000E000
018000007000
030000003800
060000001800
060000000C00
0C0000000600
080000000600
180000000000
180000000000
300000000000
300000000000
300000000000
200000000000
600000000000
600000000000
600000000000
600000000000
600000000000
400000000000
400000000000
C00000000000
C00000000000
C00000000000
C00000000000
C00000000000
C000007FFF80
C000007FFF80
400000000180
400000000180
400000000180
600000000180
600000000180
600000000180
600000000180
600000000180
200000000180
300000000180
300000000180
300000000180
180000000380
180000000380
0C0000000380
0C0000000780
060000000D80
070000000980
038000001980
01C000003180
00E00000E180
007800038180
001E000F0180
0007FFFC0180
00007FE00000
ENDCHAR
STARTCHAR 0048
ENCODING 72
SWIDTH 681 0
DWIDTH 53 0
BBX 37 54 8 0
BITMAP
C000000008
C000000008
C000000008
C000000008
C000000008
C000000008
C000000008
C000000008
C000000008
C000000008
C000000008
C000000008
C000000008
C000000008
C000000008
C000000008
C000000008
C000000008
C000000008
C000000008
C000000008
C000000008
C000000008
C000000008
C000000008
C000000008
FFFFFFFFF8
C000000008
C000000008
C000000008
C000000008
C000000008
C000000008
C000000008
C000000008
C000000008
C000000008
C000000008
C000000008
C000000008
C000000008
C000000008
C000000008
C000000008
C000000008
C000000008
C000000008
C000000008
C000000008
C000000008
C000000008
C000000008
C000000008
C000000008
ENDCHAR
STARTCHAR 0049
ENCODING 73
SWIDTH 360 0
DWIDTH 28 0
BBX 19 54 5 0
BITMAP
FFFFE0
004000
004000
004000
004000
004000
004000
004000
004000
004000
004000
004000
004000
004000
004000
004000
004000
004000
004000
004000
004000
004000
004000
004000
004000
004000
004000
004000
004000
004000
004000
004000
004000
004000
004000
004000
004000
004000
004000
004000
004000
004000
004000
004000
004000
004000
004000
004000
004000
004000
004000
004000
004000
FFFFE0
ENDCHAR
STARTCHAR 004A
ENCODING 74
SWIDTH 462 0
DWIDTH 36 0
BBX 26 55 2 -1
BITMAP
07FFFFC0
00000040
00000040
00000040
00000040
00000040
00000040
00000040
00000040
00000040
00000040
00000040
00000040
00000040
00000040
00000040
00000040
00000040
00000040
00000040
00000040
00000040
00000040
00000040
00000040
00000040
00000040
00000040
00000040
00000040
00000040
00000040
00000040
00000040
00000040
00000040
00000040
00000040
00000040
00000040
00000040
00000040
000000C0
000000C0
000000C0
800000C0
C0000080
C0000180
60000180
30000300
38000600
1C000C00
07003800
03FFF000
007F8000
ENDCHAR
STARTCHAR 004B
ENCODING 75
SWIDTH 565 0
DWIDTH 44 0
BBX 35 54 8 0
BITMAP
C0000000C0
C000000180
C000000300
C000000600
C000000C00
C000001800
C000003800
C000007000
C000006000
C00000C000
C000018000
C000030000
C000060000
C0000C0000
C000180000
C000300000
C000600000
C000E00000
C001C00000
C001800000
C003000000
C006000000
C00C000000
C01C000000
C036000000
C063000000
C0C3000000
C181800000
C300C00000
C700C00000
CE00600000
CC00300000
D800300000
F000180000
E0000C0000
C0000C0000
C000060000
C000030000
C000030000
C000018000
C00000C000
C00000C000
C000006000
C000003000
C000003800
C000001800
C000000C00
C000000600
C000000600
C000000300
C000000180
C000000180
C0000000C0
C000000060
ENDCHAR
STARTCHAR 004C
ENCODING 76
SWIDTH 462 0
DWIDTH 36 0
BBX 27 54 8 0
BITMAP
C0000000
C0000000
C0000000
C0000000
C0000000
C0000000
C0000000
C0000000
C0000000
C0000000
C0000000
C0000000
C0000000
C0000000
C0000000
C0000000
C0000000
C0000000
C0000000
C0000000
C0000000
C0000000
C0000000
C0000000
C0000000
C0000000
C0000000
C0000000
C0000000
C0000000
C0000000
C0000000
C0000000
C0000000
C0000000
C0000000
C0000000
C0000000
C0000000
C0000000
C0000000
C0000000
C0000000
C0000000
C0000000
C0000000
C0000000
C0000000
C0000000
C0000000
C0000000
C0000000
FFFFFFE0
FFFFFFE0
ENDCHAR
STARTCHAR 004D
ENCODING 77
SWIDTH 784 0
DWIDTH 61 0
BBX 46 54 8 0
BITMAP
E0000000003C
F0000000003C
D8000000006C
D8000000006C
CC00000000CC
C6000000018C
C6000000018C
C3000000030C
C3000000020C
C1800000060C
C0C000000C0C
C0C000000C0C
C0600000180C
C0600000100C
C0300000300C
C0180000600C
C0180000600C
C00C0000C00C
C0040000800C
C0060001800C
C0030003000C
C0030003000C
C0018006000C
C000800C000C
C000C00C000C
C0006018000C
C0006018000C
C0003030000C
C0001860000C
C0001860000C
C0000CC0000C
C0000C80000C
C0000780000C
C0000300000C
C0000300000C
C0000000000C
C0000000000C
C0000000000C
C0000000000C
C0000000000C
C0000000000C
C0000000000C
C0000000000C
C0000000000C
C0000000000C
C0000000000C
C0000000000C
C0000000000C
C0000000000C
C0000000000C
C0000000000C
C0000000000C
C0000000000C
C0000000000C
ENDCHAR
STARTCHAR 004E
ENCODING 78
SWIDTH 681 0
DWIDTH 53 0
BBX 37 54 8 0
BITMAP
E000000008
F000000008
D800000008
D800000008
CC00000008
C600000008
C600000008
C300000008
C300000008
C180000008
C0C0000008
C0C0000008
C060000008
C030000008
C030000008
C018000008
C018000008
C00C000008
C006000008
C006000008
C003000008
C001800008
C001800008
C000C00008
C000C00008
C000600008
C000300008
C000300008
C000180008
C0000C0008
C0000C0008
C000060008
C000060008
C000030008
C000018008
C000018008
C00000C008
C000006008
C000006008
C000003008
C000003008
C000001808
C000000C08
C000000C08
C000000608
C000000308
C000000308
C000000188
C000000188
C0000000C8
C000000068
C000000068
C000000038
C000000018
ENDCHAR
STARTCHAR 004F
ENCODING 79
SWIDTH 668 0
DWIDTH 52 0
BBX 42 56 5 -1
BITMAP
0001FFE00000
000FF1FC0000
001E000F0000
00700001C000
00E00000E000
018000007000
030000003800
060000001C00
060000000C00
0C0000000600
080000000600
180000000300
180000000300
300000000100
300000000180
300000000180
200000000080
6000000000C0
6000000000C0
6000000000C0
6000000000C0
6000000000C0
4000000000C0
4000000000C0
C00000000040
C00000000040
C00000000040
C00000000040
C00000000040
C00000000040
C00000000040
400000000040
4000000000C0
4000000000C0
6000000000C0
6000000000C0
6000000000C0
6000000000C0
6000000000C0
200000000180
300000000180
300000000180
300000000100
180000000300
180000000300
0C0000000600
0C0000000600
060000000C00
070000001800
038000003800
01C000007000
00E00000E000
007800038000
001E000F0000
0007FFFC0000
00007FC00000
ENDCHAR
STARTCHAR 0050
ENCODING 80
SWIDTH 591 0
DWIDTH 46 0
BBX 35 54 8 0
BITMAP
FFFFFFE000
C00000F800
C000001C00
C000000600
C000000300
C000000180
C000000180
C0000000C0
C0000000C0
C000000040
C000000040
C000000060
C000000060
C000000060
C000000060
C000000060
C000000060
C000000060
C000000040
C0000000C0
C0000000C0
C000000080
C000000180
C000000300
C000000700
C000000E00
C000003C00
FFFFFFF000
FFFFFF8000
C000000000
C000000000
C000000000
C000000000
C000000000
C000000000
C000000000
C000000000
C000000000
C000000000
C000000000
C000000000
C000000000
C000000000
C000000000
C000000000
C000000000
C000000000
C000000000
C000000000
C000000000
C000000000
C000000000
C000000000
C000000000
ENDCHAR
STARTCHAR 0051
ENCODING 81
SWIDTH 668 0
DWIDTH 52 0
BBX 42 66 5 -11
BITMAP
0001FFE00000
000FF1FC0000
001E000F0000
00700001C000
00E00000E000
018000007000
030000003800
060000001C00
060000000C00
0C0000000600
080000000600
180000000300
180000000300
300000000100
300000000180
300000000180
200000000080
6000000000C0
6000000000C0
6000000000C0
6000000000C0
6000000000C0
4000000000C0
4000000000C0
C00000000040
C00000000040
C00000000040
C00000000040
C00000000040
C00000000040
C00000000040
400000000040
4000000000C0
4000000000C0
6000000000C0
6000000000C0
6000000000C0
6000000000C0
600000000080
200000000180
300000000180
300000000180
300000000100
180000000300
180000000300
0C0000000600
0C0000000600
060000000C00
030000001800
038000003800
01C000007000
00E00000E000
003800038000
001E000F0000
0007FFFC0000
00007FC00000
000004000000
000004000000
000004000000
000004000000
000004000000
000004000000
000004000000
000004000000
000004000000
000007FC0000
ENDCHAR
STARTCHAR 0052
ENCODING 82
SWIDTH 630 0
DWIDTH 49 0
BBX 36 54 8 0
BITMAP
FFFFFFE000
C00000F800
C000001C00
C000000600
C000000300
C000000180
C000000180
C0000000C0
C0000000C0
C000000040
C000000040
C000000060
C000000060
C000000060
C000000060
C000000060
C000000060
C000000060
C000000040
C0000000C0
C0000000C0
C000000080
C000000180
C000000300
C000000700
C000000E00
C000003C00
FFFFFFF000
FFFFFF8000
C000180000
C0000C0000
C000060000
C000060000
C000030000
C000030000
C000018000
C00000C000
C00000C000
C000006000
C000006000
C000003000
C000001800
C000001800
C000000C00
C000000C00
C000000600
C000000300
C000000300
C000000180
C000000180
C0000000C0
C000000060
C000000060
C000000030
ENDCHAR
STARTCHAR 0053
ENCODING 83
SWIDTH 540 0
DWIDTH 42 0
BBX 34 56 4 -1
BITMAP
001FFE0000
00FC1FC000
038000F000
0600001C00
0C00000E00
1800000700
3000000380
3000000180
6000000000
6000000000
4000000000
4000000000
4000000000
4000000000
4000000000
4000000000
4000000000
6000000000
6000000000
3000000000
3000000000
1800000000
0C00000000
0700000000
03C0000000
00F8000000
003FE00000
0003FE0000
00000FC000
000000F000
0000003800
0000000C00
0000000600
0000000300
0000000180
0000000180
0000000080
00000000C0
00000000C0
00000000C0
00000000C0
00000000C0
00000000C0
00000000C0
00000000C0
00000000C0
8000000080
C000000180
E000000100
7000000300
3800000600
1C00000C00
0700003800
01E000F000
007FFFC000
000FFC0000
ENDCHAR
STARTCHAR 0054
ENCODING 84
SWIDTH 552 0
DWIDTH 43 0
BBX 41 54 1 0
BITMAP
FFFFFFFFFF80
00000C000000
00000C000000
00000C000000
00000C000000
00000C000000
00000C000000
00000C000000
00000C000000
00000C000000
00000C000000
00000C000000
00000C000000
00000C000000
00000C000000
00000C000000
00000C000000
00000C000000
00000C000000
00000C000000
00000C000000
00000C000000
00000C000000
00000C000000
00000C000000
00000C000000
00000C000000
00000C000000
00000C000000
00000C000000
00000C000000
00000C000000
00000C000000
00000C000000
00000C000000
00000C000000
00000C000000
00000C000000
00000C000000
00000C000000
00000C000000
00000C000000
00000C000000
00000C000000
00000C000000
00000C000000
00000C000000
00000C000000
00000C000000
00000C000000
00000C000000
00000C000000
00000C000000
00000C000000
ENDCHAR
STARTCHAR 0055
ENCODING 85
SWIDTH 642 0
DWIDTH 50 0
BBX 35 55 8 -1
BITMAP
8000000060
8000000060
8000000060
8000000060
8000000060
8000000060
8000000060
8000000060
8000000060
8000000060
8000000060
8000000060
8000000060
8000000060
8000000060
8000000060
8000000060
8000000060
8000000060
8000000060
8000000060
8000000060
8000000060
8000000060
8000000060
8000000060
8000000060
8000000060
8000000060
8000000060
8000000060
8000000060
8000000060
8000000060
8000000060
C000000060
C000000060
C000000060
C000000060
C000000060
C000000060
C000000040
40000000C0
40000000C0
60000000C0
6000000080
3000000180
3000000180
1800000300
1800000600
0E00000E00
0700001C00
03C000F000
00FFFFC000
000FFE0000
ENDCHAR
STARTCHAR 0056
ENCODING 86
SWIDTH 565 0
DWIDTH 44 0
BBX 39 54 3 0
BITMAP
8000000006
C000000004
C00000000C
600000000C
6000000008
6000000018
3000000018
3000000010
3000000030
1800000030
1800000020
1800000060
0C00000060
0C000000C0
0C000000C0
06000000C0
0600000180
0600000180
0300000180
0300000300
0300000300
0180000300
0180000600
0080000600
00C0000400
00C0000C00
0040000C00
0060000800
0060001800
0020001800
0030001000
0030003000
0010003000
0018002000
0018006000
0008006000
000C004000
000C00C000
000400C000
0006008000
0006018000
0002018000
0003010000
0003030000
0001830000
0001820000
0001860000
0000C60000
0000C40000
0000CC0000
00006C0000
0000680000
0000780000
0000380000
ENDCHAR
STARTCHAR 0057
ENCODING 87
SWIDTH 861 0
DWIDTH 67 0
BBX 62 54 3 0
BITMAP
800000070000000C
C00000078000000C
C00000078000000C
C000000480000008
4000000C80000018
6000000CC0000018
60000008C0000018
6000001840000010
3000001860000030
3000001860000030
3000001060000030
3000003020000020
1800003030000060
1800002030000060
1800002010000060
0800006018000040
0C000060180000C0
0C000040180000C0
0C0000C008000080
040000C00C000180
060000800C000180
0600008004000180
0600018006000100
0200018006000300
0300010006000300
0300030002000300
0300030003000200
0180030003000600
0180020001000600
0180060001800600
0080060001800400
00C0040001800C00
00C00C0000800C00
00C00C0000C00800
00400C0000C01800
0060080000C01800
0060180000401800
0060180000601000
0020100000603000
0030100000203000
0030300000303000
0030300000302000
0010200000306000
0018600000106000
0018600000186000
0008600000184000
000C40000008C000
000CC000000CC000
000CC000000CC000
00048000000D8000
0007800000058000
0007800000078000
0007800000070000
0003000000030000
ENDCHAR
STARTCHAR 0058
ENCODING 88
SWIDTH 552 0
DWIDTH 43 0
BBX 38 54 3 0
BITMAP
C000000018
6000000030
3000000030
3000000060
18000000C0
0C000000C0
0C00000180
0600000300
0300000300
0300000600
0180000C00
00C0000C00
00C0001800
0060003000
0030003000
0030006000
001800C000
000C00C000
000C018000
0006030000
0003030000
0003060000
00018C0000
0000CC0000
0000D80000
0000700000
0000300000
0000780000
0000D80000
0000CC0000
0001860000
0003060000
0003030000
0006018000
000C018000
000C00C000
0018006000
0030006000
0030003000
0060001800
00C0001800
00C0000C00
0180000600
0300000600
0300000300
0600000180
0C00000180
0C000000C0
1800000060
3000000060
3000000030
6000000018
C000000018
C00000000C
ENDCHAR
STARTCHAR 0059
ENCODING 89
SWIDTH 540 0
DWIDTH 42 0
BBX 38 54 2 0
BITMAP
C00000000C
600000000C
6000000018
3000000018
3000000030
1800000060
0C00000060
0C000000C0
06000000C0
0600000180
0300000300
0180000300
0180000600
00C0000600
00C0000C00
0060000800
0030001800
0030003000
0018003000
0018006000
000C004000
000600C000
0006018000
0003018000
0003030000
0001820000
0000C60000
0000CC0000
00006C0000
0000780000
0000300000
0000300000
0000300000
0000300000
0000300000
0000300000
0000300000
0000300000
0000300000
0000300000
0000300000
0000300000
0000300000
0000300000
0000300000
0000300000
0000300000
0000300000
0000300000
0000300000
0000300000
0000300000
0000300000
0000300000
ENDCHAR
STARTCHAR 005A
ENCODING 90
SWIDTH 552 0
DWIDTH 43 0
BBX 38 54 3 0
BITMAP
3FFFFFFFF0
0000000030
0000000030
0000000060
00000000C0
00000000C0
0000000180
0000000300
0000000300
0000000600
0000000C00
0000000C00
0000001800
0000003000
0000003000
0000006000
000000C000
000000C000
0000018000
0000030000
0000060000
0000060000
00000C0000
0000180000
0000180000
0000300000
0000600000
0000600000
0000C00000
0001800000
0001800000
0003000000
0006000000
0006000000
000C000000
0018000000
0018000000
0030000000
0060000000
0060000000
00C0000000
0180000000
0180000000
0300000000
0600000000
0600000000
0C00000000
1800000000
1800000000
3000000000
6000000000
6000000000
FFFFFFFFFC
FFFFFFFFFC
ENDCHAR
STARTCHAR 005B
ENCODING 91
SWIDTH 295 0
DWIDTH 23 0
BBX 10 70 8 -11
BITMAP
FFC0
C000
C000
C000
C000
C000
C000
C000
C000
C000
C000
C000
C000
C000
C000
C000
C000
C000
C000
C000
C000
C000
C000
C000
C000
C000
C000
C000
C000
C000
C000
C000
C000
C000
C000
C000
C000
C000
C000
C000
C000
C000
C000
C000
C000
C000
C000
C000
C000
C000
C000
C000
C000
C000
C000
C000
C000
C000
C000
C000
C000
C000
C000
C000
C000
C000
C000
C000
FFC0
FFC0
ENDCHAR
STARTCHAR 005C
ENCODING 92
SWIDTH 308 0
DWIDTH 24 0
BBX 20 70 3 -12
BITMAP
C00000
C00000
400000
600000
600000
200000
200000
300000
300000
100000
100000
180000
180000
080000
080000
0C0000
0C0000
040000
040000
060000
060000
020000
030000
030000
030000
010000
018000
018000
008000
008000
00C000
00C000
004000
004000
006000
006000
002000
002000
003000
003000
001000
001000
001800
001800
000800
000C00
000C00
000C00
000400
000600
000600
000200
000200
000300
000300
000100
000100
000180
000180
000080
000080
0000C0
0000C0
000040
000060
000060
000060
000020
000030
000030
ENDCHAR
STARTCHAR 005D
ENCODING 93
SWIDTH 295 0
DWIDTH 23 0
BBX 10 70 5 -11
BITMAP
FFC0
00C0
00C0
00C0
00C0
00C0
00C0
00C0
00C0
00C0
00C0
00C0
00C0
00C0
00C0
00C0
00C0
00C0
00C0
00C0
00C0
00C0
00C0
00C0
00C0
00C0
00C0
00C0
00C0
00C0
00C0
00C0
00C0
00C0
00C0
00C0
00C0
00C0
00C0
00C0
00C0
00C0
00C0
00C0
00C0
00C0
00C0
00C0
00C0
00C0
00C0
00C0
00C0
00C0
00C0
00C0
00C0
00C0
00C0
00C0
00C0
00C0
00C0
00C0
00C0
00C0
00C0
00C0
FFC0
FFC0
ENDCHAR
STARTCHAR 005E
ENCODING 94
SWIDTH 591 0
DWIDTH 46 0
BBX 35 29 6 25
BITMAP
0000E00000
0001E00000
0001B00000
0003100000
0002180000
00060C0000
000C0C0000
000C060000
0018030000
0010030000
0030018000
0060018000
006000C000
00C0006000
0080006000
0180003000
0300003000
0300001800
0600000C00
0400000C00
0C00000600
1800000200
1800000300
3000000180
6000000180
60000000C0
C0000000C0
C000000060
8000000020
ENDCHAR
STARTCHAR 005F
ENCODING 95
SWIDTH 565 0
DWIDTH 44 0
BBX 40 1 2 -11
BITMAP
FFFFFFFFFF
ENDCHAR
STARTCHAR 0060
ENCODING 96
SWIDTH 591 0
DWIDTH 46 0
BBX 10 12 16 46
BITMAP
C000
E000
6000
3000
1800
1800
0C00
0600
0300
0300
0180
00C0
ENDCHAR
STARTCHAR 0061
ENCODING 97
SWIDTH 514 0
DWIDTH 40 0
BBX 34 41 5 -1
BITMAP
007FF00000
03E03C0000
0700060000
0C00030000
1800018000
300000C000
300000C000
6000006000
2000006000
0000006000
0000006000
0000002000
0000002000
0000002000
0000002000
0000002000
0000002000
0000002000
0000002000
01FFFFE000
0780002000
1C00002000
3800002000
6000002000
6000002000
C000002000
C000002000
C000002000
C000002000
C000006000
C000006000
C000006000
C000006000
C00000E000
400000A000
6000012000
3000032000
38000E2000
0E00382000
07FFF03FC0
00FF800000
ENDCHAR
STARTCHAR 0062
ENCODING 98
SWIDTH 552 0
DWIDTH 43 0
BBX 31 59 8 -1
BITMAP
C0000000
C0000000
C0000000
C0000000
C0000000
C0000000
C0000000
C0000000
C0000000
C0000000
C0000000
C0000000
C0000000
C0000000
C0000000
C0000000
C0000000
C0000000
C03FF000
C1F03E00
C3800700
CE0001C0
D80000E0
D0000060
E0000030
E0000018
C0000018
C000000C
C000000C
C0000004
C0000004
C0000006
C0000006
C0000006
C0000006
C0000006
C0000006
C0000006
C0000006
C0000006
C0000006
C0000006
C0000006
C0000006
C0000006
C0000006
C0000004
C000000C
C000000C
C0000008
E0000018
E0000010
F0000030
D8000060
CC0000C0
C6000180
C3800700
C0FFFC00
001FE000
ENDCHAR
STARTCHAR 0063
ENCODING 99
SWIDTH 475 0
DWIDTH 37 0
BBX 30 41 5 -1
BITMAP
003FF800
00F81E00
03800380
070000C0
0C000060
18000030
18000030
30000018
20000000
60000000
60000000
40000000
C0000000
C0000000
C0000000
C0000000
C0000000
80000000
80000000
80000000
80000000
80000000
80000000
80000000
C0000000
C0000000
C0000000
C0000000
40000000
40000000
60000000
60000000
30000000
3000000C
18000018
0C000030
06000060
030000C0
01C00380
007FFE00
000FF000
ENDCHAR
STARTCHAR 0064
ENCODING 100
SWIDTH 552 0
DWIDTH 43 0
BBX 31 59 5 -1
BITMAP
00000006
00000006
00000006
00000006
00000006
00000006
00000006
00000006
00000006
00000006
00000006
00000006
00000006
00000006
00000006
00000006
00000006
00000006
001FF806
00F81F06
01C00386
070000E6
0E000026
1C000016
1800001E
3000000E
30000006
60000006
60000006
40000006
C0000006
C0000006
C0000006
C0000006
C0000006
80000006
80000006
80000006
80000006
80000006
80000006
80000006
C0000006
C0000006
C0000006
C0000006
40000006
40000006
60000006
60000006
3000000E
3000000E
1800001E
0C000036
06000066
030000C6
01C00386
007FFE06
000FF000
ENDCHAR
STARTCHAR 0065
ENCODING 101
SWIDTH 527 0
DWIDTH 41 0
BBX 32 41 5 -1
BITMAP
003FF800
00F81E00
03800380
070000C0
0C000060
18000030
18000010
30000018
2000000C
6000000C
60000004
40000006
C0000006
C0000002
C0000002
C0000003
C0000003
80000003
80000003
FFFFFFFF
80000000
80000000
80000000
80000000
C0000000
C0000000
C0000000
C0000000
40000000
40000000
60000006
60000006
3000000C
3000000C
18000018
0C000030
06000060
030000C0
01C00380
007FFE00
000FF000
ENDCHAR
STARTCHAR 0066
ENCODING 102
SWIDTH 282 0
DWIDTH 22 0
BBX 18 58 2 0
BITMAP
007FC0
00FFC0
008000
008000
008000
008000
008000
008000
008000
008000
008000
008000
008000
008000
008000
008000
008000
008000
008000
FFFFC0
008000
008000
008000
008000
008000
008000
008000
008000
008000
008000
008000
008000
008000
008000
008000
008000
008000
008000
008000
008000
008000
008000
008000
008000
008000
008000
008000
008000
008000
008000
008000
008000
008000
008000
008000
008000
008000
008000
ENDCHAR
STARTCHAR 0067
ENCODING 103
SWIDTH 514 0
DWIDTH 40 0
BBX 35 60 4 -16
BITMAP
0000003FE0
0000007FE0
0000006000
0000006000
001FFC6000
00780F6000
01C001E000
038000E000
0700006000
0600003000
0C00001800
0C00001800
0800000800
1800000C00
1800000C00
1800000C00
1800000C00
1800000C00
1800000C00
1800000C00
1800000800
0800000800
0C00001800
0C00001000
0600003000
0300006000
018000C000
00E0038000
003F7E0000
00FFF80000
0180000000
0600000000
0C00000000
0C00000000
0800000000
1800000000
0800000000
0800000000
0C00000000
0780000000
01FFFFF000
03C001FE00
0E00000700
1800000180
30000000C0
60000000C0
4000000060
C000000060
C000000060
C000000060
C000000060
C000000060
C000000040
C0000000C0
60000001C0
7000000180
3800000700
1E00001E00
07C000F800
00FFFFC000
ENDCHAR
STARTCHAR 0068
ENCODING 104
SWIDTH 552 0
DWIDTH 43 0
BBX 28 58 8 0
BITMAP
C0000000
C0000000
C0000000
C0000000
C0000000
C0000000
C0000000
C0000000
C0000000
C0000000
C0000000
C0000000
C0000000
C0000000
C0000000
C0000000
C0000000
C0000000
C07FF000
C1E07C00
C7000E00
CC000300
D8000180
D00000C0
E00000C0
E0000060
C0000060
C0000020
C0000030
C0000030
C0000030
C0000030
C0000030
C0000030
C0000030
C0000030
C0000030
C0000030
C0000030
C0000030
C0000030
C0000030
C0000030
C0000030
C0000030
C0000030
C0000030
C0000030
C0000030
C0000030
C0000030
C0000030
C0000030
C0000030
C0000030
C0000030
C0000030
C0000030
ENDCHAR
STARTCHAR 0069
ENCODING 105
SWIDTH 218 0
DWIDTH 17 0
BBX 4 56 7 0
BITMAP
E0
F0
F0
60
00
00
00
00
00
00
00
00
00
00
00
00
00
60
60
60
60
60
60
60
60
60
60
60
60
60
60
60
60
60
60
60
60
60
60
60
60
60
60
60
60
60
60
60
60
60
60
60
60
60
60
60
ENDCHAR
STARTCHAR 006A
ENCODING 106
SWIDTH 218 0
DWIDTH 17 0
BBX 9 72 2 -16
BITMAP
0700
0780
0780
0300
0000
0000
0000
0000
0000
0000
0000
0000
0000
0000
0000
0000
0000
0300
0300
0300
0300
0300
0300
0300
0300
0300
0300
0300
0300
0300
0300
0300
0300
0300
0300
0300
0300
0300
0300
0300
0300
0300
0300
0300
0300
0300
0300
0300
0300
0300
0300
0300
0300
0300
0300
0300
0300
0300
0300
0300
0300
0300
0300
0300
0300
0300
0300
0300
0300
0300
FF00
FC00
ENDCHAR
STARTCHAR 006B
ENCODING 107
SWIDTH 488 0
DWIDTH 38 0
BBX 28 58 8 0
BITMAP
C0000000
C0000000
C0000000
C0000000
C0000000
C0000000
C0000000
C0000000
C0000000
C0000000
C0000000
C0000000
C0000000
C0000000
C0000000
C0000000
C0000000
C0000000
C0000000
C00001C0
C0000380
C0000700
C0000E00
C0001C00
C0003800
C0007000
C000E000
C001C000
C0038000
C0070000
C00E0000
C01C0000
C0380000
C0700000
C0E00000
C1C00000
C3E00000
C7700000
CE300000
DC180000
F80C0000
F0060000
E0030000
C0038000
C0018000
C000C000
C0006000
C0003000
C0001800
C0000C00
C0000C00
C0000600
C0000300
C0000180
C00000C0
C0000060
C0000060
C0000030
ENDCHAR
STARTCHAR 006C
ENCODING 108
SWIDTH 244 0
DWIDTH 19 0
BBX 8 58 8 0
BITMAP
C0
C0
C0
C0
C0
C0
C0
C0
C0
C0
C0
C0
C0
C0
C0
C0
C0
C0
C0
C0
C0
C0
C0
C0
C0
C0
C0
C0
C0
C0
C0
C0
C0
C0
C0
C0
C0
C0
C0
C0
C0
C0
C0
C0
C0
C0
C0
C0
C0
C0
C0
C0
C0
C0
C0
C0
C0
7F
ENDCHAR
STARTCHAR 006D
ENCODING 109
SWIDTH 874 0
DWIDTH 68 0
BBX 53 40 8 0
BITMAP
007FE0003FF800
C3E07800F01E00
C7000E03800380
CC0003060001C0
D80001840000C0
D0000188000060
E00000D8000020
E0000050000030
C0000070000030
C0000070000010
C0000060000018
C0000020000018
C0000020000018
C0000020000018
C0000020000018
C0000020000018
C0000020000018
C0000020000018
C0000020000018
C0000020000018
C0000020000018
C0000020000018
C0000020000018
C0000020000018
C0000020000018
C0000020000018
C0000020000018
C0000020000018
C0000020000018
C0000020000018
C0000020000018
C0000020000018
C0000020000018
C0000020000018
C0000020000018
C0000020000018
C0000020000018
C0000020000018
C0000020000018
C0000020000018
ENDCHAR
STARTCHAR 006E
ENCODING 110
SWIDTH 552 0
DWIDTH 43 0
BBX 28 40 8 0
BITMAP
007FF000
C1E07C00
C7000E00
CC000300
D8000180
D00000C0
E00000C0
E0000060
C0000060
C0000020
C0000030
C0000030
C0000030
C0000030
C0000030
C0000030
C0000030
C0000030
C0000030
C0000030
C0000030
C0000030
C0000030
C0000030
C0000030
C0000030
C0000030
C0000030
C0000030
C0000030
C0000030
C0000030
C0000030
C0000030
C0000030
C0000030
C0000030
C0000030
C0000030
C0000030
ENDCHAR
STARTCHAR 006F
ENCODING 111
SWIDTH 540 0
DWIDTH 42 0
BBX 32 41 5 -1
BITMAP
003FFC00
00F81F00
038001C0
070000E0
0C000030
18000018
18000018
3000000C
20000004
60000006
60000006
40000002
C0000003
C0000003
C0000003
C0000003
C0000003
80000001
80000001
80000001
80000001
80000001
80000001
80000003
C0000003
C0000003
C0000003
C0000003
40000002
40000002
60000006
60000006
3000000C
3000000C
18000018
0C000030
06000060
030000C0
01C00380
007FFE00
000FF000
ENDCHAR
STARTCHAR 0070
ENCODING 112
SWIDTH 552 0
DWIDTH 43 0
BBX 31 56 8 -16
BITMAP
003FF000
C1F03E00
C3800700
CE0001C0
D80000E0
D0000060
E0000030
E0000018
C0000018
C000000C
C000000C
C0000004
C0000004
C0000006
C0000006
C0000006
C0000006
C0000006
C0000006
C0000006
C0000006
C0000006
C0000006
C0000006
C0000006
C0000006
C0000006
C0000006
C0000004
C000000C
C000000C
C0000008
E0000018
E0000010
F0000030
D8000060
CC0000C0
C6000180
C3800700
C0FFFC00
C01FE000
C0000000
C0000000
C0000000
C0000000
C0000000
C0000000
C0000000
C0000000
C0000000
C0000000
C0000000
C0000000
C0000000
C0000000
C0000000
ENDCHAR
STARTCHAR 0071
ENCODING 113
SWIDTH 552 0
DWIDTH 43 0
BBX 31 56 5 -16
BITMAP
001FF800
00F81F06
01C00386
070000E6
0E000026
1C000016
1800001E
3000000E
30000006
60000006
60000006
40000006
C0000006
C0000006
C0000006
C0000006
C0000006
80000006
80000006
80000006
80000006
80000006
80000006
80000006
C0000006
C0000006
C0000006
C0000006
40000006
40000006
60000006
60000006
3000000E
3000000E
1800001E
0C000036
06000066
030000C6
01C00386
007FFE06
000FF006
00000006
00000006
00000006
00000006
00000006
00000006
00000006
00000006
00000006
00000006
00000006
00000006
00000006
00000006
00000006
ENDCHAR
STARTCHAR 0072
ENCODING 114
SWIDTH 334 0
DWIDTH 26 0
BBX 18 39 8 0
BITMAP
C07FC0
C3E000
C70000
CC0000
D80000
D00000
E00000
E00000
C00000
C00000
C00000
C00000
C00000
C00000
C00000
C00000
C00000
C00000
C00000
C00000
C00000
C00000
C00000
C00000
C00000
C00000
C00000
C00000
C00000
C00000
C00000
C00000
C00000
C00000
C00000
C00000
C00000
C00000
C00000
ENDCHAR
STARTCHAR 0073
ENCODING 115
SWIDTH 450 0
DWIDTH 35 0
BBX 27 41 4 -1
BITMAP
00FFE000
03C07C00
0E000E00
1C000380
100001C0
300000C0
20000000
60000000
60000000
60000000
60000000
60000000
60000000
20000000
30000000
18000000
1C000000
0F000000
03E00000
00FF8000
0007F800
00003E00
00000700
00000180
000000C0
00000040
00000060
00000060
00000020
00000020
00000020
00000020
00000020
C0000060
E0000060
700000C0
38000180
1C000380
07000E00
01FFFC00
003FE000
ENDCHAR
STARTCHAR 0074
ENCODING 116
SWIDTH 308 0
DWIDTH 24 0
BBX 19 51 2 0
BITMAP
008000
008000
008000
008000
008000
008000
008000
008000
008000
008000
008000
038000
FFFFE0
008000
008000
008000
008000
008000
008000
008000
008000
008000
008000
008000
008000
008000
008000
008000
008000
008000
008000
008000
008000
008000
008000
008000
008000
008000
008000
008000
008000
008000
008000
008000
008000
008000
008000
008000
008000
008000
00FFC0
ENDCHAR
STARTCHAR 0075
ENCODING 117
SWIDTH 552 0
DWIDTH 43 0
BBX 28 40 7 -1
BITMAP
C0000030
C0000030
C0000030
C0000030
C0000030
C0000030
C0000030
C0000030
C0000030
C0000030
C0000030
C0000030
C0000030
C0000030
C0000030
C0000030
C0000030
C0000030
C0000030
C0000030
C0000030
C0000030
C0000030
C0000030
C0000030
C0000030
C0000030
C0000030
40000030
40000030
60000030
60000030
20000070
30000070
180000B0
180001B0
0E000330
07800E30
01FFF830
003FC000
ENDCHAR
STARTCHAR 0076
ENCODING 118
SWIDTH 450 0
DWIDTH 35 0
BBX 31 39 2 0
BITMAP
C0000006
40000006
60000004
6000000C
20000008
30000018
30000018
18000010
18000030
08000030
0C000020
0C000060
04000040
060000C0
060000C0
03000080
03000180
01000180
01800100
01800300
00800200
00C00600
00C00600
00400400
00600C00
00200C00
00300800
00301800
00101800
00181000
00183000
00082000
000C6000
00046000
00064000
0006C000
0002C000
00038000
00038000
ENDCHAR
STARTCHAR 0077
ENCODING 119
SWIDTH 720 0
DWIDTH 56 0
BBX 50 39 3 0
BITMAP
C00000C0000040
C00000E00000C0
400001E00000C0
600001A00000C0
60000130000080
60000130000180
30000310000180
30000218000100
30000218000300
10000608000300
18000608000200
1800040C000600
08000C0C000600
0C000C04000400
0C000806000400
04001806000C00
06001802000C00
06001003000800
06001003001800
02003001001800
03002001801000
03002001803000
01006000803000
01806000802000
01804000C02000
0080C000C06000
00C0C000406000
00C08000604000
0041800060C000
0041800020C000
00610000308000
00610000318000
00230000118000
00320000190000
00320000190000
001600000B0000
001E00000A0000
001C00000E0000
000C0000060000
ENDCHAR
STARTCHAR 0078
ENCODING 120
SWIDTH 462 0
DWIDTH 36 0
BBX 31 39 3 0
BITMAP
6000000C
60000018
30000010
18000030
08000060
0C0000C0
060000C0
03000180
03000300
01800600
00C00600
00600C00
00601800
00301000
00183000
00086000
000CC000
0006C000
00038000
00038000
00078000
0004C000
000C6000
00182000
00303000
00201800
00600C00
00C00400
01800600
01800300
03000180
06000080
0C0000C0
0C000060
18000030
30000030
60000018
6000000C
C0000006
ENDCHAR
STARTCHAR 0079
ENCODING 121
SWIDTH 450 0
DWIDTH 35 0
BBX 31 55 2 -16
BITMAP
C0000006
40000006
60000004
6000000C
20000008
30000018
30000018
18000010
18000030
08000030
0C000020
0C000060
04000040
060000C0
060000C0
03000080
03000180
01000180
01800100
01800300
00800200
00C00600
00C00600
00400400
00600C00
00200C00
00300800
00301800
00101800
00181000
00183000
00082000
000C6000
00046000
00064000
0006C000
0002C000
00038000
00038000
00010000
00030000
00030000
00020000
00060000
00060000
00040000
000C0000
00080000
00180000
00180000
00100000
00300000
00300000
3FE00000
3F800000
ENDCHAR
STARTCHAR 007A
ENCODING 122
SWIDTH 411 0
DWIDTH 32 0
BBX 29 39 2 0
BITMAP
7FFFFFF0
00000030
00000060
00000040
000000C0
00000180
00000300
00000300
00000600
00000C00
00000800
00001800
00003000
00006000
00004000
0000C000
00018000
00030000
00030000
00060000
000C0000
00080000
00180000
00300000
00600000
00600000
00C00000
01800000
03000000
03000000
06000000
0C000000
08000000
18000000
30000000
60000000
60000000
C0000000
FFFFFFF8
ENDCHAR
STARTCHAR 007B
ENCODING 123
SWIDTH 308 0
DWIDTH 24 0
BBX 17 70 2 -11
BITMAP
00FF80
018000
018000
018000
018000
018000
018000
018000
018000
018000
018000
018000
018000
018000
018000
018000
018000
018000
018000
018000
018000
018000
018000
018000
018000
018000
018000
018000
018000
018000
030000
060000
1C0000
F80000
800000
C00000
FC0000
0E0000
030000
010000
018000
018000
018000
018000
018000
018000
018000
018000
018000
018000
018000
018000
018000
018000
018000
018000
018000
018000
018000
018000
018000
018000
018000
018000
018000
018000
018000
018000
00FF80
00FF80
ENDCHAR
STARTCHAR 007C
ENCODING 124
SWIDTH 231 0
DWIDTH 18 0
BBX 2 70 8 -11
BITMAP
C0
C0
C0
C0
C0
C0
C0
C0
C0
C0
C0
C0
C0
C0
C0
C0
C0
C0
C0
C0
C0
C0
C0
C0
C0
C0
C0
C0
C0
C0
C0
C0
C0
C0
C0
C0
C0
C0
C0
C0
C0
C0
C0
C0
C0
C0
C0
C0
C0
C0
C0
C0
C0
C0
C0
C0
C0
C0
C0
C0
C0
C0
C0
C0
C0
C0
C0
C0
C0
C0
ENDCHAR
STARTCHAR 007D
ENCODING 125
SWIDTH 308 0
DWIDTH 24 0
BBX 18 70 5 -11
BITMAP
FFC000
00C000
00C000
00C000
00C000
00C000
00C000
00C000
00C000
00C000
00C000
00C000
00C000
00C000
00C000
00C000
00C000
00C000
00C000
00C000
00C000
00C000
00C000
00C000
00C000
00C000
00C000
004000
004000
006000
006000
003000
001C00
0007C0
0000C0
0001C0
000FC0
001800
003000
006000
004000
004000
00C000
00C000
00C000
00C000
00C000
00C000
00C000
00C000
00C000
00C000
00C000
00C000
00C000
00C000
00C000
00C000
00C000
00C000
00C000
00C000
00C000
00C000
00C000
00C000
00C000
00C000
FFC000
FF8000
ENDCHAR
STARTCHAR 007E
ENCODING 126
SWIDTH 591 0
DWIDTH 46 0
BBX 36 7 5 20
BITMAP
0FFC000000
3C1F000000
7003C00010
C000780030
00001E0060
000007FFC0
000000FF00
ENDCHAR
STARTCHAR 00A0
ENCODING 160
SWIDTH 231 0
DWIDTH 18 0
BBX 0 0 0 0
BITMAP
ENDCHAR
STARTCHAR 00A1
ENCODING 161
SWIDTH 244 0
DWIDTH 19 0
BBX 4 55 8 -15
BITMAP
60
F0
F0
F0
60
00
00
00
00
00
00
00
00
00
40
40
40
40
40
40
40
40
40
40
40
40
60
60
60
60
60
60
60
60
60
60
60
60
60
60
60
60
60
60
60
60
60
60
60
60
60
60
60
60
60
ENDCHAR
STARTCHAR 00A2
ENCODING 162
SWIDTH 488 0
DWIDTH 38 0
BBX 30 57 5 -9
BITMAP
00010000
00010000
00010000
00010000
00010000
00010000
00010000
00010000
001FF800
00F91E00
03C10380
070100C0
0C010060
18010030
18010030
30010018
20010000
60010000
60010000
40010000
C0010000
C0010000
C0010000
C0010000
C0010000
80010000
80010000
80010000
80010000
80010000
80010000
80010000
C0010000
C0010000
C0010000
C0010000
40010000
40010000
60010000
60010000
30010000
3001000C
18010018
0C010030
06010060
030100C0
01C10380
007FFE00
000FF800
00010000
00010000
00010000
00010000
00010000
00010000
00010000
00010000
ENDCHAR
STARTCHAR 00A3
ENCODING 163
SWIDTH 578 0
DWIDTH 45 0
BBX 35 55 5 0
BITMAP
0003FF8000
000FC3F000
0038003800
0060000E00
00C0000300
0180000180
03000000C0
02000000C0
0600000060
0400000000
0C00000000
0C00000000
0C00000000
0C00000000
0800000000
0800000000
0800000000
0C00000000
0C00000000
0C00000000
0C00000000
0400000000
0600000000
0600000000
0200000000
0300000000
0300000000
0100000000
0180000000
FFFFFFC000
FFFFFFC000
00C0000000
00C0000000
00C0000000
0040000000
0060000000
0060000000
0060000000
0060000000
0060000000
0040000000
0040000000
00C0000000
00C0000000
00C0000000
0180000000
0180000000
0300000000
0300000000
0600000000
0C00000000
1800000000
3000000000
7FFFFFFFE0
7FFFFFFFE0
ENDCHAR
STARTCHAR 00A4
ENCODING 164
SWIDTH 578 0
DWIDTH 45 0
BBX 42 42 2 6
BITMAP
C00000000080
E00000000180
700000000300
380000000600
1C01FFC00C00
0E07C0F81800
071C001C3000
03B800066000
01E00003C000
00C000018000
00C00000C000
01800000C000
018000006000
010000006000
030000006000
030000002000
030000002000
030000003000
030000003000
030000003000
030000003000
030000003000
030000003000
030000003000
030000003000
030000002000
030000002000
010000006000
010000006000
018000004000
00800000C000
00C000008000
00E00001C000
01B00003E000
0318000E7000
060E001C3800
0C03FFF01C00
1800FF800E00
300000000700
600000000380
C000000001C0
800000000080
ENDCHAR
STARTCHAR 00A5
ENCODING 165
SWIDTH 578 0
DWIDTH 45 0
BBX 37 54 4 0
BITMAP
C000000018
6000000030
6000000030
3000000060
1800000040
18000000C0
0C00000180
0400000180
0600000300
0300000600
0300000600
0180000C00
00C0000800
00C0001800
0060003000
0060003000
0030006000
0018004000
001800C000
000C018000
0006018000
0006030000
0003060000
0003060000
00018C0000
0000C80000
0000D80000
3FFFFFFFE0
3FFFFFFFE0
0000200000
0000200000
0000200000
0000200000
0000200000
0000200000
0000200000
0000200000
0000200000
0000200000
3FFFFFFFE0
3FFFFFFFE0
0000200000
0000200000
0000200000
0000200000
0000200000
0000200000
0000200000
0000200000
0000200000
0000200000
0000200000
0000200000
0000200000
ENDCHAR
STARTCHAR 00A6
ENCODING 166
SWIDTH 231 0
DWIDTH 18 0
BBX 2 70 8 -11
BITMAP
C0
C0
C0
C0
C0
C0
C0
C0
C0
C0
C0
C0
C0
C0
C0
C0
C0
C0
C0
C0
C0
C0
C0
C0
C0
C0
C0
C0
00
00
00
00
00
00
00
00
00
00
00
00
00
00
C0
C0
C0
C0
C0
C0
C0
C0
C0
C0
C0
C0
C0
C0
C0
C0
C0
C0
C0
C0
C0
C0
C0
C0
C0
C0
C0
C0
ENDCHAR
STARTCHAR 00A7
ENCODING 167
SWIDTH 552 0
DWIDTH 43 0
BBX 30 67 7 -12
BITMAP
003FFC00
00F81F00
038001C0
06000060
0C000030
0C000000
18000000
18000000
10000000
10000000
30000000
30000000
10000000
10000000
18000000
08000000
0C000000
06000000
03800000
01E00000
00F80000
031F0000
0C03E000
18007C00
30000F00
600001C0
600000E0
C0000030
C0000018
C0000018
8000000C
8000000C
8000000C
8000000C
C0000004
C0000004
C000000C
6000000C
6000000C
38000008
1C000018
07000030
03C00030
007800C0
001F0180
0003E700
00007C00
00000E00
00000300
00000180
000000C0
00000040
00000060
00000060
00000020
00000020
00000020
00000020
00000060
00000060
00000060
000000C0
30000180
1C000300
0F000E00
03FFF800
007FE000
ENDCHAR
STARTCHAR 00A8
ENCODING 168
SWIDTH 591 0
DWIDTH 46 0
BBX 18 4 14 50
BITMAP
6001C0
F001C0
F001C0
7001C0
ENDCHAR
STARTCHAR 00A9
ENCODING 169
SWIDTH 707 0
DWIDTH 55 0
BBX 49 56 3 -1
BITMAP
00003FFE000000
0001F80FC00000
00070000F00000
001C00001C0000
00300000060000
00E00000038000
01C0000001C000
03000000006000
03000000002000
06000000003000
0C000000001800
08000000000800
18000000000C00
10000FF8000600
3000381E000600
20006003000200
6000C001800300
60018000800100
40010000C00100
C0030000000180
C0020000000180
C0060000000180
80060000000080
80060000000080
80040000000080
80040000000080
80040000000080
80040000000080
80040000000080
80040000000080
80040000000080
80040000000080
80060000000080
C0060000000080
C0060000000180
C0020000000180
40030000000180
40010000400100
60018000C00300
6000C001800300
20006003000200
3000380E000600
10000FF8000400
18000000000C00
08000000000800
0C000000001800
06000000003000
03000000006000
0180000000C000
00C00000018000
00600000030000
003800000E0000
000E00003C0000
00078000F00000
0000FF7F800000
00000FF8000000
ENDCHAR
STARTCHAR 00AA
ENCODING 170
SWIDTH 347 0
DWIDTH 27 0
BBX 23 27 3 28
BITMAP
01F800
0FFE00
180380
3000C0
6000C0
400060
000060
000060
000060
000060
000060
000060
000060
07FFE0
1C0060
300060
600060
C00060
C00060
C00060
C00060
C00060
C000E0
6000E0
300360
1E3E7E
07F01E
ENDCHAR
STARTCHAR 00AB
ENCODING 171
SWIDTH 462 0
DWIDTH 36 0
BBX 30 28 3 8
BITMAP
0003000C
00060018
000C0030
00180060
007001C0
00E00380
01C00700
03800E00
06001800
0C003000
18006000
3000C000
60018000
C0030000
C0030000
E0038000
7001C000
18006000
0C003000
06001800
03000C00
01800600
00C00300
00600180
003000C0
001C0070
00060018
0003000C
ENDCHAR
STARTCHAR 00AC
ENCODING 172
SWIDTH 591 0
DWIDTH 46 0
BBX 36 17 5 8
BITMAP
FFFFFFFFF0
FFFFFFFFF0
0000000030
0000000030
0000000030
0000000030
0000000030
0000000030
0000000030
0000000030
0000000030
0000000030
0000000030
0000000030
0000000030
0000000030
0000000030
ENDCHAR
STARTCHAR 00AD
ENCODING 173
SWIDTH 385 0
DWIDTH 30 0
BBX 18 2 6 23
BITMAP
FFFFC0
FFFFC0
ENDCHAR
STARTCHAR 00AE
ENCODING 174
SWIDTH 462 0
DWIDTH 36 0
BBX 31 32 3 23
BITMAP
003FF000
00E01C00
03800300
06000180
0C000040
18000020
30000030
20000018
603FF008
40201808
C020080C
C0200804
80200804
80200804
80201804
80203006
803FE006
8020C004
80204004
80202004
C0203004
4020100C
40201808
60200818
20000010
10000030
18000060
0C0000C0
07000180
01C00700
007CFC00
000FC000
ENDCHAR
STARTCHAR 00AF
ENCODING 175
SWIDTH 591 0
DWIDTH 46 0
BBX 20 2 13 51
BITMAP
FFFFF0
FFFFF0
ENDCHAR
STARTCHAR 00B0
ENCODING 176
SWIDTH 462 0
DWIDTH 36 0
BBX 25 26 6 29
BITMAP
00FF0000
03C1E000
0E007000
18001800
30000C00
20000600
60000600
40000300
C0000300
C0000100
80000180
80000180
80000180
80000180
80000180
80000100
C0000100
C0000300
40000300
60000600
30000400
18000C00
1C003800
07007000
03FFC000
007E0000
ENDCHAR
STARTCHAR 00B1
ENCODING 177
SWIDTH 591 0
DWIDTH 46 0
BBX 37 47 5 0
BITMAP
0000200000
0000200000
0000200000
0000200000
0000200000
0000200000
0000200000
0000200000
0000200000
0000200000
0000200000
0000200000
0000200000
0000200000
0000200000
0000200000
0000200000
0000200000
FFFFFFFFF8
FFFFFFFFF8
0000200000
0000200000
0000200000
0000200000
0000200000
0000200000
0000200000
0000200000
0000200000
0000200000
0000200000
0000200000
0000200000
0000200000
0000200000
0000200000
0000200000
0000200000
0000000000
0000000000
0000000000
0000000000
0000000000
0000000000
0000000000
0000000000
FFFFFFFFF8
ENDCHAR
STARTCHAR 00B2
ENCODING 178
SWIDTH 334 0
DWIDTH 26 0
BBX 20 29 3 26
BITMAP
00F800
07FF00
1C0180
3000C0
200040
600060
C00020
400020
000020
000020
000020
000060
000040
0000C0
000080
000180
000300
000600
000C00
001800
006000
00C000
018000
030000
0C0000
180000
300000
600000
FFFFF0
ENDCHAR
STARTCHAR 00B3
ENCODING 179
SWIDTH 334 0
DWIDTH 26 0
BBX 19 30 3 25
BITMAP
01F000
0FFF00
180380
3000C0
600040
000060
000060
000060
000060
000060
000040
0000C0
000180
000600
03F800
000700
0000C0
000040
000060
000020
000020
000020
000020
000020
000060
C00040
6000C0
380180
0FBF00
03F800
ENDCHAR
STARTCHAR 00B4
ENCODING 180
SWIDTH 591 0
DWIDTH 46 0
BBX 10 12 21 46
BITMAP
00C0
0180
0300
0300
0600
0C00
1800
1800
3000
6000
4000
C000
ENDCHAR
STARTCHAR 00B5
ENCODING 181
SWIDTH 565 0
DWIDTH 44 0
BBX 28 55 8 -16
BITMAP
C0000030
C0000030
C0000030
C0000030
C0000030
C0000030
C0000030
C0000030
C0000030
C0000030
C0000030
C0000030
C0000030
C0000030
C0000030
C0000030
C0000030
C0000030
C0000030
C0000030
C0000030
C0000030
C0000030
C0000030
C0000030
C0000030
C0000030
C0000030
C0000030
C0000030
C0000030
E0000030
E0000070
B0000070
B00000B0
D80001B0
CC000730
C7001C30
C1FFF830
C07FC000
C0000000
C0000000
C0000000
C0000000
C0000000
C0000000
C0000000
C0000000
C0000000
C0000000
C0000000
C0000000
C0000000
C0000000
C0000000
ENDCHAR
STARTCHAR 00B6
ENCODING 182
SWIDTH 578 0
DWIDTH 45 0
BBX 34 66 4 -12
BITMAP
003FFFFFC0
00FF801800
03FF801800
07FF801800
1FFF801800
1FFF801800
3FFF801800
7FFF801800
7FFF801800
7FFF801800
FFFF801800
FFFF801800
FFFF801800
FFFF801800
FFFF801800
FFFF801800
FFFF801800
FFFF801800
7FFF801800
7FFF801800
7FFF801800
3FFF801800
1FFF801800
1FFF801800
0FFF801800
03FF801800
01FF801800
003F801800
0001801800
0001801800
0001801800
0001801800
0001801800
0001801800
0001801800
0001801800
0001801800
0001801800
0001801800
0001801800
0001801800
0001801800
0001801800
0001801800
0001801800
0001801800
0001801800
0001801800
0001801800
0001801800
0001801800
0001801800
0001801800
0001801800
0001801800
0001801800
0001801800
0001801800
0001801800
0001801800
0001801800
0001801800
0001801800
0001801800
0001801800
0001801800
ENDCHAR
STARTCHAR 00B7
ENCODING 183
SWIDTH 295 0
DWIDTH 23 0
BBX 5 4 9 22
BITMAP
70
F8
F8
70
ENDCHAR
STARTCHAR 00B8
ENCODING 184
SWIDTH 591 0
DWIDTH 46 0
BBX 12 16 18 -16
BITMAP
0400
0C00
0C00
0800
0800
1800
1FC0
0070
0030
0010
0010
0010
8030
C060
7FC0
0E00
ENDCHAR
STARTCHAR 00B9
ENCODING 185
SWIDTH 372 0
DWIDTH 29 0
BBX 21 28 4 26
BITMAP
007000
00D000
031000
061000
0C1000
181000
301000
E01000
801000
001000
001000
001000
001000
001000
001000
001000
001000
001000
001000
001000
001000
001000
001000
001000
001000
001000
001000
7FFFF8
ENDCHAR
STARTCHAR 00BA
ENCODING 186
SWIDTH 360 0
DWIDTH 28 0
BBX 21 27 4 28
BITMAP
00F800
07FE00
0C0380
1800C0
300060
600060
400030
C00030
C00010
800018
800018
800018
800018
800018
800018
800018
800018
800018
C00010
C00010
400030
600020
300060
3000C0
1C0180
078F00
01FC00
ENDCHAR
STARTCHAR 00BB
ENCODING 187
SWIDTH 462 0
DWIDTH 36 0
BBX 30 28 4 8
BITMAP
C0030000
60018000
3000C000
18006000
0C003000
06001800
03000C00
01C00700
00E00380
007001C0
003800E0
001C0070
00060018
0003000C
0003000C
00060018
000C0030
00180060
003000C0
00600180
01C00700
03800E00
07001C00
0E003800
18006000
3000C000
60018000
C0030000
ENDCHAR
STARTCHAR 00BC
ENCODING 188
SWIDTH 848 0
DWIDTH 66 0
BBX 60 54 4 0
BITMAP
007000000000C000
00D0000000018000
0310000000010000
0610000000030000
0C10000000060000
1810000000060000
30100000000C0000
E010000000180000
8010000000180000
0010000000300000
0010000000200000
0010000000600000
0010000000C00000
0010000000800000
0010000001800000
0010000003000000
0010000002000000
0010000006000000
001000000C000000
001000000C000000
0010000018000000
0010000010000000
0010000030000000
0010000060000000
0010000040000000
00100000C0000600
0010000180000E00
7FFFF80100001E00
0000000300003600
0000000600006600
0000000400004600
0000000C0000C600
0000001800018600
0000001800030600
0000003000020600
0000002000040600
00000060000C0600
000000C000180600
0000008000300600
0000018000200600
0000030000400600
0000020000C00600
0000060001800600
00000C0003000600
00000C0002000600
0000180006000600
0000100007FFFFF0
0000300000000600
0000600000000600
0000400000000600
0000C00000000600
0001800000000600
0001000000000600
0003000000000600
ENDCHAR
STARTCHAR 00BD
ENCODING 189
SWIDTH 874 0
DWIDTH 68 0
BBX 61 54 4 0
BITMAP
007000000000C000
00D0000000018000
0310000000010000
0610000000030000
0C10000000060000
1810000000060000
30100000000C0000
E010000000180000
8010000000180000
0010000000300000
0010000000200000
0010000000600000
0010000000C00000
0010000000800000
0010000001800000
0010000003000000
0010000002000000
0010000006000000
001000000C000000
001000000C000000
0010000018000000
0010000010000000
0010000030000000
0010000060000000
0010000040000000
00100000C001FE00
0010000180078380
7FFFF801000C00C0
0000000300180060
0000000600300030
0000000400200030
0000000C00600010
0000001800000010
0000001800000010
0000003000000010
0000002000000030
0000006000000030
000000C000000020
0000008000000060
00000180000000C0
0000030000000180
0000020000000300
0000060000000600
00000C0000000C00
00000C0000001800
0000180000003000
0000100000006000
0000300000018000
0000600000030000
0000400000060000
0000C000000C0000
0001800000100000
0001000000600000
00030000007FFFF8
ENDCHAR
STARTCHAR 00BE
ENCODING 190
SWIDTH 810 0
DWIDTH 63 0
BBX 58 55 3 0
BITMAP
01F0000000000000
0FFF000000030000
1803800000020000
3000C00000060000
60004000000C0000
0000600000080000
0000600000180000
0000600000300000
0000600000200000
0000600000600000
0000400000C00000
0000C00000C00000
0001800001800000
0006000003000000
03F8000003000000
0007000006000000
0000C00004000000
000040000C000000
0000600018000000
0000200010000000
0000200030000000
0000200060000000
0000200040000000
00002000C0000000
0000600180000000
C000400180000000
6000C00300001800
3801800200003800
0FBF000600006800
03F8000C0000C800
0000000800008800
0000001800010800
0000003000030800
0000002000060800
00000060000C0800
000000C000080800
0000008000180800
0000018000300800
0000030000600800
0000030000400800
0000060000800800
0000040001800800
00000C0003000800
0000180006000800
0000100004000800
000030000C000800
0000600018000800
000040001FFFFFC0
0000C00000000800
0001800000000800
0001800000000800
0003000000000800
0002000000000800
0006000000000800
000C000000000800
ENDCHAR
STARTCHAR 00BF
ENCODING 191
SWIDTH 450 0
DWIDTH 35 0
BBX 29 56 3 -16
BITMAP
00018000
0003C000
0003C000
0003C000
0001C000
00000000
00000000
00000000
00000000
00000000
00000000
00000000
00000000
00000000
00018000
00018000
00018000
00018000
00018000
00018000
00018000
00018000
00018000
00018000
00018000
00018000
00038000
003F8000
01F00000
03800000
0E000000
1C000000
38000000
30000000
60000000
60000000
C0000000
C0000000
C0000000
C0000000
C0000000
C0000000
C0000000
C0000000
C0000008
C0000018
C0000018
40000010
60000030
20000060
300000E0
180001C0
0E000380
07800E00
01FFF800
003FC000
ENDCHAR
STARTCHAR 00C0
ENCODING 192
SWIDTH 591 0
DWIDTH 46 0
BBX 41 72 3 0
BITMAP
000600000000
000700000000
000300000000
000180000000
0000C0000000
0000C0000000
000060000000
000030000000
000018000000
000018000000
00000C000000
000006000000
000000000000
000000000000
000000000000
000000000000
000000000000
000000000000
00001C000000
00001C000000
000036000000
000026000000
000066000000
000063000000
000043000000
0000C1000000
0000C1800000
000081800000
000180800000
000180C00000
000100C00000
000300400000
000300600000
000600600000
000600300000
000400300000
000C00100000
000C00180000
000800180000
001800080000
0018000C0000
0010000C0000
003000040000
003000060000
006000060000
006000030000
006000030000
00C000030000
00C000018000
008000018000
018000008000
01800000C000
01FFFFFFC000
03FFFFFFC000
030000006000
060000006000
060000003000
060000003000
0C0000003000
0C0000001800
080000001800
180000000800
180000000C00
100000000C00
300000000400
300000000600
600000000600
600000000300
600000000300
C00000000300
C00000000180
800000000180
ENDCHAR
STARTCHAR 00C1
ENCODING 193
SWIDTH 591 0
DWIDTH 46 0
BBX 41 72 3 0
BITMAP
000000300000
000000600000
000000C00000
000000C00000
000001800000
000003000000
000006000000
000006000000
00000C000000
000018000000
000010000000
000030000000
000000000000
000000000000
000000000000
000000000000
000000000000
000000000000
00001C000000
00001C000000
000036000000
000026000000
000066000000
000063000000
000043000000
0000C1000000
0000C1800000
000081800000
000180800000
000180C00000
000100C00000
000300400000
000300600000
000600600000
000600300000
000400300000
000C00100000
000C00180000
000800180000
001800080000
0018000C0000
0010000C0000
003000040000
003000060000
006000060000
006000030000
006000030000
00C000030000
00C000018000
008000018000
018000008000
01800000C000
01FFFFFFC000
03FFFFFFC000
030000006000
060000006000
060000003000
060000003000
0C0000003000
0C0000001800
080000001800
180000000800
180000000C00
100000000C00
300000000400
300000000600
600000000600
600000000300
600000000300
C00000000300
C00000000180
800000000180
ENDCHAR
STARTCHAR 00C2
ENCODING 194
SWIDTH 591 0
DWIDTH 46 0
BBX 41 72 3 0
BITMAP
00001C000000
00003E000000
000066000000
0000C3000000
000181800000
000300C00000
000600600000
000C00300000
001800180000
0030000C0000
006000060000
000000000000
000000000000
000000000000
000000000000
000000000000
000000000000
000000000000
00001C000000
00001C000000
000036000000
000026000000
000066000000
000063000000
000043000000
0000C1000000
0000C1800000
000081800000
000180800000
000180C00000
000100C00000
000300400000
000300600000
000600600000
000600300000
000400300000
000C00100000
000C00180000
000800180000
001800080000
0018000C0000
0010000C0000
003000040000
003000060000
006000060000
006000030000
006000030000
00C000030000
00C000018000
008000018000
018000008000
01800000C000
01FFFFFFC000
03FFFFFFC000
030000006000
060000006000
060000003000
060000003000
0C0000003000
0C0000001800
080000001800
180000000800
180000000C00
100000000C00
300000000400
300000000600
600000000600
600000000300
600000000300
C00000000300
C00000000180
800000000180
ENDCHAR
STARTCHAR 00C3
ENCODING 195
SWIDTH 591 0
DWIDTH 46 0
BBX 41 69 3 0
BITMAP
000300000000
001FE0000000
003070000000
00601C030000
0000078C0000
000001F80000
000000000000
000000000000
000000000000
000000000000
000000000000
000000000000
000000000000
000000000000
000000000000
00001C000000
00001C000000
000036000000
000026000000
000066000000
000063000000
000043000000
0000C1000000
0000C1800000
000081800000
000180800000
000180C00000
000100C00000
000300400000
000300600000
000600600000
000600300000
000400300000
000C00100000
000C00180000
000800180000
001800080000
0018000C0000
0010000C0000
003000040000
003000060000
006000060000
006000030000
006000030000
00C000030000
00C000018000
008000018000
018000008000
01800000C000
01FFFFFFC000
03FFFFFFC000
030000006000
060000006000
060000003000
060000003000
0C0000003000
0C0000001800
080000001800
180000000800
180000000C00
100000000C00
300000000400
300000000600
600000000600
600000000300
600000000300
C00000000300
C00000000180
800000000180
ENDCHAR
STARTCHAR 00C4
ENCODING 196
SWIDTH 591 0
DWIDTH 46 0
BBX 41 68 3 0
BITMAP
000400100000
000E00380000
001E00380000
000E00380000
000000000000
000000000000
000000000000
000000000000
000000000000
000000000000
000000000000
000000000000
000000000000
000000000000
00001C000000
00001C000000
000036000000
000026000000
000066000000
000063000000
000043000000
0000C1000000
0000C1800000
000081800000
000180800000
000180C00000
000100C00000
000300400000
000300600000
000600600000
000600300000
000400300000
000C00100000
000C00180000
000800180000
001800080000
0018000C0000
0010000C0000
003000040000
003000060000
006000060000
006000030000
006000030000
00C000030000
00C000018000
008000018000
018000008000
01800000C000
01FFFFFFC000
03FFFFFFC000
030000006000
060000006000
060000003000
060000003000
0C0000003000
0C0000001800
080000001800
180000000800
180000000C00
100000000C00
300000000400
300000000600
600000000600
600000000300
600000000300
C00000000300
C00000000180
800000000180
ENDCHAR
STARTCHAR 00C5
ENCODING 197
SWIDTH 591 0
DWIDTH 46 0
BBX 41 74 3 0
BITMAP
00003E000000
0000F7800000
000180C00000
000300600000
000200600000
000600200000
000600200000
000600200000
000600200000
000200600000
000300600000
000180C00000
0001E3800000
00007F000000
000000000000
000000000000
000000000000
000000000000
000000000000
000000000000
00001C000000
00001C000000
000036000000
000026000000
000066000000
000063000000
000043000000
0000C1000000
0000C1800000
000081800000
000180800000
000180C00000
000100C00000
000300400000
000300600000
000600600000
000600300000
000400300000
000C00100000
000C00180000
000800180000
001800080000
0018000C0000
0010000C0000
003000040000
003000060000
006000060000
006000030000
006000030000
00C000030000
00C000018000
008000018000
018000008000
01800000C000
01FFFFFFC000
03FFFFFFC000
030000006000
060000006000
060000003000
060000003000
0C0000003000
0C0000001800
080000001800
180000000800
180000000C00
100000000C00
300000000400
300000000600
600000000600
600000000300
600000000300
C00000000300
C00000000180
800000000180
ENDCHAR
STARTCHAR 00C6
ENCODING 198
SWIDTH 848 0
DWIDTH 66 0
BBX 61 54 0 0
BITMAP
00000003FFFFFFF8
0000000680000000
0000000C80000000
0000000C80000000
0000001880000000
0000001880000000
0000003080000000
0000002080000000
0000006080000000
0000004080000000
000000C080000000
0000018080000000
0000018080000000
0000030080000000
0000030080000000
0000060080000000
0000060080000000
00000C0080000000
0000080080000000
0000180080000000
0000100080000000
0000300080000000
0000600080000000
0000600080000000
0000C00080000000
0000C00080000000
00018000FFFFFFF0
0001800080000000
0003000080000000
0002000080000000
0006000080000000
000C000080000000
000C000080000000
0018000080000000
001FFFFF80000000
003FFFFF80000000
0030000080000000
0060000080000000
0060000080000000
00C0000080000000
0080000080000000
0180000080000000
0300000080000000
0300000080000000
0600000080000000
0600000080000000
0C00000080000000
0C00000080000000
1800000080000000
1800000080000000
3000000080000000
2000000080000000
60000000FFFFFFF8
C0000000FFFFFFF8
ENDCHAR
STARTCHAR 00C7
ENCODING 199
SWIDTH 604 0
DWIDTH 47 0
BBX 38 71 5 -16
BITMAP
0001FFC000
000FE1F800
003C001C00
0070000700
00C0000380
01800000C0
0300000060
0600000060
0C00000030
0C00000018
1800000018
1800000000
1000000000
3000000000
3000000000
2000000000
6000000000
6000000000
6000000000
6000000000
6000000000
6000000000
4000000000
4000000000
C000000000
C000000000
C000000000
C000000000
C000000000
C000000000
C000000000
4000000000
4000000000
4000000000
6000000000
6000000000
6000000000
6000000000
6000000000
2000000000
3000000000
3000000000
3000000000
1000000000
180000000C
0800000018
0C00000018
0600000030
0600000060
0300000060
01800000C0
00E0000380
0070000700
001E003C00
0007FFF000
0000FF8000
0000080000
0000080000
0000180000
0000180000
0000100000
00001FC000
0000006000
0000003000
0000003000
0000003000
0000003000
0000802000
0001C06000
00007FC000
00001E0000
ENDCHAR
STARTCHAR 00C8
ENCODING 200
SWIDTH 552 0
DWIDTH 43 0
BBX 30 72 8 0
BITMAP
00C00000
00E00000
00600000
00300000
00180000
00180000
000C0000
00060000
00030000
00030000
00018000
0000C000
00000000
00000000
00000000
00000000
00000000
00000000
FFFFFFFC
C0000000
C0000000
C0000000
C0000000
C0000000
C0000000
C0000000
C0000000
C0000000
C0000000
C0000000
C0000000
C0000000
C0000000
C0000000
C0000000
C0000000
C0000000
C0000000
C0000000
C0000000
C0000000
C0000000
C0000000
C0000000
FFFFFFF8
C0000000
C0000000
C0000000
C0000000
C0000000
C0000000
C0000000
C0000000
C0000000
C0000000
C0000000
C0000000
C0000000
C0000000
C0000000
C0000000
C0000000
C0000000
C0000000
C0000000
C0000000
C0000000
C0000000
C0000000
C0000000
FFFFFFFC
FFFFFFFC
ENDCHAR
STARTCHAR 00C9
ENCODING 201
SWIDTH 552 0
DWIDTH 43 0
BBX 30 72 8 0
BITMAP
00000600
00000C00
00001800
00001800
00003000
00006000
0000C000
0000C000
00018000
00030000
00020000
00060000
00000000
00000000
00000000
00000000
00000000
00000000
FFFFFFFC
C0000000
C0000000
C0000000
C0000000
C0000000
C0000000
C0000000
C0000000
C0000000
C0000000
C0000000
C0000000
C0000000
C0000000
C0000000
C0000000
C0000000
C0000000
C0000000
C0000000
C0000000
C0000000
C0000000
C0000000
C0000000
FFFFFFF8
C0000000
C0000000
C0000000
C0000000
C0000000
C0000000
C0000000
C0000000
C0000000
C0000000
C0000000
C0000000
C0000000
C0000000
C0000000
C0000000
C0000000
C0000000
C0000000
C0000000
C0000000
C0000000
C0000000
C0000000
C0000000
FFFFFFFC
FFFFFFFC
ENDCHAR
STARTCHAR 00CA
ENCODING 202
SWIDTH 552 0
DWIDTH 43 0
BBX 30 72 8 0
BITMAP
00038000
0007C000
000CC000
00186000
00303000
00601800
00C00C00
01800600
03000300
06000180
0C0000C0
00000000
00000000
00000000
00000000
00000000
00000000
00000000
FFFFFFFC
C0000000
C0000000
C0000000
C0000000
C0000000
C0000000
C0000000
C0000000
C0000000
C0000000
C0000000
C0000000
C0000000
C0000000
C0000000
C0000000
C0000000
C0000000
C0000000
C0000000
C0000000
C0000000
C0000000
C0000000
C0000000
FFFFFFF8
C0000000
C0000000
C0000000
C0000000
C0000000
C0000000
C0000000
C0000000
C0000000
C0000000
C0000000
C0000000
C0000000
C0000000
C0000000
C0000000
C0000000
C0000000
C0000000
C0000000
C0000000
C0000000
C0000000
C0000000
C0000000
FFFFFFFC
FFFFFFFC
ENDCHAR
STARTCHAR 00CB
ENCODING 203
SWIDTH 552 0
DWIDTH 43 0
BBX 30 68 8 0
BITMAP
00800200
01C00700
03C00700
01C00700
00000000
00000000
00000000
00000000
00000000
00000000
00000000
00000000
00000000
00000000
FFFFFFFC
C0000000
C0000000
C0000000
C0000000
C0000000
C0000000
C0000000
C0000000
C0000000
C0000000
C0000000
C0000000
C0000000
C0000000
C0000000
C0000000
C0000000
C0000000
C0000000
C0000000
C0000000
C0000000
C0000000
C0000000
C0000000
FFFFFFF8
C0000000
C0000000
C0000000
C0000000
C0000000
C0000000
C0000000
C0000000
C0000000
C0000000
C0000000
C0000000
C0000000
C0000000
C0000000
C0000000
C0000000
C0000000
C0000000
C0000000
C0000000
C0000000
C0000000
C0000000
C0000000
FFFFFFFC
FFFFFFFC
ENDCHAR
STARTCHAR 00CC
ENCODING 204
SWIDTH 360 0
DWIDTH 28 0
BBX 19 72 5 0
BITMAP
300000
180000
180000
0C0000
060000
030000
030000
018000
00C000
004000
006000
003000
000000
000000
000000
000000
000000
000000
FFFFE0
004000
004000
004000
004000
004000
004000
004000
004000
004000
004000
004000
004000
004000
004000
004000
004000
004000
004000
004000
004000
004000
004000
004000
004000
004000
004000
004000
004000
004000
004000
004000
004000
004000
004000
004000
004000
004000
004000
004000
004000
004000
004000
004000
004000
004000
004000
004000
004000
004000
004000
004000
004000
FFFFE0
ENDCHAR
STARTCHAR 00CD
ENCODING 205
SWIDTH 360 0
DWIDTH 28 0
BBX 19 72 5 0
BITMAP
000180
000300
000700
000600
000C00
001800
001800
003000
006000
00C000
008000
018000
000000
000000
000000
000000
000000
000000
FFFFE0
004000
004000
004000
004000
004000
004000
004000
004000
004000
004000
004000
004000
004000
004000
004000
004000
004000
004000
004000
004000
004000
004000
004000
004000
004000
004000
004000
004000
004000
004000
004000
004000
004000
004000
004000
004000
004000
004000
004000
004000
004000
004000
004000
004000
004000
004000
004000
004000
004000
004000
004000
004000
FFFFE0
ENDCHAR
STARTCHAR 00CE
ENCODING 206
SWIDTH 360 0
DWIDTH 28 0
BBX 21 72 4 0
BITMAP
007000
00F800
01DC00
038E00
070700
0E0300
1C0180
1800C0
300060
600030
C00018
000000
000000
000000
000000
000000
000000
000000
7FFFF0
002000
002000
002000
002000
002000
002000
002000
002000
002000
002000
002000
002000
002000
002000
002000
002000
002000
002000
002000
002000
002000
002000
002000
002000
002000
002000
002000
002000
002000
002000
002000
002000
002000
002000
002000
002000
002000
002000
002000
002000
002000
002000
002000
002000
002000
002000
002000
002000
002000
002000
002000
002000
7FFFF0
ENDCHAR
STARTCHAR 00CF
ENCODING 207
SWIDTH 360 0
DWIDTH 28 0
BBX 19 68 5 0
BITMAP
000080
7001C0
7001C0
7001C0
000000
000000
000000
000000
000000
000000
000000
000000
000000
000000
FFFFE0
004000
004000
004000
004000
004000
004000
004000
004000
004000
004000
004000
004000
004000
004000
004000
004000
004000
004000
004000
004000
004000
004000
004000
004000
004000
004000
004000
004000
004000
004000
004000
004000
004000
004000
004000
004000
004000
004000
004000
004000
004000
004000
004000
004000
004000
004000
004000
004000
004000
004000
004000
004000
FFFFE0
ENDCHAR
STARTCHAR 00D0
ENCODING 208
SWIDTH 655 0
DWIDTH 51 0
BBX 44 54 2 0
BITMAP
01FFFFF80000
0100007F0000
01000003C000
01000000F000
010000003800
010000001C00
010000000E00
010000000600
010000000300
010000000180
010000000180
010000000080
0100000000C0
0100000000C0
010000000040
010000000060
010000000060
010000000060
010000000020
010000000020
010000000030
010000000030
010000000030
010000000030
010000000030
FFFFFC000030
010000000030
010000000030
010000000030
010000000030
010000000030
010000000030
010000000030
010000000030
010000000020
010000000020
010000000060
010000000060
010000000060
010000000040
0100000000C0
0100000000C0
010000000080
010000000180
010000000300
010000000300
010000000600
010000000C00
010000001C00
010000003000
01000000E000
01000007C000
01FFFFFE0000
01FFFFF00000
ENDCHAR
STARTCHAR 00D1
ENCODING 209
SWIDTH 681 0
DWIDTH 53 0
BBX 37 69 8 0
BITMAP
000E000000
003F800000
00E0E00400
0180380C00
00000E3800
000007E000
0000000000
0000000000
0000000000
0000000000
0000000000
0000000000
0000000000
0000000000
0000000000
E000000008
F000000008
D800000008
D800000008
CC00000008
C600000008
C600000008
C300000008
C300000008
C180000008
C0C0000008
C0C0000008
C060000008
C030000008
C030000008
C018000008
C018000008
C00C000008
C006000008
C006000008
C003000008
C001800008
C001800008
C000C00008
C000C00008
C000600008
C000300008
C000300008
C000180008
C0000C0008
C0000C0008
C000060008
C000060008
C000030008
C000018008
C000018008
C00000C008
C000006008
C000006008
C000003008
C000003008
C000001808
C000000C08
C000000C08
C000000608
C000000308
C000000308
C000000188
C000000188
C0000000C8
C000000068
C000000068
C000000038
C000000018
ENDCHAR
STARTCHAR 00D2
ENCODING 210
SWIDTH 668 0
DWIDTH 52 0
BBX 42 73 5 -1
BITMAP
000300000000
000180000000
000180000000
0000C0000000
000060000000
000030000000
000030000000
000018000000
00000C000000
000004000000
000006000000
000003000000
000000000000
000000000000
000000000000
000000000000
000000000000
0001FFE00000
000FF1FC0000
001E000F0000
00700001C000
00E00000E000
018000007000
030000003800
060000001C00
060000000C00
0C0000000600
080000000600
180000000300
180000000300
300000000100
300000000180
300000000180
200000000080
6000000000C0
6000000000C0
6000000000C0
6000000000C0
6000000000C0
4000000000C0
4000000000C0
C00000000040
C00000000040
C00000000040
C00000000040
C00000000040
C00000000040
C00000000040
400000000040
4000000000C0
4000000000C0
6000000000C0
6000000000C0
6000000000C0
6000000000C0
6000000000C0
200000000180
300000000180
300000000180
300000000100
180000000300
180000000300
0C0000000600
0C0000000600
060000000C00
070000001800
038000003800
01C000007000
00E00000E000
007800038000
001E000F0000
0007FFFC0000
00007FC00000
ENDCHAR
STARTCHAR 00D3
ENCODING 211
SWIDTH 668 0
DWIDTH 52 0
BBX 42 73 5 -1
BITMAP
000000180000
000000300000
000000600000
000000600000
000000C00000
000001800000
000001000000
000003000000
000006000000
00000C000000
000008000000
000018000000
000000000000
000000000000
000000000000
000000000000
000000000000
0001FFE00000
000FF1FC0000
001E000F0000
00700001C000
00E00000E000
018000007000
030000003800
060000001C00
060000000C00
0C0000000600
080000000600
180000000300
180000000300
300000000100
300000000180
300000000180
200000000080
6000000000C0
6000000000C0
6000000000C0
6000000000C0
6000000000C0
4000000000C0
4000000000C0
C00000000040
C00000000040
C00000000040
C00000000040
C00000000040
C00000000040
C00000000040
400000000040
4000000000C0
4000000000C0
6000000000C0
6000000000C0
6000000000C0
6000000000C0
6000000000C0
200000000180
300000000180
300000000180
300000000100
180000000300
180000000300
0C0000000600
0C0000000600
060000000C00
070000001800
038000003800
01C000007000
00E00000E000
007800038000
001E000F0000
0007FFFC0000
00007FC00000
ENDCHAR
STARTCHAR 00D4
ENCODING 212
SWIDTH 668 0
DWIDTH 52 0
BBX 42 73 5 -1
BITMAP
00000E000000
00001F000000
000033800000
000061C00000
0000E0E00000
0001C0600000
000380300000
000700180000
0006000C0000
000C00060000
001800030000
000000000000
000000000000
000000000000
000000000000
000000000000
000000000000
0001FFE00000
000FF1FC0000
001E000F0000
00700001C000
00E00000E000
018000007000
030000003800
060000001C00
060000000C00
0C0000000600
080000000600
180000000300
180000000300
300000000100
300000000180
300000000180
200000000080
6000000000C0
6000000000C0
6000000000C0
6000000000C0
6000000000C0
4000000000C0
4000000000C0
C00000000040
C00000000040
C00000000040
C00000000040
C00000000040
C00000000040
C00000000040
400000000040
4000000000C0
4000000000C0
6000000000C0
6000000000C0
6000000000C0
6000000000C0
6000000000C0
200000000180
300000000180
300000000180
300000000100
180000000300
180000000300
0C0000000600
0C0000000600
060000000C00
070000001800
038000003800
01C000007000
00E00000E000
007800038000
001E000F0000
0007FFFC0000
00007FC00000
ENDCHAR
STARTCHAR 00D5
ENCODING 213
SWIDTH 668 0
DWIDTH 52 0
BBX 42 70 5 -1
BITMAP
000180000000
000FF0000000
00181C000000
00300E018000
000003C70000
000000FC0000
000000000000
000000000000
000000000000
000000000000
000000000000
000000000000
000000000000
000000000000
0001FFE00000
000FF1FC0000
001E000F0000
00700001C000
00E00000E000
018000007000
030000003800
060000001C00
060000000C00
0C0000000600
080000000600
180000000300
180000000300
300000000100
300000000180
300000000180
200000000080
6000000000C0
6000000000C0
6000000000C0
6000000000C0
6000000000C0
4000000000C0
4000000000C0
C00000000040
C00000000040
C00000000040
C00000000040
C00000000040
C00000000040
C00000000040
400000000040
4000000000C0
4000000000C0
6000000000C0
6000000000C0
6000000000C0
6000000000C0
6000000000C0
200000000180
300000000180
300000000180
300000000100
180000000300
180000000300
0C0000000600
0C0000000600
060000000C00
070000001800
038000003800
01C000007000
00E00000E000
007800038000
001E000F0000
0007FFFC0000
00007FC00000
ENDCHAR
STARTCHAR 00D6
ENCODING 214
SWIDTH 668 0
DWIDTH 52 0
BBX 42 69 5 -1
BITMAP
000000080000
0007001C0000
0007001C0000
0007001C0000
000000000000
000000000000
000000000000
000000000000
000000000000
000000000000
000000000000
000000000000
000000000000
0001FFE00000
000FF1FC0000
001E000F0000
00700001C000
00E00000E000
018000007000
030000003800
060000001C00
060000000C00
0C0000000600
080000000600
180000000300
180000000300
300000000100
300000000180
300000000180
200000000080
6000000000C0
6000000000C0
6000000000C0
6000000000C0
6000000000C0
4000000000C0
4000000000C0
C00000000040
C00000000040
C00000000040
C00000000040
C00000000040
C00000000040
C00000000040
400000000040
4000000000C0
4000000000C0
6000000000C0
6000000000C0
6000000000C0
6000000000C0
6000000000C0
200000000180
300000000180
300000000180
300000000100
180000000300
180000000300
0C0000000600
0C0000000600
060000000C00
070000001800
038000003800
01C000007000
00E00000E000
007800038000
001E000F0000
0007FFFC0000
00007FC00000
ENDCHAR
STARTCHAR 00D7
ENCODING 215
SWIDTH 591 0
DWIDTH 46 0
BBX 30 30 8 9
BITMAP
40000004
6000000C
30000018
18000030
0C000060
060000C0
03000180
01800300
00C00600
00600C00
00301800
00183000
000C6000
0006C000
00038000
00038000
0006C000
000C6000
00183000
00301800
00600C00
00C00E00
01800700
03000380
060001C0
0C0000E0
18000070
30000038
6000001C
C000000C
ENDCHAR
STARTCHAR 00D8
ENCODING 216
SWIDTH 668 0
DWIDTH 52 0
BBX 42 59 5 -2
BITMAP
000000000040
0000000000C0
0001FFE00180
000FF1FC0180
001E000F0300
00700001C600
00E00000E600
018000007C00
030000003800
060000001800
060000003C00
0C0000006600
080000004600
18000000C300
180000018300
300000030100
300000030180
300000060180
2000000C0080
6000000C0080
6000001800C0
6000003000C0
6000003000C0
6000006000C0
400000C000C0
4000018000C0
C00001800040
C00003000040
C00006000040
C00006000040
C0000C000040
C00018000040
C00018000040
400030000040
4000600000C0
4000C00000C0
6000C00000C0
6001800000C0
6003000000C0
6003000000C0
6006000000C0
200C00000180
300C00000180
301800000180
103000000100
183000000300
186000000300
0CC000000600
0D8000000600
078000000C00
030000001800
078000003800
07C000007000
0CE00000E000
183800038000
181E000F0000
3007FFFC0000
6000FFC00000
C00000000000
ENDCHAR
STARTCHAR 00D9
ENCODING 217
SWIDTH 642 0
DWIDTH 50 0
BBX 35 73 8 -1
BITMAP
0030000000
0038000000
0018000000
000C000000
0006000000
0006000000
0003000000
0001800000
0000C00000
0000C00000
0000600000
0000300000
0000000000
0000000000
0000000000
0000000000
0000000000
0000000000
8000000060
8000000060
8000000060
8000000060
8000000060
8000000060
8000000060
8000000060
8000000060
8000000060
8000000060
8000000060
8000000060
8000000060
8000000060
8000000060
8000000060
8000000060
8000000060
8000000060
8000000060
8000000060
8000000060
8000000060
8000000060
8000000060
8000000060
8000000060
8000000060
8000000060
8000000060
8000000060
8000000060
8000000060
8000000060
C000000060
C000000060
C000000060
C000000060
C000000060
C000000060
C000000040
40000000C0
40000000C0
60000000C0
6000000080
3000000180
3000000180
1800000300
1800000600
0E00000E00
0700001C00
03C000F000
00FFFFC000
000FFE0000
ENDCHAR
STARTCHAR 00DA
ENCODING 218
SWIDTH 642 0
DWIDTH 50 0
BBX 35 73 8 -1
BITMAP
0000018000
0000030000
0000060000
0000060000
00000C0000
0000180000
0000300000
0000300000
0000600000
0000C00000
0001800000
0001800000
0000000000
0000000000
0000000000
0000000000
0000000000
0000000000
8000000060
8000000060
8000000060
8000000060
8000000060
8000000060
8000000060
8000000060
8000000060
8000000060
8000000060
8000000060
8000000060
8000000060
8000000060
8000000060
8000000060
8000000060
8000000060
8000000060
8000000060
8000000060
8000000060
8000000060
8000000060
8000000060
8000000060
8000000060
8000000060
8000000060
8000000060
8000000060
8000000060
8000000060
8000000060
C000000060
C000000060
C000000060
C000000060
C000000060
C000000060
C000000040
40000000C0
40000000C0
60000000C0
6000000080
3000000180
3000000180
1800000300
1800000600
0E00000E00
0700001C00
03C000F000
00FFFFC000
000FFE0000
ENDCHAR
STARTCHAR 00DB
ENCODING 219
SWIDTH 642 0
DWIDTH 50 0
BBX 35 73 8 -1
BITMAP
0000C00000
0001E00000
0003300000
0006180000
000C0C0000
0018060000
0030030000
0060018000
00C000C000
0180006000
0300003000
0000000000
0000000000
0000000000
0000000000
0000000000
0000000000
0000000000
8000000060
8000000060
8000000060
8000000060
8000000060
8000000060
8000000060
8000000060
8000000060
8000000060
8000000060
8000000060
8000000060
8000000060
8000000060
8000000060
8000000060
8000000060
8000000060
8000000060
8000000060
8000000060
8000000060
8000000060
8000000060
8000000060
8000000060
8000000060
8000000060
8000000060
8000000060
8000000060
8000000060
8000000060
8000000060
C000000060
C000000060
C000000060
C000000060
C000000060
C000000060
C000000040
40000000C0
40000000C0
60000000C0
6000000080
3000000180
3000000180
1800000300
1800000600
0E00000E00
0700001C00
03C000F000
00FFFFC000
000FFE0000
ENDCHAR
STARTCHAR 00DC
ENCODING 220
SWIDTH 642 0
DWIDTH 50 0
BBX 35 69 8 -1
BITMAP
0000008000
00F001C000
00F001C000
007001C000
0000000000
0000000000
0000000000
0000000000
0000000000
0000000000
0000000000
0000000000
0000000000
0000000000
8000000060
8000000060
8000000060
8000000060
8000000060
8000000060
8000000060
8000000060
8000000060
8000000060
8000000060
8000000060
8000000060
8000000060
8000000060
8000000060
8000000060
8000000060
8000000060
8000000060
8000000060
8000000060
8000000060
8000000060
8000000060
8000000060
8000000060
8000000060
8000000060
8000000060
8000000060
8000000060
8000000060
8000000060
8000000060
C000000060
C000000060
C000000060
C000000060
C000000060
C000000060
C000000040
40000000C0
40000000C0
60000000C0
6000000080
3000000180
3000000180
1800000300
1800000600
0E00000E00
0700001C00
03C000F000
00FFFFC000
000FFE0000
ENDCHAR
STARTCHAR 00DD
ENCODING 221
SWIDTH 540 0
DWIDTH 42 0
BBX 38 72 2 0
BITMAP
0000006000
000000C000
0000018000
0000038000
0000030000
0000060000
00000C0000
00000C0000
0000180000
0000300000
0000600000
0000400000
0000000000
0000000000
0000000000
0000000000
0000000000
0000000000
C00000000C
600000000C
6000000018
3000000018
3000000030
1800000060
0C00000060
0C000000C0
06000000C0
0600000180
0300000300
0180000300
0180000600
00C0000600
00C0000C00
0060000800
0030001800
0030003000
0018003000
0018006000
000C004000
000600C000
0006018000
0003018000
0003030000
0001820000
0000C60000
0000CC0000
00006C0000
0000780000
0000300000
0000300000
0000300000
0000300000
0000300000
0000300000
0000300000
0000300000
0000300000
0000300000
0000300000
0000300000
0000300000
0000300000
0000300000
0000300000
0000300000
0000300000
0000300000
0000300000
0000300000
0000300000
0000300000
0000300000
ENDCHAR
STARTCHAR 00DE
ENCODING 222
SWIDTH 591 0
DWIDTH 46 0
BBX 35 54 8 0
BITMAP
C000000000
C000000000
C000000000
C000000000
C000000000
C000000000
C000000000
C000000000
C000000000
C000000000
C000000000
C000000000
FFFFFFC000
C00003F800
C000001C00
C000000E00
C000000300
C000000180
C000000180
C0000000C0
C0000000C0
C0000000C0
C000000040
C000000060
C000000060
C000000060
C000000060
C000000060
C000000060
C000000060
C000000040
C0000000C0
C0000000C0
C0000000C0
C000000180
C000000180
C000000300
C000000E00
C000001C00
C00003F000
FFFFFFC000
C000000000
C000000000
C000000000
C000000000
C000000000
C000000000
C000000000
C000000000
C000000000
C000000000
C000000000
C000000000
C000000000
ENDCHAR
STARTCHAR 00DF
ENCODING 223
SWIDTH 642 0
DWIDTH 50 0
BBX 43 59 3 -1
BITMAP
00007FF00000
0001C01C0000
000700070000
000C00018000
00180000C000
003000006000
003000002000
006000003000
006000001000
004000001800
00C000001800
00C000000800
008000000800
008000000C00
018000000C00
018000000C00
018000000C00
018000000C00
018000000C00
FF800007FC00
0180003E0000
018000E00000
018001800000
018003000000
018006000000
018006000000
01800C000000
01800C000000
01800C000000
01800C000000
01800C000000
018004000000
018006000000
018006000000
018003000000
018001C00000
018000F80000
0180001F8000
01800003F000
018000003E00
018000000700
018000000180
0180000000C0
018000000040
018000000060
018000000060
018000000020
018000000020
018000000020
018000000020
018000000020
0180C0000060
0180E0000060
0180700000C0
0180380000C0
01801C000380
018007000700
018001FFFC00
0000003FE000
ENDCHAR
STARTCHAR 00E0
ENCODING 224
SWIDTH 514 0
DWIDTH 40 0
BBX 34 59 5 -1
BITMAP
0180000000
00C0000000
00C0000000
0060000000
0030000000
0018000000
0018000000
000C000000
0006000000
0002000000
0003000000
0001800000
0000000000
0000000000
0000000000
0000000000
0000000000
0000000000
007FF00000
03E03C0000
0700060000
0C00030000
1800018000
300000C000
300000C000
6000006000
2000006000
0000006000
0000006000
0000002000
0000002000
0000002000
0000002000
0000002000
0000002000
0000002000
0000002000
01FFFFE000
0780002000
1C00002000
3800002000
6000002000
6000002000
C000002000
C000002000
C000002000
C000002000
C000006000
C000006000
C000006000
C000006000
C00000E000
400000A000
6000012000
3000032000
38000E2000
0E00382000
07FFF03FC0
00FF800000
ENDCHAR
STARTCHAR 00E1
ENCODING 225
SWIDTH 514 0
DWIDTH 40 0
BBX 34 59 5 -1
BITMAP
00000C0000
0000180000
0000300000
0000300000
0000600000
0000C00000
0000800000
0001800000
0003000000
0006000000
0004000000
000C000000
0000000000
0000000000
0000000000
0000000000
0000000000
0000000000
007FF00000
03E03C0000
0700060000
0C00030000
1800018000
300000C000
300000C000
6000006000
2000006000
0000006000
0000006000
0000002000
0000002000
0000002000
0000002000
0000002000
0000002000
0000002000
0000002000
01FFFFE000
0780002000
1C00002000
3800002000
6000002000
6000002000
C000002000
C000002000
C000002000
C000002000
C000006000
C000006000
C000006000
C000006000
C00000E000
400000A000
6000012000
3000032000
38000E2000
0E00382000
07FFF03FC0
00FF800000
ENDCHAR
STARTCHAR 00E2
ENCODING 226
SWIDTH 514 0
DWIDTH 40 0
BBX 34 59 5 -1
BITMAP
0007000000
000F800000
0019C00000
0030E00000
0070700000
00E0300000
01C0180000
03800C0000
0300060000
0600030000
0C00018000
0000000000
0000000000
0000000000
0000000000
0000000000
0000000000
0000000000
007FF00000
03E03C0000
0700060000
0C00030000
1800018000
300000C000
300000C000
6000006000
2000006000
0000006000
0000006000
0000002000
0000002000
0000002000
0000002000
0000002000
0000002000
0000002000
0000002000
01FFFFE000
0780002000
1C00002000
3800002000
6000002000
6000002000
C000002000
C000002000
C000002000
C000002000
C000006000
C000006000
C000006000
C000006000
C00000E000
400000A000
6000012000
3000032000
38000E2000
0E00382000
07FFF03FC0
00FF800000
ENDCHAR
STARTCHAR 00E3
ENCODING 227
SWIDTH 514 0
DWIDTH 40 0
BBX 34 56 5 -1
BITMAP
00C0000000
07F8000000
0C0E000000
180700C000
0001E38000
00007E0000
0000000000
0000000000
0000000000
0000000000
0000000000
0000000000
0000000000
0000000000
0000000000
007FF00000
03E03C0000
0700060000
0C00030000
1800018000
300000C000
300000C000
6000006000
2000006000
0000006000
0000006000
0000002000
0000002000
0000002000
0000002000
0000002000
0000002000
0000002000
0000002000
01FFFFE000
0780002000
1C00002000
3800002000
6000002000
6000002000
C000002000
C000002000
C000002000
C000002000
C000006000
C000006000
C000006000
C000006000
C00000E000
400000A000
6000012000
3000032000
38000E2000
0E00382000
07FFF03FC0
00FF800000
ENDCHAR
STARTCHAR 00E4
ENCODING 228
SWIDTH 514 0
DWIDTH 40 0
BBX 34 55 5 -1
BITMAP
03000E0000
03800E0000
03800E0000
03800E0000
0000000000
0000000000
0000000000
0000000000
0000000000
0000000000
0000000000
0000000000
0000000000
0000000000
007FF00000
03E03C0000
0700060000
0C00030000
1800018000
300000C000
300000C000
6000006000
2000006000
0000006000
0000006000
0000002000
0000002000
0000002000
0000002000
0000002000
0000002000
0000002000
0000002000
01FFFFE000
0780002000
1C00002000
3800002000
6000002000
6000002000
C000002000
C000002000
C000002000
C000002000
C000006000
C000006000
C000006000
C000006000
C00000E000
400000A000
6000012000
3000032000
38000E2000
0E00382000
07FFF03FC0
00FF800000
ENDCHAR
STARTCHAR 00E5
ENCODING 229
SWIDTH 514 0
DWIDTH 40 0
BBX 34 61 5 -1
BITMAP
000F800000
003DE00000
0060300000
00C0180000
0080180000
0080080000
0180080000
0180080000
0080080000
0080080000
00C0180000
0060300000
0038E00000
001FC00000
0000000000
0000000000
0000000000
0000000000
0000000000
0000000000
007FF00000
03E03C0000
0700060000
0C00030000
1800018000
300000C000
300000C000
6000006000
2000006000
0000006000
0000006000
0000002000
0000002000
0000002000
0000002000
0000002000
0000002000
0000002000
0000002000
01FFFFE000
0780002000
1C00002000
3800002000
6000002000
6000002000
C000002000
C000002000
C000002000
C000002000
C000006000
C000006000
C000006000
C000006000
C00000E000
400000A000
6000012000
3000032000
38000E2000
0E00382000
07FFF03FC0
00FF800000
ENDCHAR
STARTCHAR 00E6
ENCODING 230
SWIDTH 848 0
DWIDTH 66 0
BBX 58 41 4 -1
BITMAP
007FF00007FE0000
01E03E001E07C000
030007007000E000
0E000180C0003000
0C0000C180001800
180000C300000C00
3000006600000600
3000006600000300
0000002C00000300
0000002C00000180
0000003800000180
0000003800000080
0000003800000080
00000030000000C0
00000030000000C0
00000030000000C0
00000030000000C0
00000030000000C0
0000003000000040
00FFFFFFFFFFFFC0
07C0003000000000
0E00003000000000
1800003000000000
3000003000000000
6000003000000000
6000003000000000
4000003000000000
4000003000000000
C000003800000000
C000003800000000
C0000038000000C0
C000002C00000080
4000006C00000180
4000006600000300
600000C300000300
2000008300000600
3000038180000C00
18000700E0003800
0E001C003800F000
03FFF0001FFFC000
007F800001FE0000
ENDCHAR
STARTCHAR 00E7
ENCODING 231
SWIDTH 475 0
DWIDTH 37 0
BBX 30 56 5 -16
BITMAP
003FF800
00F81E00
03800380
070000C0
0C000060
18000030
18000030
30000018
20000000
60000000
60000000
40000000
C0000000
C0000000
C0000000
C0000000
C0000000
80000000
80000000
80000000
80000000
80000000
80000000
80000000
C0000000
C0000000
C0000000
C0000000
C0000000
40000000
60000000
60000000
30000000
3000000C
18000018
0C000030
06000060
030000C0
01C00380
007FFE00
000FF000
00010000
00010000
00010000
00030000
00030000
0003F800
00000C00
00000600
00000600
00000600
00000600
00100600
00180C00
000FF800
0003C000
ENDCHAR
STARTCHAR 00E8
ENCODING 232
SWIDTH 527 0
DWIDTH 41 0
BBX 32 59 5 -1
BITMAP
00C00000
00600000
00300000
00180000
00180000
000C0000
00060000
00020000
00030000
00018000
0000C000
00004000
00000000
00000000
00000000
00000000
00000000
00000000
003FF800
00F81E00
03800380
070000C0
0C000060
18000030
18000010
30000018
2000000C
6000000C
60000004
40000006
C0000006
C0000002
C0000002
C0000003
C0000003
80000003
80000003
FFFFFFFF
80000000
80000000
80000000
80000000
C0000000
C0000000
C0000000
C0000000
40000000
40000000
60000006
60000006
3000000C
3000000C
18000018
0C000030
06000060
030000C0
01C00380
007FFE00
000FF000
ENDCHAR
STARTCHAR 00E9
ENCODING 233
SWIDTH 527 0
DWIDTH 41 0
BBX 32 59 5 -1
BITMAP
00000600
00000600
00000C00
00001800
00003000
00003000
00006000
0000C000
00008000
00018000
00030000
00060000
00000000
00000000
00000000
00000000
00000000
00000000
003FF800
00F81E00
03800380
070000C0
0C000060
18000030
18000010
30000018
2000000C
6000000C
60000004
40000006
C0000006
C0000002
C0000002
C0000003
C0000003
80000003
80000003
FFFFFFFF
80000000
80000000
80000000
80000000
C0000000
C0000000
C0000000
C0000000
40000000
40000000
60000006
60000006
3000000C
3000000C
18000018
0C000030
06000060
030000C0
01C00380
007FFE00
000FF000
ENDCHAR
STARTCHAR 00EA
ENCODING 234
SWIDTH 527 0
DWIDTH 41 0
BBX 32 59 5 -1
BITMAP
00018000
0003C000
00066000
000C3000
00181800
00300C00
00600600
00C00300
01800180
030000C0
06000060
00000000
00000000
00000000
00000000
00000000
00000000
00000000
003FF800
00F81E00
03800380
070000C0
0C000060
18000030
18000010
30000018
2000000C
6000000C
60000004
40000006
C0000006
C0000002
C0000002
C0000003
C0000003
80000003
80000003
FFFFFFFF
80000000
80000000
80000000
80000000
C0000000
C0000000
C0000000
C0000000
40000000
40000000
60000006
60000006
3000000C
3000000C
18000018
0C000030
06000060
030000C0
01C00380
007FFE00
000FF000
ENDCHAR
STARTCHAR 00EB
ENCODING 235
SWIDTH 527 0
DWIDTH 41 0
BBX 32 55 5 -1
BITMAP
00C00300
01E00780
01E00780
01C00300
00000000
00000000
00000000
00000000
00000000
00000000
00000000
00000000
00000000
00000000
003FF800
00F81E00
03800380
070000C0
0C000060
18000030
18000010
30000018
2000000C
6000000C
60000004
40000006
C0000006
C0000002
C0000002
C0000003
C0000003
80000003
80000003
FFFFFFFF
80000000
80000000
80000000
80000000
C0000000
C0000000
C0000000
C0000000
40000000
40000000
60000006
60000006
3000000C
3000000C
18000018
0C000030
06000060
030000C0
01C00380
007FFE00
000FF000
ENDCHAR
STARTCHAR 00EC
ENCODING 236
SWIDTH 218 0
DWIDTH 17 0
BBX 10 58 1 0
BITMAP
E000
6000
3000
1800
1800
0C00
0600
0300
0300
0180
00C0
0040
0000
0000
0000
0000
0000
0000
0000
0180
0180
0180
0180
0180
0180
0180
0180
0180
0180
0180
0180
0180
0180
0180
0180
0180
0180
0180
0180
0180
0180
0180
0180
0180
0180
0180
0180
0180
0180
0180
0180
0180
0180
0180
0180
0180
0180
0180
ENDCHAR
STARTCHAR 00ED
ENCODING 237
SWIDTH 218 0
DWIDTH 17 0
BBX 11 58 6 0
BITMAP
00E0
00C0
0180
0300
0300
0600
0C00
1800
1800
3000
6000
C000
0000
0000
0000
0000
0000
0000
0000
3000
3000
3000
3000
3000
3000
3000
3000
3000
3000
3000
3000
3000
3000
3000
3000
3000
3000
3000
3000
3000
3000
3000
3000
3000
3000
3000
3000
3000
3000
3000
3000
3000
3000
3000
3000
3000
3000
3000
ENDCHAR
STARTCHAR 00EE
ENCODING 238
SWIDTH 218 0
DWIDTH 17 0
BBX 22 58 -2 0
BITMAP
003000
007800
00CC00
018600
030300
060180
0C00C0
180060
300030
600018
C0000C
000000
000000
000000
000000
000000
000000
000000
000000
003000
003000
003000
003000
003000
003000
003000
003000
003000
003000
003000
003000
003000
003000
003000
003000
003000
003000
003000
003000
003000
003000
003000
003000
003000
003000
003000
003000
003000
003000
003000
003000
003000
003000
003000
003000
003000
003000
003000
ENDCHAR
STARTCHAR 00EF
ENCODING 239
SWIDTH 218 0
DWIDTH 17 0
BBX 18 54 0 0
BITMAP
600180
F003C0
F003C0
E001C0
000000
000000
000000
000000
000000
000000
000000
000000
000000
000000
000000
00C000
00C000
00C000
00C000
00C000
00C000
00C000
00C000
00C000
00C000
00C000
00C000
00C000
00C000
00C000
00C000
00C000
00C000
00C000
00C000
00C000
00C000
00C000
00C000
00C000
00C000
00C000
00C000
00C000
00C000
00C000
00C000
00C000
00C000
00C000
00C000
00C000
00C000
00C000
ENDCHAR
STARTCHAR 00F0
ENCODING 240
SWIDTH 540 0
DWIDTH 42 0
BBX 32 59 5 -1
BITMAP
01C000C0
00700180
00180700
000C0C00
00071800
0001F000
0000C000
0001E000
00063000
000C1800
00380C00
00600400
00C00600
00000300
00000180
00000080
000000C0
00000040
00000060
000FF030
007FFE10
01E00790
038001D8
06000068
0C00003C
1800001C
1000000C
3000000E
20000006
60000006
40000002
C0000003
C0000003
C0000003
C0000003
C0000003
80000001
80000001
80000001
80000001
80000001
80000001
80000003
C0000003
C0000003
C0000003
40000002
40000002
60000006
20000004
3000000C
10000008
18000018
0C000030
06000060
038001C0
01E00780
007FFE00
000FF000
ENDCHAR
STARTCHAR 00F1
ENCODING 241
SWIDTH 552 0
DWIDTH 43 0
BBX 28 55 8 0
BITMAP
01C00000
07F80000
0C1C0080
10070180
0001E700
00007E00
00000000
00000000
00000000
00000000
00000000
00000000
00000000
00000000
00000000
007FF000
C1E07C00
C7000E00
CC000300
D8000180
D00000C0
E00000C0
E0000060
C0000060
C0000020
C0000030
C0000030
C0000030
C0000030
C0000030
C0000030
C0000030
C0000030
C0000030
C0000030
C0000030
C0000030
C0000030
C0000030
C0000030
C0000030
C0000030
C0000030
C0000030
C0000030
C0000030
C0000030
C0000030
C0000030
C0000030
C0000030
C0000030
C0000030
C0000030
C0000030
ENDCHAR
STARTCHAR 00F2
ENCODING 242
SWIDTH 540 0
DWIDTH 42 0
BBX 32 59 5 -1
BITMAP
00E00000
00600000
00300000
00180000
00180000
000C0000
00060000
00030000
00030000
00018000
0000C000
00006000
00000000
00000000
00000000
00000000
00000000
00000000
003FFC00
00F81F00
038001C0
070000E0
0C000030
18000018
18000018
3000000C
20000004
60000006
60000006
40000002
C0000003
C0000003
C0000003
C0000003
C0000003
80000001
80000001
80000001
80000001
80000001
80000001
80000003
C0000003
C0000003
C0000003
C0000003
40000002
40000002
60000006
60000006
3000000C
3000000C
18000018
0C000030
06000060
030000C0
01C00380
007FFE00
000FF000
ENDCHAR
STARTCHAR 00F3
ENCODING 243
SWIDTH 540 0
DWIDTH 42 0
BBX 32 59 5 -1
BITMAP
00000700
00000600
00000C00
00001800
00001800
00003000
00006000
0000C000
0000C000
00018000
00030000
00020000
00000000
00000000
00000000
00000000
00000000
00000000
003FFC00
00F81F00
038001C0
070000E0
0C000030
18000018
18000018
3000000C
20000004
60000006
60000006
40000002
C0000003
C0000003
C0000003
C0000003
C0000003
80000001
80000001
80000001
80000001
80000001
80000001
80000003
C0000003
C0000003
C0000003
C0000003
40000002
40000002
60000006
60000006
3000000C
3000000C
18000018
0C000030
06000060
030000C0
01C00380
007FFE00
000FF000
ENDCHAR
STARTCHAR 00F4
ENCODING 244
SWIDTH 540 0
DWIDTH 42 0
BBX 32 59 5 -1
BITMAP
00018000
0003C000
00066000
000C3000
00181800
00300C00
00600600
00C00300
01800180
030000C0
06000060
00000000
00000000
00000000
00000000
00000000
00000000
00000000
003FFC00
00F81F00
038001C0
070000E0
0C000030
18000018
18000018
3000000C
20000004
60000006
60000006
40000002
C0000003
C0000003
C0000003
C0000003
C0000003
80000001
80000001
80000001
80000001
80000001
80000001
80000003
C0000003
C0000003
C0000003
C0000003
40000002
40000002
60000006
60000006
3000000C
3000000C
18000018
0C000030
06000060
030000C0
01C00380
007FFE00
000FF000
ENDCHAR
STARTCHAR 00F5
ENCODING 245
SWIDTH 540 0
DWIDTH 42 0
BBX 32 56 5 -1
BITMAP
00700000
01FC0000
07070020
0401C060
000071C0
00001F80
00000000
00000000
00000000
00000000
00000000
00000000
00000000
00000000
00000000
003FFC00
00F81F00
038001C0
070000E0
0C000030
18000018
18000018
3000000C
20000004
60000006
60000006
40000002
C0000003
C0000003
C0000003
C0000003
C0000003
80000001
80000001
80000001
80000001
80000001
80000001
80000003
C0000003
C0000003
C0000003
C0000003
40000002
40000002
60000006
60000006
3000000C
3000000C
18000018
0C000030
06000060
030000C0
01C00380
007FFE00
000FF000
ENDCHAR
STARTCHAR 00F6
ENCODING 246
SWIDTH 540 0
DWIDTH 42 0
BBX 32 55 5 -1
BITMAP
00C00300
01E00780
01E00780
00C00380
00000000
00000000
00000000
00000000
00000000
00000000
00000000
00000000
00000000
00000000
003FFC00
00F81F00
038001C0
070000E0
0C000030
18000018
18000018
3000000C
20000004
60000006
60000006
40000002
C0000003
C0000003
C0000003
C0000003
C0000003
80000001
80000001
80000001
80000001
80000001
80000001
80000003
C0000003
C0000003
C0000003
C0000003
40000002
40000002
60000006
60000006
3000000C
3000000C
18000018
0C000030
06000060
030000C0
01C00380
007FFE00
000FF000
ENDCHAR
STARTCHAR 00F7
ENCODING 247
SWIDTH 591 0
DWIDTH 46 0
BBX 37 35 5 6
BITMAP
0000F80000
0000F80000
0000F80000
0000F80000
0000600000
0000000000
0000000000
0000000000
0000000000
0000000000
0000000000
0000000000
0000000000
0000000000
0000000000
0000000000
FFFFFFFFF8
FFFFFFFFF8
0000000000
0000000000
0000000000
0000000000
0000000000
0000000000
0000000000
0000000000
0000000000
0000000000
0000000000
0000000000
0000F00000
0000F80000
0000F80000
0000F80000
0000700000
ENDCHAR
STARTCHAR 00F8
ENCODING 248
SWIDTH 540 0
DWIDTH 42 0
BBX 35 44 4 -2
BITMAP
0000000020
0000000060
000FFE00C0
007C078180
00E000E300
0380007200
0700001E00
0600000C00
0C00001C00
1800003600
1800002200
1000006300
300000C100
3000018100
2000030180
6000020180
6000060180
60000C0080
6000180080
6000300080
60006000C0
60006000C0
6000C000C0
60018000C0
6003000080
6006000080
6004000080
600C000080
6018000180
2030000180
2060000180
3040000100
30C0000300
1180000300
1B00000200
0E00000600
0C00000C00
0E00001800
1B00003800
31C0007000
60F001C000
C03FFF8000
8007FC0000
8000000000
ENDCHAR
STARTCHAR 00F9
ENCODING 249
SWIDTH 552 0
DWIDTH 43 0
BBX 28 59 7 -1
BITMAP
01800000
01C00000
00C00000
00600000
00300000
00300000
00180000
000C0000
00060000
00060000
00030000
00018000
00000000
00000000
00000000
00000000
00000000
00000000
00000000
C0000030
C0000030
C0000030
C0000030
C0000030
C0000030
C0000030
C0000030
C0000030
C0000030
C0000030
C0000030
C0000030
C0000030
C0000030
C0000030
C0000030
C0000030
C0000030
C0000030
C0000030
C0000030
C0000030
C0000030
C0000030
C0000030
C0000030
C0000030
40000030
40000030
60000030
60000030
20000070
30000070
180000B0
180001B0
0E000330
07800E30
01FFF830
003FC000
ENDCHAR
STARTCHAR 00FA
ENCODING 250
SWIDTH 552 0
DWIDTH 43 0
BBX 28 59 7 -1
BITMAP
00000C00
00001800
00003000
00003000
00006000
0000C000
00018000
00018000
00030000
00060000
00040000
000C0000
00000000
00000000
00000000
00000000
00000000
00000000
00000000
C0000030
C0000030
C0000030
C0000030
C0000030
C0000030
C0000030
C0000030
C0000030
C0000030
C0000030
C0000030
C0000030
C0000030
C0000030
C0000030
C0000030
C0000030
C0000030
C0000030
C0000030
C0000030
C0000030
C0000030
C0000030
C0000030
C0000030
C0000030
40000030
40000030
60000030
60000030
20000070
30000070
180000B0
180001B0
0E000330
07800E30
01FFF830
003FC000
ENDCHAR
STARTCHAR 00FB
ENCODING 251
SWIDTH 552 0
DWIDTH 43 0
BBX 28 59 7 -1
BITMAP
00070000
000F8000
00198000
0030C000
00606000
00C03000
01801800
03000C00
06000600
0C000300
18000180
00000000
00000000
00000000
00000000
00000000
00000000
00000000
00000000
C0000030
C0000030
C0000030
C0000030
C0000030
C0000030
C0000030
C0000030
C0000030
C0000030
C0000030
C0000030
C0000030
C0000030
C0000030
C0000030
C0000030
C0000030
C0000030
C0000030
C0000030
C0000030
C0000030
C0000030
C0000030
C0000030
C0000030
C0000030
40000030
40000030
60000030
60000030
20000070
30000070
180000B0
180001B0
0E000330
07800E30
01FFF830
003FC000
ENDCHAR
STARTCHAR 00FC
ENCODING 252
SWIDTH 552 0
DWIDTH 43 0
BBX 28 55 7 -1
BITMAP
03000C00
07800E00
07800E00
03800E00
00000000
00000000
00000000
00000000
00000000
00000000
00000000
00000000
00000000
00000000
00000000
C0000030
C0000030
C0000030
C0000030
C0000030
C0000030
C0000030
C0000030
C0000030
C0000030
C0000030
C0000030
C0000030
C0000030
C0000030
C0000030
C0000030
C0000030
C0000030
C0000030
C0000030
C0000030
C0000030
C0000030
C0000030
C0000030
C0000030
C0000030
40000030
40000030
60000030
60000030
20000070
30000070
180000B0
180001B0
0E000330
07800E30
01FFF830
003FC000
ENDCHAR
STARTCHAR 00FD
ENCODING 253
SWIDTH 450 0
DWIDTH 35 0
BBX 31 74 2 -16
BITMAP
00000600
00000600
00000C00
00001800
00003000
00003000
00006000
0000C000
00018000
00018000
00030000
00060000
00000000
00000000
00000000
00000000
00000000
00000000
00000000
C0000006
40000006
60000004
6000000C
20000008
30000018
30000018
18000010
18000030
08000030
0C000020
0C000060
04000040
060000C0
060000C0
03000080
03000180
01000180
01800100
01800300
00800200
00C00600
00C00600
00400400
00600C00
00200C00
00300800
00301800
00101800
00181000
00183000
00082000
000C6000
00046000
00064000
0006C000
0002C000
00038000
00038000
00010000
00030000
00030000
00020000
00060000
00060000
00040000
000C0000
00080000
00180000
00180000
00100000
00300000
00300000
3FE00000
3F800000
ENDCHAR
STARTCHAR 00FE
ENCODING 254
SWIDTH 552 0
DWIDTH 43 0
BBX 31 74 8 -16
BITMAP
C0000000
C0000000
C0000000
C0000000
C0000000
C0000000
C0000000
C0000000
C0000000
C0000000
C0000000
C0000000
C0000000
C0000000
C0000000
C0000000
C0000000
C0000000
C03FF000
C1F03E00
C3800700
CE0001C0
D80000E0
D0000060
E0000030
E0000018
C0000018
C000000C
C000000C
C0000004
C0000004
C0000006
C0000006
C0000006
C0000006
C0000006
C0000006
C0000006
C0000006
C0000006
C0000006
C0000006
C0000006
C0000006
C0000006
C0000006
C0000004
C000000C
C000000C
C0000008
E0000018
E0000010
F0000030
D8000060
CC0000C0
C6000180
C3800700
C0FFFC00
C01FE000
C0000000
C0000000
C0000000
C0000000
C0000000
C0000000
C0000000
C0000000
C0000000
C0000000
C0000000
C0000000
C0000000
C0000000
C0000000
ENDCHAR
STARTCHAR 00FF
ENCODING 255
SWIDTH 450 0
DWIDTH 35 0
BBX 31 70 2 -16
BITMAP
00C00300
01C00780
01E00780
01C00700
00000000
00000000
00000000
00000000
00000000
00000000
00000000
00000000
00000000
00000000
00000000
C0000006
40000006
60000004
6000000C
20000008
30000018
30000018
18000010
18000030
08000030
0C000020
0C000060
04000040
060000C0
060000C0
03000080
03000180
01000180
01800100
01800300
00800200
00C00600
00C00600
00400400
00600C00
00200C00
00300800
00301800
00101800
00181000
00183000
00082000
000C6000
00046000
00064000
0006C000
0002C000
00038000
00038000
00010000
00030000
00030000
00020000
00060000
00060000
00040000
000C0000
00080000
00180000
00180000
00100000
00300000
00300000
3FE00000
3F800000
ENDCHAR
STARTCHAR 0100
ENCODING 256
SWIDTH 591 0
DWIDTH 46 0
BBX 41 67 3 0
BITMAP
003FFFFC0000
003FFFFC0000
000000000000
000000000000
000000000000
000000000000
000000000000
000000000000
000000000000
000000000000
000000000000
000000000000
000000000000
00001C000000
00001C000000
000036000000
000026000000
000066000000
000063000000
000043000000
0000C1000000
0000C1800000
000081800000
000180800000
000180C00000
000100C00000
000300400000
000300600000
000600600000
000600300000
000400300000
000C00100000
000C00180000
000800180000
001800080000
0018000C0000
0010000C0000
003000040000
003000060000
006000060000
006000030000
006000030000
00C000030000
00C000018000
008000018000
018000008000
01800000C000
01FFFFFFC000
03FFFFFFC000
030000006000
060000006000
060000003000
060000003000
0C0000003000
0C0000001800
080000001800
180000000800
180000000C00
100000000C00
300000000400
300000000600
600000000600
600000000300
600000000300
C00000000300
C00000000180
800000000180
ENDCHAR
STARTCHAR 0101
ENCODING 257
SWIDTH 514 0
DWIDTH 40 0
BBX 34 54 5 -1
BITMAP
0FFFFF0000
0FFFFF0000
0000000000
0000000000
0000000000
0000000000
0000000000
0000000000
0000000000
0000000000
0000000000
0000000000
0000000000
007FF00000
03E03C0000
0700060000
0C00030000
1800018000
300000C000
300000C000
6000006000
2000006000
0000006000
0000006000
0000002000
0000002000
0000002000
0000002000
0000002000
0000002000
0000002000
0000002000
01FFFFE000
0780002000
1C00002000
3800002000
6000002000
6000002000
C000002000
C000002000
C000002000
C000002000
C000006000
C000006000
C000006000
C000006000
C00000E000
400000A000
6000012000
3000032000
38000E2000
0E00382000
07FFF03FC0
00FF800000
ENDCHAR
STARTCHAR 0102
ENCODING 258
SWIDTH 591 0
DWIDTH 46 0
BBX 41 71 3 0
BITMAP
000000040000
003000040000
0018000C0000
000800080000
000C00180000
000400300000
000600600000
000380C00000
0001FF800000
00007E000000
000000000000
000000000000
000000000000
000000000000
000000000000
000000000000
000000000000
00001C000000
00001C000000
000036000000
000026000000
000066000000
000063000000
000043000000
0000C1000000
0000C1800000
000081800000
000180800000
000180C00000
000100C00000
000300400000
000300600000
000600600000
000600300000
000400300000
000C00100000
000C00180000
000800180000
001800080000
0018000C0000
0010000C0000
003000040000
003000060000
006000060000
006000030000
006000030000
00C000030000
00C000018000
008000018000
018000008000
01800000C000
01FFFFFFC000
03FFFFFFC000
030000006000
060000006000
060000003000
060000003000
0C0000003000
0C0000001800
080000001800
180000000800
180000000C00
100000000C00
300000000400
300000000600
600000000600
600000000300
600000000300
C00000000300
C00000000180
800000000180
ENDCHAR
STARTCHAR 0103
ENCODING 259
SWIDTH 514 0
DWIDTH 40 0
BBX 34 58 5 -1
BITMAP
0400010000
0400010000
0600030000
0200020000
0300060000
01800C0000
0080180000
00E0300000
003FE00000
000F800000
0000000000
0000000000
0000000000
0000000000
0000000000
0000000000
0000000000
007FF00000
03E03C0000
0700060000
0C00030000
1800018000
300000C000
300000C000
6000006000
2000006000
0000006000
0000006000
0000002000
0000002000
0000002000
0000002000
0000002000
0000002000
0000002000
0000002000
01FFFFE000
0780002000
1C00002000
3800002000
6000002000
6000002000
C000002000
C000002000
C000002000
C000002000
C000006000
C000006000
C000006000
C000006000
C00000E000
400000A000
6000012000
3000032000
38000E2000
0E00382000
07FFF03FC0
00FF800000
ENDCHAR
STARTCHAR 0104
ENCODING 260
SWIDTH 591 0
DWIDTH 46 0
BBX 43 70 3 -16
BITMAP
00001C000000
00001C000000
000036000000
000026000000
000066000000
000063000000
000043000000
0000C1000000
0000C1800000
000081800000
000180800000
000180C00000
000100C00000
000300400000
000300600000
000600600000
000600300000
000400300000
000C00100000
000C00180000
000800180000
001800080000
0018000C0000
0010000C0000
003000040000
003000060000
006000060000
006000030000
006000030000
00C000010000
00C000018000
008000018000
018000008000
01800000C000
01FFFFFFC000
03FFFFFFC000
030000006000
060000006000
060000003000
060000003000
0C0000001000
0C0000001800
080000001800
180000000800
180000000C00
100000000C00
300000000400
300000000600
600000000600
600000000300
600000000300
C00000000100
C00000000180
800000000180
000000000100
000000000600
000000000C00
000000003000
000000006000
000000004000
00000000C000
000000008000
000000018000
000000018000
000000018000
000000018000
000000018000
00000000C060
000000007FC0
000000000E00
ENDCHAR
STARTCHAR 0105
ENCODING 261
SWIDTH 514 0
DWIDTH 40 0
BBX 35 56 5 -16
BITMAP
007FF00000
03E07C0000
0700060000
0C00030000
1800018000
300000C000
300000C000
6000006000
2000006000
0000006000
0000006000
0000002000
0000002000
0000002000
0000002000
0000002000
0000002000
0000002000
0000002000
01FFFFE000
0780002000
1C00002000
3800002000
6000002000
6000002000
C000002000
C000002000
C000002000
C000002000
C000006000
C000006000
C000006000
C000006000
C00000E000
400000A000
6000012000
3000032000
38000E2000
0E00382000
07FFF03FC0
00FF800180
0000000300
0000000C00
0000001800
0000003000
0000006000
000000C000
0000008000
0000018000
0000018000
0000018000
0000018000
0000018000
000000C0E0
0000007FC0
0000001E00
ENDCHAR
STARTCHAR 0106
ENCODING 262
SWIDTH 604 0
DWIDTH 47 0
BBX 38 73 5 -1
BITMAP
0000003000
0000006000
0000006000
000000C000
0000018000
0000030000
0000030000
0000060000
00000C0000
0000180000
0000180000
0000300000
0000000000
0000000000
0000000000
0000000000
0000000000
0001FFC000
000FE1F800
003C001C00
0070000700
00C0000380
01800000C0
0300000060
0600000060
0C00000030
0C00000018
1800000018
1800000000
1000000000
3000000000
3000000000
2000000000
6000000000
6000000000
6000000000
6000000000
6000000000
6000000000
4000000000
4000000000
C000000000
C000000000
C000000000
C000000000
C000000000
C000000000
C000000000
4000000000
4000000000
4000000000
6000000000
6000000000
6000000000
6000000000
6000000000
2000000000
3000000000
3000000000
3000000000
1000000000
180000000C
0800000018
0C00000018
0600000030
0600000060
0300000060
01800000C0
00E0000380
0070000700
001E003C00
0007FFF000
0000FF8000
ENDCHAR
STARTCHAR 0107
ENCODING 263
SWIDTH 475 0
DWIDTH 37 0
BBX 30 59 5 -1
BITMAP
00000700
00000600
00000C00
00001800
00001800
00003000
00006000
0000C000
0000C000
00018000
00030000
00020000
00000000
00000000
00000000
00000000
00000000
00000000
003FF800
00F81E00
03800380
070000C0
0C000060
18000030
18000030
30000018
20000000
60000000
60000000
40000000
C0000000
C0000000
C0000000
C0000000
C0000000
80000000
80000000
80000000
80000000
80000000
80000000
80000000
C0000000
C0000000
C0000000
C0000000
40000000
40000000
60000000
60000000
30000000
3000000C
18000018
0C000030
06000060
030000C0
01C00380
007FFE00
000FF000
ENDCHAR
STARTCHAR 0108
ENCODING 264
SWIDTH 604 0
DWIDTH 47 0
BBX 38 73 5 -1
BITMAP
00001C0000
00003E0000
0000730000
0000E18000
0000C0C000
0001806000
0003007000
0006003800
000C001800
0018000C00
0030000600
0000000000
0000000000
0000000000
0000000000
0000000000
0000000000
0001FFC000
000FE1F800
003C001C00
0070000700
00C0000380
01800000C0
0300000060
0600000060
0C00000030
0C00000018
1800000018
1800000000
1000000000
3000000000
3000000000
2000000000
6000000000
6000000000
6000000000
6000000000
6000000000
6000000000
4000000000
4000000000
C000000000
C000000000
C000000000
C000000000
C000000000
C000000000
C000000000
4000000000
4000000000
4000000000
6000000000
6000000000
6000000000
6000000000
6000000000
2000000000
3000000000
3000000000
3000000000
1000000000
180000000C
0800000018
0C00000018
0600000030
0600000060
0300000060
01800000C0
00E0000380
0070000700
001E003C00
0007FFF000
0000FF8000
ENDCHAR
STARTCHAR 0109
ENCODING 265
SWIDTH 475 0
DWIDTH 37 0
BBX 30 59 5 -1
BITMAP
00018000
0003C000
00066000
000C3000
00181800
00300C00
00600600
00C00300
01800180
030000C0
06000060
00000000
00000000
00000000
00000000
00000000
00000000
00000000
003FF800
00F81E00
03800380
070000C0
0C000060
18000030
18000030
30000018
20000000
60000000
60000000
40000000
C0000000
C0000000
C0000000
C0000000
C0000000
80000000
80000000
80000000
80000000
80000000
80000000
80000000
C0000000
C0000000
C0000000
C0000000
40000000
40000000
60000000
60000000
30000000
3000000C
18000018
0C000030
06000060
030000C0
01C00380
007FFE00
000FF000
ENDCHAR
STARTCHAR 010A
ENCODING 266
SWIDTH 604 0
DWIDTH 47 0
BBX 38 69 5 -1
BITMAP
00001C0000
00001C0000
00001C0000
00001C0000
0000000000
0000000000
0000000000
0000000000
0000000000
0000000000
0000000000
0000000000
0000000000
0001FFC000
000FE1F800
003C001C00
0070000700
00C0000380
01800000C0
0300000060
0600000060
0C00000030
0C00000018
1800000018
1800000000
1000000000
3000000000
3000000000
2000000000
6000000000
6000000000
6000000000
6000000000
6000000000
6000000000
4000000000
4000000000
C000000000
C000000000
C000000000
C000000000
C000000000
C000000000
C000000000
4000000000
4000000000
4000000000
6000000000
6000000000
6000000000
6000000000
6000000000
2000000000
3000000000
3000000000
3000000000
1000000000
180000000C
0800000018
0C00000018
0600000030
0600000060
0300000060
01800000C0
00E0000380
0070000700
001E003C00
0007FFF000
0000FF8000
ENDCHAR
STARTCHAR 010B
ENCODING 267
SWIDTH 475 0
DWIDTH 37 0
BBX 30 55 5 -1
BITMAP
00018000
0003C000
0003C000
0001C000
00000000
00000000
00000000
00000000
00000000
00000000
00000000
00000000
00000000
00000000
003FF800
00F81E00
03800380
070000C0
0C000060
18000030
18000030
30000018
20000000
60000000
60000000
40000000
C0000000
C0000000
C0000000
C0000000
C0000000
80000000
80000000
80000000
80000000
80000000
80000000
80000000
C0000000
C0000000
C0000000
C0000000
40000000
40000000
60000000
60000000
30000000
3000000C
18000018
0C000030
06000060
030000C0
01C00380
007FFE00
000FF000
ENDCHAR
STARTCHAR 010C
ENCODING 268
SWIDTH 604 0
DWIDTH 47 0
BBX 38 73 5 -1
BITMAP
0020000200
0030000600
0018000C00
000C001800
0006003000
0003006000
000180C000
0000C18000
0000630000
0000360000
00001C0000
0000000000
0000000000
0000000000
0000000000
0000000000
0000000000
0001FFC000
000FE1F800
003C001C00
0070000700
00C0000380
01800000C0
0300000060
0600000060
0C00000030
0C00000018
1800000018
1800000000
1000000000
3000000000
3000000000
2000000000
6000000000
6000000000
6000000000
6000000000
6000000000
6000000000
4000000000
4000000000
C000000000
C000000000
C000000000
C000000000
C000000000
C000000000
C000000000
4000000000
4000000000
4000000000
6000000000
6000000000
6000000000
6000000000
6000000000
2000000000
3000000000
3000000000
3000000000
1000000000
180000000C
0800000018
0C00000018
0600000030
0600000060
0300000060
01800000C0
00E0000380
0070000700
001E003C00
0007FFF000
0000FF8000
ENDCHAR
STARTCHAR 010D
ENCODING 269
SWIDTH 475 0
DWIDTH 37 0
BBX 30 59 5 -1
BITMAP
06000060
030000C0
01800180
00C00300
00600600
00300C00
00181800
000C3000
00067000
0003E000
0001C000
00000000
00000000
00000000
00000000
00000000
00000000
00000000
003FF800
00F81E00
03800380
070000C0
0C000060
18000030
18000030
30000018
20000000
60000000
60000000
40000000
C0000000
C0000000
C0000000
C0000000
C0000000
80000000
80000000
80000000
80000000
80000000
80000000
80000000
C0000000
C0000000
C0000000
C0000000
40000000
40000000
60000000
60000000
30000000
3000000C
18000018
0C000030
06000060
030000C0
01C00380
007FFE00
000FF000
ENDCHAR
STARTCHAR 010E
ENCODING 270
SWIDTH 655 0
DWIDTH 51 0
BBX 38 72 8 0
BITMAP
0400004000
060000C000
0300018000
0180030000
00C0060000
00600C0000
0030180000
0018300000
000C600000
0006C00000
0003800000
0000000000
0000000000
0000000000
0000000000
0000000000
0000000000
0000000000
FFFFFE0000
C0001FC000
C00000F000
C000003800
C000000E00
C000000700
C000000300
C000000180
C0000000C0
C0000000C0
C000000060
C000000060
C000000030
C000000030
C000000010
C000000018
C000000018
C000000018
C000000018
C000000008
C000000008
C000000008
C00000000C
C00000000C
C00000000C
C00000000C
C00000000C
C00000000C
C00000000C
C00000000C
C00000000C
C00000000C
C000000008
C000000008
C000000008
C000000018
C000000018
C000000018
C000000010
C000000030
C000000030
C000000030
C000000060
C000000060
C0000000C0
C0000000C0
C000000180
C000000300
C000000600
C000001C00
C000003800
C00001E000
FFFFFF8000
FFFFFC0000
ENDCHAR
STARTCHAR 010F
ENCODING 271
SWIDTH 552 0
DWIDTH 43 0
BBX 41 59 5 -1
BITMAP
000000060180
000000060180
000000060180
000000060100
000000060300
000000060300
000000060300
000000060300
000000060300
000000060300
000000060200
000000060200
000000060200
000000060200
000000060000
000000060000
000000060000
000000060000
001FF8060000
00F81F060000
01C003860000
070000E60000
0E0000260000
1C0000160000
1800001E0000
3000000E0000
300000060000
600000060000
600000060000
400000060000
C00000060000
C00000060000
C00000060000
C00000060000
C00000060000
800000060000
800000060000
800000060000
800000060000
800000060000
800000060000
800000060000
C00000060000
C00000060000
C00000060000
C00000060000
400000060000
400000060000
600000060000
600000060000
3000000E0000
3000000E0000
1800001E0000
0C0000360000
060000660000
030000C60000
01C003860000
007FFE060000
000FF0000000
ENDCHAR
STARTCHAR 0110
ENCODING 272
SWIDTH 655 0
DWIDTH 51 0
BBX 44 54 2 0
BITMAP
01FFFFF80000
0100007F0000
01000003C000
01000000F000
010000003800
010000001C00
010000000E00
010000000600
010000000300
010000000180
010000000180
010000000080
0100000000C0
0100000000C0
010000000040
010000000060
010000000060
010000000060
010000000020
010000000020
010000000030
010000000030
010000000030
010000000030
010000000030
FFFFFC000030
010000000030
010000000030
010000000030
010000000030
010000000030
010000000030
010000000030
010000000030
010000000020
010000000020
010000000060
010000000060
010000000060
010000000040
0100000000C0
0100000000C0
010000000080
010000000180
010000000300
010000000300
010000000600
010000000C00
010000001C00
010000003000
01000000E000
01000007C000
01FFFFFE0000
01FFFFF00000
ENDCHAR
STARTCHAR 0111
ENCODING 273
SWIDTH 565 0
DWIDTH 44 0
BBX 36 59 5 -1
BITMAP
0000000600
0000000600
0000000600
0000000600
0000000600
0000000600
0000000600
0000000600
0000FFFFF0
0000000600
0000000600
0000000600
0000000600
0000000600
0000000600
0000000600
0000000600
0000000600
001FF80600
00F81F0600
01C0038600
070000E600
0E00002600
1C00001600
1800001E00
3000000E00
3000000600
6000000600
6000000600
4000000600
C000000600
C000000600
C000000600
C000000600
C000000600
8000000600
8000000600
8000000600
8000000600
8000000600
8000000600
8000000600
C000000600
C000000600
C000000600
C000000600
4000000600
4000000600
6000000600
6000000600
3000000E00
3000000E00
1800001E00
0C00003600
0600006600
030000C600
01C0038600
007FFE0600
000FF00000
ENDCHAR
STARTCHAR 0112
ENCODING 274
SWIDTH 552 0
DWIDTH 43 0
BBX 30 67 8 0
BITMAP
07FFFF80
07FFFF80
00000000
00000000
00000000
00000000
00000000
00000000
00000000
00000000
00000000
00000000
00000000
FFFFFFFC
C0000000
C0000000
C0000000
C0000000
C0000000
C0000000
C0000000
C0000000
C0000000
C0000000
C0000000
C0000000
C0000000
C0000000
C0000000
C0000000
C0000000
C0000000
C0000000
C0000000
C0000000
C0000000
C0000000
C0000000
C0000000
FFFFFFF8
C0000000
C0000000
C0000000
C0000000
C0000000
C0000000
C0000000
C0000000
C0000000
C0000000
C0000000
C0000000
C0000000
C0000000
C0000000
C0000000
C0000000
C0000000
C0000000
C0000000
C0000000
C0000000
C0000000
C0000000
C0000000
FFFFFFFC
FFFFFFFC
ENDCHAR
STARTCHAR 0113
ENCODING 275
SWIDTH 527 0
DWIDTH 41 0
BBX 32 54 5 -1
BITMAP
03FFFFC0
03FFFFC0
00000000
00000000
00000000
00000000
00000000
00000000
00000000
00000000
00000000
00000000
00000000
003FF800
00F81E00
03800380
070000C0
0C000060
18000030
18000010
30000018
2000000C
6000000C
60000004
40000006
C0000006
C0000002
C0000002
C0000003
C0000003
80000003
80000003
FFFFFFFF
80000000
80000000
80000000
80000000
C0000000
C0000000
C0000000
C0000000
40000000
40000000
60000006
60000006
3000000C
3000000C
18000018
0C000030
06000060
030000C0
01C00380
007FFE00
000FF000
ENDCHAR
STARTCHAR 0114
ENCODING 276
SWIDTH 552 0
DWIDTH 43 0
BBX 30 71 8 0
BITMAP
00000080
06000080
03000180
01000100
01800300
00800600
00C00C00
00701800
003FF000
000FC000
00000000
00000000
00000000
00000000
00000000
00000000
00000000
FFFFFFFC
C0000000
C0000000
C0000000
C0000000
C0000000
C0000000
C0000000
C0000000
C0000000
C0000000
C0000000
C0000000
C0000000
C0000000
C0000000
C0000000
C0000000
C0000000
C0000000
C0000000
C0000000
C0000000
C0000000
C0000000
C0000000
FFFFFFF8
C0000000
C0000000
C0000000
C0000000
C0000000
C0000000
C0000000
C0000000
C0000000
C0000000
C0000000
C0000000
C0000000
C0000000
C0000000
C0000000
C0000000
C0000000
C0000000
C0000000
C0000000
C0000000
C0000000
C0000000
C0000000
FFFFFFFC
FFFFFFFC
ENDCHAR
STARTCHAR 0115
ENCODING 277
SWIDTH 527 0
DWIDTH 41 0
BBX 32 58 5 -1
BITMAP
02000040
030000C0
01000080
01800180
00800300
00C00300
00600600
00300C00
001FF800
0007C000
00000000
00000000
00000000
00000000
00000000
00000000
00000000
003FF800
00F81E00
03800380
070000C0
0C000060
18000030
18000010
30000018
2000000C
6000000C
60000004
40000006
C0000006
C0000002
C0000002
C0000003
C0000003
80000003
80000003
FFFFFFFF
80000000
80000000
80000000
80000000
C0000000
C0000000
C0000000
C0000000
40000000
40000000
60000006
60000006
3000000C
3000000C
18000018
0C000030
06000060
030000C0
01C00380
007FFE00
000FF000
ENDCHAR
STARTCHAR 0116
ENCODING 278
SWIDTH 552 0
DWIDTH 43 0
BBX 30 68 8 0
BITMAP
00030000
00038000
00038000
00038000
00000000
00000000
00000000
00000000
00000000
00000000
00000000
00000000
00000000
00000000
FFFFFFFC
C0000000
C0000000
C0000000
C0000000
C0000000
C0000000
C0000000
C0000000
C0000000
C0000000
C0000000
C0000000
C0000000
C0000000
C0000000
C0000000
C0000000
C0000000
C0000000
C0000000
C0000000
C0000000
C0000000
C0000000
C0000000
FFFFFFF8
C0000000
C0000000
C0000000
C0000000
C0000000
C0000000
C0000000
C0000000
C0000000
C0000000
C0000000
C0000000
C0000000
C0000000
C0000000
C0000000
C0000000
C0000000
C0000000
C0000000
C0000000
C0000000
C0000000
C0000000
C0000000
FFFFFFFC
FFFFFFFC
ENDCHAR
STARTCHAR 0117
ENCODING 279
SWIDTH 527 0
DWIDTH 41 0
BBX 32 55 5 -1
BITMAP
00018000
0003C000
0003C000
00038000
00000000
00000000
00000000
00000000
00000000
00000000
00000000
00000000
00000000
00000000
003FF800
00F81E00
03800380
070000C0
0C000060
18000030
18000010
30000018
2000000C
6000000C
60000004
40000006
C0000006
C0000002
C0000002
C0000003
C0000003
80000003
80000003
FFFFFFFF
80000000
80000000
80000000
80000000
C0000000
C0000000
C0000000
C0000000
40000000
40000000
60000006
60000006
3000000C
3000000C
18000018
0C000030
06000060
030000C0
01C00380
007FFE00
000FF000
ENDCHAR
STARTCHAR 0118
ENCODING 280
SWIDTH 552 0
DWIDTH 43 0
BBX 31 70 8 -16
BITMAP
FFFFFFFC
C0000000
C0000000
C0000000
C0000000
C0000000
C0000000
C0000000
C0000000
C0000000
C0000000
C0000000
C0000000
C0000000
C0000000
C0000000
C0000000
C0000000
C0000000
C0000000
C0000000
C0000000
C0000000
C0000000
C0000000
C0000000
FFFFFFF8
C0000000
C0000000
C0000000
C0000000
C0000000
C0000000
C0000000
C0000000
C0000000
C0000000
C0000000
C0000000
C0000000
C0000000
C0000000
C0000000
C0000000
C0000000
C0000000
C0000000
C0000000
C0000000
C0000000
C0000000
C0000000
FFFFFFFC
FFFFFFFC
00000018
00000030
000000C0
00000180
00000300
00000600
00000C00
00000800
00001800
00001800
00001800
00001800
00001800
00000C06
000007FC
000000E0
ENDCHAR
STARTCHAR 0119
ENCODING 281
SWIDTH 527 0
DWIDTH 41 0
BBX 32 56 5 -16
BITMAP
003FF800
00F81E00
03800380
070000C0
0C000060
18000030
18000010
30000018
2000000C
6000000C
60000004
40000006
C0000006
C0000002
C0000002
C0000003
C0000003
80000003
80000003
FFFFFFFF
80000000
80000000
80000000
80000000
C0000000
C0000000
C0000000
C0000000
40000000
40000000
60000006
60000006
3000000C
3000000C
18000018
0C000030
06000060
030000C0
01C00380
007FFE00
000FFC00
00001000
00002000
0000C000
00018000
00010000
00030000
00020000
00060000
00060000
00060000
00060000
00020000
00030180
0001FF00
00003C00
ENDCHAR
STARTCHAR 011A
ENCODING 282
SWIDTH 552 0
DWIDTH 43 0
BBX 30 72 8 0
BITMAP
04000040
060000C0
03000180
01800300
00C00600
00600C00
00301800
00183000
000C6000
0006C000
00038000
00000000
00000000
00000000
00000000
00000000
00000000
00000000
FFFFFFFC
C0000000
C0000000
C0000000
C0000000
C0000000
C0000000
C0000000
C0000000
C0000000
C0000000
C0000000
C0000000
C0000000
C0000000
C0000000
C0000000
C0000000
C0000000
C0000000
C0000000
C0000000
C0000000
C0000000
C0000000
C0000000
FFFFFFF8
C0000000
C0000000
C0000000
C0000000
C0000000
C0000000
C0000000
C0000000
C0000000
C0000000
C0000000
C0000000
C0000000
C0000000
C0000000
C0000000
C0000000
C0000000
C0000000
C0000000
C0000000
C0000000
C0000000
C0000000
C0000000
FFFFFFFC
FFFFFFFC
ENDCHAR
STARTCHAR 011B
ENCODING 283
SWIDTH 527 0
DWIDTH 41 0
BBX 32 59 5 -1
BITMAP
06000060
030000C0
01800180
00C00300
00600600
00300C00
00181800
000C3000
000E6000
0007C000
00038000
00000000
00000000
00000000
00000000
00000000
00000000
00000000
003FF800
00F81E00
03800380
070000C0
0C000060
18000030
18000010
30000018
2000000C
6000000C
60000004
40000006
C0000006
C0000002
C0000002
C0000003
C0000003
80000003
80000003
FFFFFFFF
80000000
80000000
80000000
80000000
C0000000
C0000000
C0000000
C0000000
40000000
40000000
60000006
60000006
3000000C
3000000C
18000018
0C000030
06000060
030000C0
01C00380
007FFE00
000FF000
ENDCHAR
STARTCHAR 011C
ENCODING 284
SWIDTH 655 0
DWIDTH 51 0
BBX 41 73 5 -1
BITMAP
00000E000000
00001F000000
000033800000
000061C00000
0000E0E00000
0001C0600000
000380300000
000700180000
0006000C0000
000C00060000
001800030000
000000000000
000000000000
000000000000
000000000000
000000000000
000000000000
0001FFE00000
000FF0FC0000
001E000F0000
007000038000
00E00000E000
018000007000
030000003800
060000001800
060000000C00
0C0000000600
080000000600
180000000000
180000000000
300000000000
300000000000
300000000000
200000000000
600000000000
600000000000
600000000000
600000000000
600000000000
400000000000
400000000000
C00000000000
C00000000000
C00000000000
C00000000000
C00000000000
C000007FFF80
C000007FFF80
400000000180
400000000180
400000000180
600000000180
600000000180
600000000180
600000000180
600000000180
200000000180
300000000180
300000000180
300000000180
180000000380
180000000380
0C0000000380
0C0000000780
060000000D80
070000000980
038000001980
01C000003180
00E00000E180
007800038180
001E000F0180
0007FFFC0180
00007FE00000
ENDCHAR
STARTCHAR 011D
ENCODING 285
SWIDTH 514 0
DWIDTH 40 0
BBX 35 74 4 -16
BITMAP
0001C00000
0003E00000
0007300000
000E180000
000C0C0000
0018060000
0030030000
0060018000
00C000C000
0180006000
0300002000
0000000000
0000000000
0000000000
0000000000
0000000000
0000000000
0000000000
001FFC0000
00780FFFE0
01C0018000
038000E000
0700006000
0600003000
0C00001800
0C00001800
0800000800
1800000C00
1800000C00
1800000C00
1800000C00
1800000C00
1800000C00
1800000C00
1800000800
0800000800
0C00001800
0C00001000
0600003000
0300006000
018000C000
00E0038000
003F7E0000
00FFF80000
0180000000
0600000000
0C00000000
0C00000000
0800000000
1800000000
0800000000
0800000000
0C00000000
0780000000
01FFFFF000
03C001FE00
0E00000700
1800000180
30000000C0
60000000C0
4000000060
C000000060
C000000060
C000000060
C000000060
C000000060
C000000040
C0000000C0
60000001C0
7000000180
3800000700
1E00001E00
07C000F800
00FFFFC000
ENDCHAR
STARTCHAR 011E
ENCODING 286
SWIDTH 655 0
DWIDTH 51 0
BBX 41 72 5 -1
BITMAP
000800020000
000800020000
000C00060000
000400040000
0006000C0000
000300180000
000100300000
0001C0600000
00007FC00000
00001F000000
000000000000
000000000000
000000000000
000000000000
000000000000
000000000000
0001FFE00000
000FF0FC0000
001E000F0000
007000038000
00E00000E000
018000007000
030000003800
060000001800
060000000C00
0C0000000600
080000000600
180000000000
180000000000
300000000000
300000000000
300000000000
200000000000
600000000000
600000000000
600000000000
600000000000
600000000000
400000000000
400000000000
C00000000000
C00000000000
C00000000000
C00000000000
C00000000000
C000007FFF80
C000007FFF80
400000000180
400000000180
400000000180
600000000180
600000000180
600000000180
600000000180
600000000180
200000000180
300000000180
300000000180
300000000180
180000000380
180000000380
0C0000000380
0C0000000780
060000000D80
070000000980
038000001980
01C000003180
00E00000E180
007800038180
001E000F0180
0007FFFC0180
00007FE00000
ENDCHAR
STARTCHAR 011F
ENCODING 287
SWIDTH 514 0
DWIDTH 40 0
BBX 35 73 4 -16
BITMAP
0100004000
0100004000
018000C000
0080008000
00C0018000
0060030000
0030030000
00180E0000
000FF80000
0003E00000
0000000000
0000000000
0000000000
0000000000
0000000000
0000000000
0000000000
001FFC0000
00780FFFE0
01C0018000
038000E000
0700006000
0600003000
0C00001800
0C00001800
0800000800
1800000C00
1800000C00
1800000C00
1800000C00
1800000C00
1800000C00
1800000C00
1800000800
0800000800
0C00001800
0C00001000
0600003000
0300006000
018000C000
00E0038000
003F7E0000
00FFF80000
0180000000
0600000000
0C00000000
0C00000000
0800000000
1800000000
0800000000
0800000000
0C00000000
0780000000
01FFFFF000
03C001FE00
0E00000700
1800000180
30000000C0
60000000C0
4000000060
C000000060
C000000060
C000000060
C000000060
C000000060
C000000040
C0000000C0
60000001C0
7000000180
3800000700
1E00001E00
07C000F800
00FFFFC000
ENDCHAR
STARTCHAR 0120
ENCODING 288
SWIDTH 655 0
DWIDTH 51 0
BBX 41 69 5 -1
BITMAP
00000C000000
00000E000000
00000E000000
00000E000000
000000000000
000000000000
000000000000
000000000000
000000000000
000000000000
000000000000
000000000000
000000000000
0001FFE00000
000FF0FC0000
001E000F0000
007000038000
00E00000E000
018000007000
030000003800
060000001800
060000000C00
0C0000000600
080000000600
180000000000
180000000000
300000000000
300000000000
300000000000
200000000000
600000000000
600000000000
600000000000
600000000000
600000000000
400000000000
400000000000
C00000000000
C00000000000
C00000000000
C00000000000
C00000000000
C000007FFF80
C000007FFF80
400000000180
400000000180
400000000180
600000000180
600000000180
600000000180
600000000180
600000000180
200000000180
300000000180
300000000180
300000000180
180000000380
180000000380
0C0000000380
0C0000000780
060000000D80
070000000980
038000001980
01C000003180
00E00000E180
007800038180
001E000F0180
0007FFFC0180
00007FE00000
ENDCHAR
STARTCHAR 0121
ENCODING 289
SWIDTH 514 0
DWIDTH 40 0
BBX 35 70 4 -16
BITMAP
0000C00000
0001C00000
0001C00000
0001C00000
0000000000
0000000000
0000000000
0000000000
0000000000
0000000000
0000000000
0000000000
0000000000
0000000000
001FFC0000
00780FFFE0
01C0018000
038000E000
0700006000
0600003000
0C00001800
0C00001800
0800000800
1800000C00
1800000C00
1800000C00
1800000C00
1800000C00
1800000C00
1800000C00
1800000800
0800000800
0C00001800
0C00001000
0600003000
0300006000
018000C000
00E0038000
003F7E0000
00FFF80000
0180000000
0600000000
0C00000000
0C00000000
0800000000
1800000000
0800000000
0800000000
0C00000000
0780000000
01FFFFF000
03C001FE00
0E00000700
1800000180
30000000C0
60000000C0
4000000060
C000000060
C000000060
C000000060
C000000060
C000000060
C000000040
C0000000C0
60000001C0
7000000180
3800000700
1E00001E00
07C000F800
00FFFFC000
ENDCHAR
STARTCHAR 0122
ENCODING 290
SWIDTH 655 0
DWIDTH 51 0
BBX 41 71 5 -16
BITMAP
0001FFE00000
000FF0FC0000
001E000F0000
007000038000
00E00000E000
018000007000
030000003800
060000001800
060000000C00
0C0000000600
080000000600
180000000000
180000000000
300000000000
300000000000
300000000000
200000000000
600000000000
600000000000
600000000000
600000000000
600000000000
400000000000
400000000000
C00000000000
C00000000000
C00000000000
C00000000000
C00000000000
C000007FFF80
C000007FFF80
400000000180
400000000180
400000000180
600000000180
600000000180
600000000180
600000000180
600000000180
200000000180
300000000180
300000000180
300000000180
180000000380
180000000380
0C0000000380
0C0000000780
060000000D80
070000000980
038000001980
01C000003180
00E00000E180
007800038180
001E000F0180
0007FFFC0180
00007FE00000
000000000000
000000000000
000000000000
000000000000
00000E000000
00000E000000
00000E000000
00000E000000
000002000000
000002000000
000006000000
000004000000
00000C000000
000008000000
000018000000
ENDCHAR
STARTCHAR 0123
ENCODING 291
SWIDTH 514 0
DWIDTH 40 0
BBX 35 74 4 -16
BITMAP
0000200000
0000600000
0000400000
0000800000
0000800000
0001800000
0001000000
0001000000
0001C00000
0001C00000
0001C00000
0000000000
0000000000
0000000000
0000000000
0000000000
0000000000
0000000000
001FFC0000
00780FFFE0
01C0018000
038000E000
0700006000
0600003000
0C00001800
0C00001800
0800000800
1800000C00
1800000C00
1800000C00
1800000C00
1800000C00
1800000C00
1800000C00
1800000800
0800000800
0C00001800
0C00001000
0600003000
0300006000
018000C000
00E0038000
003F7E0000
00FFF80000
0180000000
0600000000
0C00000000
0C00000000
0800000000
1800000000
0800000000
0800000000
0C00000000
0780000000
01FFFFF000
03C001FE00
0E00000700
1800000180
30000000C0
60000000C0
4000000060
C000000060
C000000060
C000000060
C000000060
C000000060
C000000040
C0000000C0
60000001C0
7000000180
3800000700
1E00001E00
07C000F800
00FFFFC000
ENDCHAR
STARTCHAR 0124
ENCODING 292
SWIDTH 681 0
DWIDTH 53 0
BBX 37 72 8 0
BITMAP
0000300000
0000780000
0000CC0000
0001860000
0003030000
0006018000
000C00C000
0018006000
0030003000
0060001800
00C0000C00
0000000000
0000000000
0000000000
0000000000
0000000000
0000000000
0000000000
C000000008
C000000008
C000000008
C000000008
C000000008
C000000008
C000000008
C000000008
C000000008
C000000008
C000000008
C000000008
C000000008
C000000008
C000000008
C000000008
C000000008
C000000008
C000000008
C000000008
C000000008
C000000008
C000000008
C000000008
C000000008
C000000008
FFFFFFFFF8
C000000008
C000000008
C000000008
C000000008
C000000008
C000000008
C000000008
C000000008
C000000008
C000000008
C000000008
C000000008
C000000008
C000000008
C000000008
C000000008
C000000008
C000000008
C000000008
C000000008
C000000008
C000000008
C000000008
C000000008
C000000008
C000000008
C000000008
ENDCHAR
STARTCHAR 0125
ENCODING 293
SWIDTH 552 0
DWIDTH 43 0
BBX 38 70 -2 0
BITMAP
0038000000
007C000000
00CC000000
0186000000
0303000000
0601800000
0C00C00000
1800600000
3000300000
6000180000
C0000C0000
0000000000
0030000000
0030000000
0030000000
0030000000
0030000000
0030000000
0030000000
0030000000
0030000000
0030000000
0030000000
0030000000
0030000000
0030000000
0030000000
0030000000
0030000000
0030000000
00301FFC00
0030781F00
0031C00380
00330000C0
0036000060
0034000030
0038000030
0038000018
0030000018
0030000008
003000000C
003000000C
003000000C
003000000C
003000000C
003000000C
003000000C
003000000C
003000000C
003000000C
003000000C
003000000C
003000000C
003000000C
003000000C
003000000C
003000000C
003000000C
003000000C
003000000C
003000000C
003000000C
003000000C
003000000C
003000000C
003000000C
003000000C
003000000C
003000000C
003000000C
ENDCHAR
STARTCHAR 0126
ENCODING 294
SWIDTH 694 0
DWIDTH 54 0
BBX 50 54 2 0
BITMAP
01000000003000
01000000003000
01000000003000
01000000003000
01000000003000
01000000003000
01000000003000
01000000003000
01000000003000
01000000003000
01000000003000
FFFFFFFFFFFFC0
01000000003000
01000000003000
01000000003000
01000000003000
01000000003000
01000000003000
01000000003000
01000000003000
01000000003000
01000000003000
01000000003000
01000000003000
01000000003000
01000000003000
01FFFFFFFFF000
01000000003000
01000000003000
01000000003000
01000000003000
01000000003000
01000000003000
01000000003000
01000000003000
01000000003000
01000000003000
01000000003000
01000000003000
01000000003000
01000000003000
01000000003000
01000000003000
01000000003000
01000000003000
01000000003000
01000000003000
01000000003000
01000000003000
01000000003000
01000000003000
01000000003000
01000000003000
01000000003000
ENDCHAR
STARTCHAR 0127
ENCODING 295
SWIDTH 552 0
DWIDTH 43 0
BBX 33 58 3 0
BITMAP
0600000000
0600000000
0600000000
0600000000
0600000000
0600000000
0600000000
0600000000
FFFFF00000
0600000000
0600000000
0600000000
0600000000
0600000000
0600000000
0600000000
0600000000
0600000000
0603FF8000
060F01E000
0638003800
0660001C00
06C0000C00
0680000600
0700000300
0700000300
0700000100
0600000180
0600000180
0600000180
0600000180
0600000180
0600000180
0600000180
0600000180
0600000180
0600000180
0600000180
0600000180
0600000180
0600000180
0600000180
0600000180
0600000180
0600000180
0600000180
0600000180
0600000180
0600000180
0600000180
0600000180
0600000180
0600000180
0600000180
0600000180
0600000180
0600000180
0600000180
ENDCHAR
STARTCHAR 0128
ENCODING 296
SWIDTH 360 0
DWIDTH 28 0
BBX 23 69 3 0
BITMAP
060000
3FC000
607000
C03806
000F1C
0003F0
000000
000000
000000
000000
000000
000000
000000
000000
000000
3FFFF8
001000
001000
001000
001000
001000
001000
001000
001000
001000
001000
001000
001000
001000
001000
001000
001000
001000
001000
001000
001000
001000
001000
001000
001000
001000
001000
001000
001000
001000
001000
001000
001000
001000
001000
001000
001000
001000
001000
001000
001000
001000
001000
001000
001000
001000
001000
001000
001000
001000
001000
001000
001000
3FFFF8
ENDCHAR
STARTCHAR 0129
ENCODING 297
SWIDTH 218 0
DWIDTH 17 0
BBX 23 55 -3 0
BITMAP
030000
1FC000
707002
C01C06
00071C
0001F0
000000
000000
000000
000000
000000
000000
000000
000000
000000
000000
001800
001800
001800
001800
001800
001800
001800
001800
001800
001800
001800
001800
001800
001800
001800
001800
001800
001800
001800
001800
001800
001800
001800
001800
001800
001800
001800
001800
001800
001800
001800
001800
001800
001800
001800
001800
001800
001800
001800
ENDCHAR
STARTCHAR 012A
ENCODING 298
SWIDTH 360 0
DWIDTH 28 0
BBX 21 67 4 0
BITMAP
FFFFF8
FFFFF8
000000
000000
000000
000000
000000
000000
000000
000000
000000
000000
000000
7FFFF0
002000
002000
002000
002000
002000
002000
002000
002000
002000
002000
002000
002000
002000
002000
002000
002000
002000
002000
002000
002000
002000
002000
002000
002000
002000
002000
002000
002000
002000
002000
002000
002000
002000
002000
002000
002000
002000
002000
002000
002000
002000
002000
002000
002000
002000
002000
002000
002000
002000
002000
002000
002000
7FFFF0
ENDCHAR
STARTCHAR 012B
ENCODING 299
SWIDTH 218 0
DWIDTH 17 0
BBX 20 53 -1 0
BITMAP
FFFFF0
FFFFF0
000000
000000
000000
000000
000000
000000
000000
000000
000000
000000
000000
000000
006000
006000
006000
006000
006000
006000
006000
006000
006000
006000
006000
006000
006000
006000
006000
006000
006000
006000
006000
006000
006000
006000
006000
006000
006000
006000
006000
006000
006000
006000
006000
006000
006000
006000
006000
006000
006000
006000
006000
ENDCHAR
STARTCHAR 012C
ENCODING 300
SWIDTH 360 0
DWIDTH 28 0
BBX 19 71 5 0
BITMAP
800020
800020
C00060
400040
6000C0
300180
180300
1C0600
07FC00
01F000
000000
000000
000000
000000
000000
000000
000000
FFFFE0
004000
004000
004000
004000
004000
004000
004000
004000
004000
004000
004000
004000
004000
004000
004000
004000
004000
004000
004000
004000
004000
004000
004000
004000
004000
004000
004000
004000
004000
004000
004000
004000
004000
004000
004000
004000
004000
004000
004000
004000
004000
004000
004000
004000
004000
004000
004000
004000
004000
004000
004000
004000
FFFFE0
ENDCHAR
STARTCHAR 012D
ENCODING 301
SWIDTH 218 0
DWIDTH 17 0
BBX 20 57 -1 0
BITMAP
800010
C00030
400020
600060
200040
3000C0
180180
0C0300
07FE00
01F800
000000
000000
000000
000000
000000
000000
000000
000000
006000
006000
006000
006000
006000
006000
006000
006000
006000
006000
006000
006000
006000
006000
006000
006000
006000
006000
006000
006000
006000
006000
006000
006000
006000
006000
006000
006000
006000
006000
006000
006000
006000
006000
006000
006000
006000
006000
006000
ENDCHAR
STARTCHAR 012E
ENCODING 302
SWIDTH 360 0
DWIDTH 28 0
BBX 20 70 5 -16
BITMAP
FFFFE0
004000
004000
004000
004000
004000
004000
004000
004000
004000
004000
004000
004000
004000
004000
004000
004000
004000
004000
004000
004000
004000
004000
004000
004000
004000
004000
004000
004000
004000
004000
004000
004000
004000
004000
004000
004000
004000
004000
004000
004000
004000
004000
004000
004000
004000
004000
004000
004000
004000
004000
004000
004000
FFFFE0
0000C0
000300
000600
000C00
001000
002000
006000
004000
00C000
008000
008000
00C000
00C000
006070
003FC0
000F00
ENDCHAR
STARTCHAR 012F
ENCODING 303
SWIDTH 218 0
DWIDTH 17 0
BBX 12 72 1 -16
BITMAP
01C0
03C0
03C0
0180
0000
0000
0000
0000
0000
0000
0000
0000
0000
0000
0000
0000
0000
0180
0180
0180
0180
0180
0180
0180
0180
0180
0180
0180
0180
0180
0180
0180
0180
0180
0180
0180
0180
0180
0180
0180
0180
0180
0180
0180
0180
0180
0180
0180
0180
0180
0180
0180
0180
0180
0180
0180
0100
0600
0C00
1800
3000
3000
6000
4000
C000
C000
C000
C000
4000
6030
3FE0
0780
ENDCHAR
STARTCHAR 0130
ENCODING 304
SWIDTH 360 0
DWIDTH 28 0
BBX 19 68 5 0
BITMAP
00E000
00E000
00E000
00E000
000000
000000
000000
000000
000000
000000
000000
000000
000000
000000
FFFFE0
004000
004000
004000
004000
004000
004000
004000
004000
004000
004000
004000
004000
004000
004000
004000
004000
004000
004000
004000
004000
004000
004000
004000
004000
004000
004000
004000
004000
004000
004000
004000
004000
004000
004000
004000
004000
004000
004000
004000
004000
004000
004000
004000
004000
004000
004000
004000
004000
004000
004000
004000
004000
FFFFE0
ENDCHAR
STARTCHAR 0131
ENCODING 305
SWIDTH 218 0
DWIDTH 17 0
BBX 2 39 8 0
BITMAP
C0
C0
C0
C0
C0
C0
C0
C0
C0
C0
C0
C0
C0
C0
C0
C0
C0
C0
C0
C0
C0
C0
C0
C0
C0
C0
C0
C0
C0
C0
C0
C0
C0
C0
C0
C0
C0
C0
C0
ENDCHAR
STARTCHAR 0132
ENCODING 306
SWIDTH 630 0
DWIDTH 49 0
BBX 33 55 8 -1
BITMAP
8000FFFF80
8000000080
8000000080
8000000080
8000000080
8000000080
8000000080
8000000080
8000000080
8000000080
8000000080
8000000080
8000000080
8000000080
8000000080
8000000080
8000000080
8000000080
8000000080
8000000080
8000000080
8000000080
8000000080
8000000080
8000000080
8000000080
8000000080
8000000080
8000000080
8000000080
8000000080
0000000080
0000000080
0000000080
0000000080
0000000080
0000000080
0000000080
0000000080
0000000080
0000000180
0000000180
0000000180
8000000180
C000000100
C000000300
6000000300
6000000600
3000000600
3800000C00
1C00003800
0E00007000
07C003E000
01FFFF0000
001FF80000
ENDCHAR
STARTCHAR 0133
ENCODING 307
SWIDTH 450 0
DWIDTH 35 0
BBX 22 72 7 -16
BITMAP
E00038
F0003C
F0003C
600018
000000
000000
000000
000000
000000
000000
000000
000000
000000
000000
000000
000000
000000
600018
600018
600018
600018
600018
600018
600018
600018
600018
600018
600018
600018
600018
600018
600018
600018
600018
600018
600018
600018
600018
600018
600018
600018
600018
600018
600018
600018
600018
600018
600018
600018
600018
600018
600018
600018
600018
600018
600018
000018
000018
000018
000018
000018
000018
000018
000018
000018
000018
000018
000018
000018
000018
0007F8
0007E0
ENDCHAR
STARTCHAR 0134
ENCODING 308
SWIDTH 462 0
DWIDTH 36 0
BBX 27 73 2 -1
BITMAP
00018000
0003C000
00066000
000C3000
00181800
00300C00
00600600
00C00300
01800180
030000C0
06000060
00000000
00000000
00000000
00000000
00000000
00000000
00000000
07FFFFC0
00000040
00000040
00000040
00000040
00000040
00000040
00000040
00000040
00000040
00000040
00000040
00000040
00000040
00000040
00000040
00000040
00000040
00000040
00000040
00000040
00000040
00000040
00000040
00000040
00000040
00000040
00000040
00000040
00000040
00000040
00000040
00000040
00000040
00000040
00000040
00000040
00000040
00000040
00000040
00000040
00000040
000000C0
000000C0
000000C0
800000C0
C0000080
C0000180
60000180
30000300
38000600
1C000C00
07003800
03FFF000
007F8000
ENDCHAR
STARTCHAR 0135
ENCODING 309
SWIDTH 218 0
DWIDTH 17 0
BBX 22 74 -2 -16
BITMAP
003000
007800
00CC00
018600
030300
060180
0C00C0
180060
300030
600018
C0000C
000000
000000
000000
000000
000000
000000
000000
000000
003000
003000
003000
003000
003000
003000
003000
003000
003000
003000
003000
003000
003000
003000
003000
003000
003000
003000
003000
003000
003000
003000
003000
003000
003000
003000
003000
003000
003000
003000
003000
003000
003000
003000
003000
003000
003000
003000
003000
003000
003000
003000
003000
003000
003000
003000
003000
003000
003000
003000
003000
003000
003000
0FF000
0FC000
ENDCHAR
STARTCHAR 0136
ENCODING 310
SWIDTH 565 0
DWIDTH 44 0
BBX 35 70 8 -16
BITMAP
C0000000C0
C000000180
C000000300
C000000600
C000000C00
C000001800
C000003800
C000007000
C000006000
C00000C000
C000018000
C000030000
C000060000
C0000C0000
C000180000
C000300000
C000600000
C000E00000
C001C00000
C001800000
C003000000
C006000000
C00C000000
C01C000000
C036000000
C063000000
C0C3000000
C181800000
C300C00000
C700C00000
CE00600000
CC00300000
D800300000
F000180000
E0000C0000
C0000C0000
C000060000
C000030000
C000030000
C000018000
C00000C000
C00000C000
C000006000
C000003000
C000003800
C000001800
C000000C00
C000000600
C000000600
C000000300
C000000180
C000000180
C0000000C0
C000000060
0000000000
0000000000
0000000000
0000000000
0000000000
0001C00000
0001C00000
0001C00000
0001C00000
0000400000
0000C00000
0000C00000
0000800000
0001800000
0001000000
0002000000
ENDCHAR
STARTCHAR 0137
ENCODING 311
SWIDTH 488 0
DWIDTH 38 0
BBX 28 74 8 -16
BITMAP
C0000000
C0000000
C0000000
C0000000
C0000000
C0000000
C0000000
C0000000
C0000000
C0000000
C0000000
C0000000
C0000000
C0000000
C0000000
C0000000
C0000000
C0000000
C0000000
C00001C0
C0000380
C0000700
C0000E00
C0001C00
C0003800
C0007000
C000E000
C001C000
C0038000
C0070000
C00E0000
C01C0000
C0380000
C0700000
C0E00000
C1C00000
C3E00000
C7700000
CE300000
DC180000
F80C0000
F0060000
E0030000
C0038000
C0018000
C000C000
C0006000
C0003000
C0001800
C0000C00
C0000C00
C0000600
C0000300
C0000180
C00000C0
C0000060
C0000060
C0000030
00000000
00000000
00000000
00000000
00000000
000C0000
001E0000
001E0000
000E0000
00060000
00040000
00040000
000C0000
00080000
00180000
00300000
ENDCHAR
STARTCHAR 0138
ENCODING 312
SWIDTH 488 0
DWIDTH 38 0
BBX 28 39 8 0
BITMAP
C00000E0
C0000180
C0000300
C0000600
C0000C00
C0001800
C0003000
C0006000
C000C000
C0018000
C0030000
C0060000
C00C0000
C0180000
C0300000
C0600000
C0C00000
C1C00000
C3600000
C6300000
CC180000
D80C0000
F00E0000
E0060000
C0030000
C0018000
C000C000
C0006000
C0003000
C0003800
C0001800
C0000C00
C0000600
C0000300
C0000180
C00000C0
C00000E0
C0000060
C0000030
ENDCHAR
STARTCHAR 0139
ENCODING 313
SWIDTH 462 0
DWIDTH 36 0
BBX 28 72 7 0
BITMAP
00C00000
01800000
03000000
03000000
06000000
0C000000
18000000
18000000
30000000
60000000
40000000
C0000000
00000000
00000000
00000000
00000000
00000000
00000000
60000000
60000000
60000000
60000000
60000000
60000000
60000000
60000000
60000000
60000000
60000000
60000000
60000000
60000000
60000000
60000000
60000000
60000000
60000000
60000000
60000000
60000000
60000000
60000000
60000000
60000000
60000000
60000000
60000000
60000000
60000000
60000000
60000000
60000000
60000000
60000000
60000000
60000000
60000000
60000000
60000000
60000000
60000000
60000000
60000000
60000000
60000000
60000000
60000000
60000000
60000000
60000000
7FFFFFF0
7FFFFFF0
ENDCHAR
STARTCHAR 013A
ENCODING 314
SWIDTH 244 0
DWIDTH 19 0
BBX 9 74 7 0
BITMAP
0080
0180
0300
0300
0600
0C00
1800
1800
3000
6000
4000
C000
8000
0000
0000
0000
6000
6000
6000
6000
6000
6000
6000
6000
6000
6000
6000
6000
6000
6000
6000
6000
6000
6000
6000
6000
6000
6000
6000
6000
6000
6000
6000
6000
6000
6000
6000
6000
6000
6000
6000
6000
6000
6000
6000
6000
6000
6000
6000
6000
6000
6000
6000
6000
6000
6000
6000
6000
6000
6000
6000
6000
6000
3F80
ENDCHAR
STARTCHAR 013B
ENCODING 315
SWIDTH 462 0
DWIDTH 36 0
BBX 27 70 8 -16
BITMAP
C0000000
C0000000
C0000000
C0000000
C0000000
C0000000
C0000000
C0000000
C0000000
C0000000
C0000000
C0000000
C0000000
C0000000
C0000000
C0000000
C0000000
C0000000
C0000000
C0000000
C0000000
C0000000
C0000000
C0000000
C0000000
C0000000
C0000000
C0000000
C0000000
C0000000
C0000000
C0000000
C0000000
C0000000
C0000000
C0000000
C0000000
C0000000
C0000000
C0000000
C0000000
C0000000
C0000000
C0000000
C0000000
C0000000
C0000000
C0000000
C0000000
C0000000
C0000000
C0000000
FFFFFFE0
FFFFFFE0
00000000
00000000
00000000
00000000
00000000
00030000
00070000
00078000
00070000
00010000
00010000
00030000
00020000
00020000
00040000
000C0000
ENDCHAR
STARTCHAR 013C
ENCODING 316
SWIDTH 244 0
DWIDTH 19 0
BBX 8 74 8 -16
BITMAP
C0
C0
C0
C0
C0
C0
C0
C0
C0
C0
C0
C0
C0
C0
C0
C0
C0
C0
C0
C0
C0
C0
C0
C0
C0
C0
C0
C0
C0
C0
C0
C0
C0
C0
C0
C0
C0
C0
C0
C0
C0
C0
C0
C0
C0
C0
C0
C0
C0
C0
C0
C0
C0
C0
C0
C0
C0
7F
00
00
00
00
00
0C
1C
1C
1C
04
04
0C
08
08
10
30
ENDCHAR
STARTCHAR 013D
ENCODING 317
SWIDTH 462 0
DWIDTH 36 0
BBX 27 58 8 0
BITMAP
00180000
00180000
00180000
00180000
C0180000
C0100000
C0100000
C0100000
C0300000
C0300000
C0300000
C0300000
C0300000
C0200000
C0000000
C0000000
C0000000
C0000000
C0000000
C0000000
C0000000
C0000000
C0000000
C0000000
C0000000
C0000000
C0000000
C0000000
C0000000
C0000000
C0000000
C0000000
C0000000
C0000000
C0000000
C0000000
C0000000
C0000000
C0000000
C0000000
C0000000
C0000000
C0000000
C0000000
C0000000
C0000000
C0000000
C0000000
C0000000
C0000000
C0000000
C0000000
C0000000
C0000000
C0000000
C0000000
FFFFFFE0
FFFFFFE0
ENDCHAR
STARTCHAR 013E
ENCODING 318
SWIDTH 244 0
DWIDTH 19 0
BBX 12 58 8 0
BITMAP
C030
C030
C030
C030
C030
C030
C030
C020
C020
C020
C020
C060
C060
C060
C000
C000
C000
C000
C000
C000
C000
C000
C000
C000
C000
C000
C000
C000
C000
C000
C000
C000
C000
C000
C000
C000
C000
C000
C000
C000
C000
C000
C000
C000
C000
C000
C000
C000
C000
C000
C000
C000
C000
C000
C000
C000
C000
7F00
ENDCHAR
STARTCHAR 013F
ENCODING 319
SWIDTH 462 0
DWIDTH 36 0
BBX 27 54 8 0
BITMAP
C0000000
C0000000
C0000000
C0000000
C0000000
C0000000
C0000000
C0000000
C0000000
C0000000
C0000000
C0000000
C0000000
C0000000
C0000000
C0000000
C0000000
C0000000
C0000000
C0000000
C0000000
C0000000
C0000000
C0000000
C0000000
C0000000
C0000000
C0000000
C0000000
C0001800
C0003C00
C0003C00
C0001800
C0000000
C0000000
C0000000
C0000000
C0000000
C0000000
C0000000
C0000000
C0000000
C0000000
C0000000
C0000000
C0000000
C0000000
C0000000
C0000000
C0000000
C0000000
C0000000
FFFFFFE0
FFFFFFE0
ENDCHAR
STARTCHAR 0140
ENCODING 320
SWIDTH 270 0
DWIDTH 21 0
BBX 13 58 8 0
BITMAP
C000
C000
C000
C000
C000
C000
C000
C000
C000
C000
C000
C000
C000
C000
C000
C000
C000
C000
C000
C000
C000
C000
C000
C000
C000
C000
C000
C000
C000
C000
C000
C000
C000
C000
C000
C000
C038
C038
C038
C000
C000
C000
C000
C000
C000
C000
C000
C000
C000
C000
C000
C000
C000
C000
C000
C000
C000
7F00
ENDCHAR
STARTCHAR 0141
ENCODING 321
SWIDTH 475 0
DWIDTH 37 0
BBX 35 54 1 0
BITMAP
0080000000
0080000000
0080000000
0080000000
0080000000
0080000000
0080000000
0080000000
0080000000
0080000000
0080000000
0080000000
0080000000
0080000000
0080000000
0080000000
0080000000
0080000000
0080000000
0080000000
0080000000
0080000000
0080000000
0080000000
0080038000
00803E0000
0081F00000
008F800000
00FC000000
03E0000000
1E80000000
F080000000
8080000000
0080000000
0080000000
0080000000
0080000000
0080000000
0080000000
0080000000
0080000000
0080000000
0080000000
0080000000
0080000000
0080000000
0080000000
0080000000
0080000000
0080000000
0080000000
0080000000
00FFFFFFE0
00FFFFFFE0
ENDCHAR
STARTCHAR 0142
ENCODING 322
SWIDTH 244 0
DWIDTH 19 0
BBX 14 58 3 0
BITMAP
0600
0600
0600
0600
0600
0600
0600
0600
0600
0600
0600
0600
0600
0600
0600
0600
0600
0600
0600
0600
0600
0600
0600
0600
0600
0600
0604
063C
07F0
0F80
7E00
E600
0600
0600
0600
0600
0600
0600
0600
0600
0600
0600
0600
0600
0600
0600
0600
0600
0600
0600
0600
0600
0600
0600
0600
0600
0600
03FC
ENDCHAR
STARTCHAR 0143
ENCODING 323
SWIDTH 681 0
DWIDTH 53 0
BBX 37 72 8 0
BITMAP
000000C000
000000C000
0000018000
0000030000
0000060000
0000060000
00000C0000
0000180000
0000100000
0000300000
0000600000
0000C00000
0000000000
0000000000
0000000000
0000000000
0000000000
0000000000
E000000008
F000000008
D800000008
D800000008
CC00000008
C600000008
C600000008
C300000008
C300000008
C180000008
C0C0000008
C0C0000008
C060000008
C030000008
C030000008
C018000008
C018000008
C00C000008
C006000008
C006000008
C003000008
C001800008
C001800008
C000C00008
C000C00008
C000600008
C000300008
C000300008
C000180008
C0000C0008
C0000C0008
C000060008
C000060008
C000030008
C000018008
C000018008
C00000C008
C000006008
C000006008
C000003008
C000003008
C000001808
C000000C08
C000000C08
C000000608
C000000308
C000000308
C000000188
C000000188
C0000000C8
C000000068
C000000068
C000000038
C000000018
ENDCHAR
STARTCHAR 0144
ENCODING 324
SWIDTH 552 0
DWIDTH 43 0
BBX 28 58 8 0
BITMAP
00000C00
00001800
00003000
00006000
00006000
0000C000
00018000
00010000
00030000
00060000
000C0000
00080000
00000000
00000000
00000000
00000000
00000000
00000000
007FF000
C1E07C00
C7000E00
CC000300
D8000180
D00000C0
E00000C0
E0000060
C0000060
C0000020
C0000030
C0000030
C0000030
C0000030
C0000030
C0000030
C0000030
C0000030
C0000030
C0000030
C0000030
C0000030
C0000030
C0000030
C0000030
C0000030
C0000030
C0000030
C0000030
C0000030
C0000030
C0000030
C0000030
C0000030
C0000030
C0000030
C0000030
C0000030
C0000030
C0000030
ENDCHAR
STARTCHAR 0145
ENCODING 325
SWIDTH 681 0
DWIDTH 53 0
BBX 37 70 8 -16
BITMAP
E000000008
F000000008
D800000008
D800000008
CC00000008
C600000008
C600000008
C300000008
C300000008
C180000008
C0C0000008
C0C0000008
C060000008
C030000008
C030000008
C018000008
C018000008
C00C000008
C006000008
C006000008
C003000008
C001800008
C001800008
C000C00008
C000C00008
C000600008
C000300008
C000300008
C000180008
C0000C0008
C0000C0008
C000060008
C000060008
C000030008
C000018008
C000018008
C00000C008
C000006008
C000006008
C000003008
C000003008
C000001808
C000000C08
C000000C08
C000000608
C000000308
C000000308
C000000188
C000000188
C0000000C8
C000000068
C000000068
C000000038
C000000018
0000000000
0000000000
0000000000
0000000000
0000000000
0000300000
0000780000
0000780000
0000780000
0000180000
0000100000
0000100000
0000300000
0000200000
0000600000
0000C00000
ENDCHAR
STARTCHAR 0146
ENCODING 326
SWIDTH 552 0
DWIDTH 43 0
BBX 28 56 8 -16
BITMAP
007FF000
C1E07C00
C7000E00
CC000300
D8000180
D00000C0
E00000C0
E0000060
C0000060
C0000020
C0000030
C0000030
C0000030
C0000030
C0000030
C0000030
C0000030
C0000030
C0000030
C0000030
C0000030
C0000030
C0000030
C0000030
C0000030
C0000030
C0000030
C0000030
C0000030
C0000030
C0000030
C0000030
C0000030
C0000030
C0000030
C0000030
C0000030
C0000030
C0000030
C0000030
00000000
00000000
00000000
00000000
00000000
00060000
000F0000
000F0000
00070000
00030000
00020000
00020000
00060000
00040000
000C0000
00180000
ENDCHAR
STARTCHAR 0147
ENCODING 327
SWIDTH 681 0
DWIDTH 53 0
BBX 37 72 8 0
BITMAP
00C0000800
0060001800
0030003000
0018006000
000C00C000
0006018000
0003030000
0001860000
0001CC0000
0000F80000
0000700000
0000000000
0000000000
0000000000
0000000000
0000000000
0000000000
0000000000
E000000008
F000000008
D800000008
D800000008
CC00000008
C600000008
C600000008
C300000008
C300000008
C180000008
C0C0000008
C0C0000008
C060000008
C030000008
C030000008
C018000008
C018000008
C00C000008
C006000008
C006000008
C003000008
C001800008
C001800008
C000C00008
C000C00008
C000600008
C000300008
C000300008
C000180008
C0000C0008
C0000C0008
C000060008
C000060008
C000030008
C000018008
C000018008
C00000C008
C000006008
C000006008
C000003008
C000003008
C000001808
C000000C08
C000000C08
C000000608
C000000308
C000000308
C000000188
C000000188
C0000000C8
C000000068
C000000068
C000000038
C000000018
ENDCHAR
STARTCHAR 0148
ENCODING 328
SWIDTH 552 0
DWIDTH 43 0
BBX 28 58 8 0
BITMAP
08000180
0C000300
06000600
03000C00
01801800
00C03000
00607000
0030E000
0019C000
000F8000
00070000
00000000
00000000
00000000
00000000
00000000
00000000
00000000
007FF000
C1E07C00
C7000E00
CC000300
D8000180
D00000C0
E00000C0
E0000060
C0000060
C0000020
C0000030
C0000030
C0000030
C0000030
C0000030
C0000030
C0000030
C0000030
C0000030
C0000030
C0000030
C0000030
C0000030
C0000030
C0000030
C0000030
C0000030
C0000030
C0000030
C0000030
C0000030
C0000030
C0000030
C0000030
C0000030
C0000030
C0000030
C0000030
C0000030
C0000030
ENDCHAR
STARTCHAR 0149
ENCODING 329
SWIDTH 758 0
DWIDTH 59 0
BBX 47 58 5 0
BITMAP
1E0000000000
1E0000000000
1E0000000000
1E0000000000
060000000000
060000000000
040000000000
040000000000
0C0000000000
080000000000
180000000000
100000000000
200000000000
600000000000
C00000000000
000000000000
000000000000
000000000000
0000000FFE00
0000187C0F80
000018E001C0
000019800060
00001B000030
00001E000018
00001C000018
00001C00000C
00001800000C
000018000004
000018000004
000018000006
000018000006
000018000006
000018000006
000018000006
000018000006
000018000006
000018000006
000018000006
000018000006
000018000006
000018000006
000018000006
000018000006
000018000006
000018000006
000018000006
000018000006
000018000006
000018000006
000018000006
000018000006
000018000006
000018000006
000018000006
000018000006
000018000006
000018000006
000018000006
ENDCHAR
STARTCHAR 014A
ENCODING 330
SWIDTH 681 0
DWIDTH 53 0
BBX 37 70 8 -16
BITMAP
E000000008
F000000008
D800000008
D800000008
CC00000008
C600000008
C600000008
C300000008
C300000008
C180000008
C0C0000008
C0C0000008
C060000008
C030000008
C030000008
C018000008
C018000008
C00C000008
C006000008
C006000008
C003000008
C001800008
C001800008
C000C00008
C000C00008
C000600008
C000300008
C000300008
C000180008
C0000C0008
C0000C0008
C000060008
C000060008
C000030008
C000018008
C000018008
C00000C008
C000006008
C000006008
C000003008
C000003008
C000001808
C000000C08
C000000C08
C000000608
C000000308
C000000308
C000000188
C000000188
C0000000C8
C000000068
C000000068
C000000038
C000000018
0000000008
0000000008
0000000008
0000000008
0000000008
0000000008
0000000008
0000000008
0000000008
0000000008
0000000008
0000000008
0000000008
0000000008
00000007F8
00000007F0
ENDCHAR
STARTCHAR 014B
ENCODING 331
SWIDTH 552 0
DWIDTH 43 0
BBX 28 56 8 -16
BITMAP
007FF000
C1E07C00
C7000E00
CC000300
D8000180
D00000C0
E00000C0
E0000060
C0000060
C0000020
C0000030
C0000030
C0000030
C0000030
C0000030
C0000030
C0000030
C0000030
C0000030
C0000030
C0000030
C0000030
C0000030
C0000030
C0000030
C0000030
C0000030
C0000030
C0000030
C0000030
C0000030
C0000030
C0000030
C0000030
C0000030
C0000030
C0000030
C0000030
C0000030
C0000030
00000030
00000030
00000030
00000030
00000030
00000030
00000030
00000030
00000030
00000030
00000030
00000030
00000030
00000030
00000FF0
00000FC0
ENDCHAR
STARTCHAR 014C
ENCODING 332
SWIDTH 668 0
DWIDTH 52 0
BBX 42 68 5 -1
BITMAP
001FFFFE0000
001FFFFE0000
000000000000
000000000000
000000000000
000000000000
000000000000
000000000000
000000000000
000000000000
000000000000
000000000000
0001FFE00000
000FF1FC0000
001E000F0000
00700001C000
00E00000E000
018000007000
030000003800
060000001C00
060000000C00
0C0000000600
080000000600
180000000300
180000000300
300000000100
300000000180
300000000180
200000000080
6000000000C0
6000000000C0
6000000000C0
6000000000C0
6000000000C0
4000000000C0
4000000000C0
C00000000040
C00000000040
C00000000040
C00000000040
C00000000040
C00000000040
C00000000040
400000000040
4000000000C0
4000000000C0
6000000000C0
6000000000C0
6000000000C0
6000000000C0
6000000000C0
200000000180
300000000180
300000000180
300000000100
180000000300
180000000300
0C0000000600
0C0000000600
060000000C00
070000001800
038000003800
01C000007000
00E00000E000
007800038000
001E000F0000
0007FFFC0000
00007FC00000
ENDCHAR
STARTCHAR 014D
ENCODING 333
SWIDTH 540 0
DWIDTH 42 0
BBX 32 54 5 -1
BITMAP
03FFFFC0
03FFFFC0
00000000
00000000
00000000
00000000
00000000
00000000
00000000
00000000
00000000
00000000
00000000
003FFC00
00F81F00
038001C0
070000E0
0C000030
18000018
18000018
3000000C
20000004
60000006
60000006
40000002
C0000003
C0000003
C0000003
C0000003
C0000003
80000001
80000001
80000001
80000001
80000001
80000001
80000003
C0000003
C0000003
C0000003
C0000003
40000002
40000002
60000006
60000006
3000000C
3000000C
18000018
0C000030
06000060
030000C0
01C00380
007FFE00
000FF000
ENDCHAR
STARTCHAR 014E
ENCODING 334
SWIDTH 668 0
DWIDTH 52 0
BBX 42 72 5 -1
BITMAP
000800020000
000800020000
000C00060000
000400040000
0006000C0000
000300180000
000100300000
0001C0600000
00007FC00000
00001F000000
000000000000
000000000000
000000000000
000000000000
000000000000
000000000000
0001FFE00000
000FF1FC0000
001E000F0000
00700001C000
00E00000E000
018000007000
030000003800
060000001C00
060000000C00
0C0000000600
080000000600
180000000300
180000000300
300000000100
300000000180
300000000180
200000000080
6000000000C0
6000000000C0
6000000000C0
6000000000C0
6000000000C0
4000000000C0
4000000000C0
C00000000040
C00000000040
C00000000040
C00000000040
C00000000040
C00000000040
C00000000040
400000000040
4000000000C0
4000000000C0
6000000000C0
6000000000C0
6000000000C0
6000000000C0
6000000000C0
200000000180
300000000180
300000000180
300000000100
180000000300
180000000300
0C0000000600
0C0000000600
060000000C00
070000001800
038000003800
01C000007000
00E00000E000
007800038000
001E000F0000
0007FFFC0000
00007FC00000
ENDCHAR
STARTCHAR 014F
ENCODING 335
SWIDTH 540 0
DWIDTH 42 0
BBX 32 58 5 -1
BITMAP
02000040
030000C0
01000080
01800180
00C00100
00C00300
00600600
00300C00
001FF800
0007E000
00000000
00000000
00000000
00000000
00000000
00000000
00000000
003FFC00
00F81F00
038001C0
070000E0
0C000030
18000018
18000018
3000000C
20000004
60000006
60000006
40000002
C0000003
C0000003
C0000003
C0000003
C0000003
80000001
80000001
80000001
80000001
80000001
80000001
80000003
C0000003
C0000003
C0000003
C0000003
40000002
40000002
60000006
60000006
3000000C
3000000C
18000018
0C000030
06000060
030000C0
01C00380
007FFE00
000FF000
ENDCHAR
STARTCHAR 0150
ENCODING 336
SWIDTH 668 0
DWIDTH 52 0
BBX 42 73 5 -1
BITMAP
000003003800
000006003000
000006006000
00000C00C000
00001800C000
000030018000
000030030000
000060060000
0000C0060000
0000800C0000
000180180000
000300100000
000000000000
000000000000
000000000000
000000000000
000000000000
0001FFE00000
000FF1FC0000
001E000F0000
00700001C000
00E00000E000
018000007000
030000003800
060000001C00
060000000C00
0C0000000600
080000000600
180000000300
180000000300
300000000100
300000000180
300000000180
200000000080
6000000000C0
6000000000C0
6000000000C0
6000000000C0
6000000000C0
4000000000C0
4000000000C0
C00000000040
C00000000040
C00000000040
C00000000040
C00000000040
C00000000040
C00000000040
400000000040
4000000000C0
4000000000C0
6000000000C0
6000000000C0
6000000000C0
6000000000C0
6000000000C0
200000000180
300000000180
300000000180
300000000100
180000000300
180000000300
0C0000000600
0C0000000600
060000000C00
070000001800
038000003800
01C000007000
00E00000E000
007800038000
001E000F0000
0007FFFC0000
00007FC00000
ENDCHAR
STARTCHAR 0151
ENCODING 337
SWIDTH 540 0
DWIDTH 42 0
BBX 32 59 5 -1
BITMAP
00006006
0000C00E
0001800C
00038018
00030030
00060020
000C0060
000C00C0
00180180
00300100
00600300
00600600
00000000
00000000
00000000
00000000
00000000
00000000
003FFC00
00F81F00
038001C0
070000E0
0C000030
18000018
18000018
3000000C
20000004
60000006
60000006
40000002
C0000003
C0000003
C0000003
C0000003
C0000003
80000001
80000001
80000001
80000001
80000001
80000001
80000003
C0000003
C0000003
C0000003
C0000003
40000002
40000002
60000006
60000006
3000000C
3000000C
18000018
0C000030
06000060
030000C0
01C00380
007FFE00
000FF000
ENDCHAR
STARTCHAR 0152
ENCODING 338
SWIDTH 964 0
DWIDTH 75 0
BBX 65 56 5 -1
BITMAP
00007FFFC000000000
0003FC1FFFFFFFFF80
000F00001800000000
003800001800000000
007000001800000000
00C000001800000000
018000001800000000
030000001800000000
060000001800000000
0E0000001800000000
0C0000001800000000
180000001800000000
180000001800000000
100000001800000000
300000001800000000
300000001800000000
200000001800000000
600000001800000000
600000001800000000
600000001800000000
600000001800000000
600000001800000000
400000001800000000
400000001800000000
C00000001800000000
C00000001800000000
C00000001800000000
C00000001FFFFFFF00
C00000001800000000
C00000001800000000
C00000001800000000
400000001800000000
400000001800000000
400000001800000000
600000001800000000
600000001800000000
600000001800000000
600000001800000000
600000001800000000
300000001800000000
300000001800000000
300000001800000000
180000001800000000
180000001800000000
080000001800000000
0C0000001800000000
060000001800000000
070000001800000000
030000001800000000
018000001800000000
00E000001800000000
007000001800000000
003C00001800000000
000F80003FFFFFFF80
0001FFFFFFFFFFFF80
00003FFE0000000000
ENDCHAR
STARTCHAR 0153
ENCODING 339
SWIDTH 925 0
DWIDTH 72 0
BBX 63 41 5 -1
BITMAP
003FF800007FF000
00F81F0001E03C00
0380018007000700
070000E00C000380
0C000030180000C0
1800001030000060
1800001820000060
3000000C60000030
2000000440000010
60000006C0000018
6000000680000008
400000028000000C
C00000038000000C
C00000038000000C
C000000300000004
C000000300000004
C000000300000004
8000000100000006
8000000100000006
80000001FFFFFFFE
8000000100000000
8000000100000000
8000000100000000
8000000300000000
C000000300000000
C000000300000000
C000000380000000
C000000380000000
4000000380000000
4000000280000000
60000006C000000C
60000004C000000C
3000000C40000018
3000000860000010
1800001830000030
0C00003018000060
060000600C0000C0
030000C006000180
01C0038003800700
007FFE0000FFFC00
000FF000001FE000
ENDCHAR
STARTCHAR 0154
ENCODING 340
SWIDTH 630 0
DWIDTH 49 0
BBX 36 72 8 0
BITMAP
0000060000
00000C0000
00000C0000
0000180000
0000300000
0000600000
0000600000
0000C00000
0001800000
0001000000
0003000000
0006000000
0000000000
0000000000
0000000000
0000000000
0000000000
0000000000
FFFFFFE000
C00000F800
C000001C00
C000000600
C000000300
C000000180
C000000180
C0000000C0
C0000000C0
C000000040
C000000040
C000000060
C000000060
C000000060
C000000060
C000000060
C000000060
C000000060
C000000040
C0000000C0
C0000000C0
C000000080
C000000180
C000000300
C000000700
C000000E00
C000003C00
FFFFFFF000
FFFFFF8000
C000180000
C0000C0000
C000060000
C000060000
C000030000
C000030000
C000018000
C00000C000
C00000C000
C000006000
C000006000
C000003000
C000001800
C000001800
C000000C00
C000000C00
C000000600
C000000300
C000000300
C000000180
C000000180
C0000000C0
C000000060
C000000060
C000000030
ENDCHAR
STARTCHAR 0155
ENCODING 341
SWIDTH 334 0
DWIDTH 26 0
BBX 18 58 8 0
BITMAP
000180
000300
000600
000600
000C00
001800
003000
003000
006000
00C000
018000
018000
000000
000000
000000
000000
000000
000000
000000
C07FC0
C3E000
C70000
CC0000
D80000
D00000
E00000
E00000
C00000
C00000
C00000
C00000
C00000
C00000
C00000
C00000
C00000
C00000
C00000
C00000
C00000
C00000
C00000
C00000
C00000
C00000
C00000
C00000
C00000
C00000
C00000
C00000
C00000
C00000
C00000
C00000
C00000
C00000
C00000
ENDCHAR
STARTCHAR 0156
ENCODING 342
SWIDTH 630 0
DWIDTH 49 0
BBX 36 70 8 -16
BITMAP
FFFFFFE000
C00000F800
C000001C00
C000000600
C000000300
C000000180
C000000180
C0000000C0
C0000000C0
C000000040
C000000040
C000000060
C000000060
C000000060
C000000060
C000000060
C000000060
C000000060
C000000040
C0000000C0
C0000000C0
C000000080
C000000180
C000000300
C000000700
C000000E00
C000003C00
FFFFFFF000
FFFFFF8000
C000180000
C0000C0000
C000060000
C000060000
C000030000
C000030000
C000018000
C00000C000
C00000C000
C000006000
C000006000
C000003000
C000001800
C000001800
C000000C00
C000000C00
C000000600
C000000300
C000000300
C000000180
C000000180
C0000000C0
C000000060
C000000060
C000000030
0000000000
0000000000
0000000000
0000000000
0000000000
0001800000
0003800000
0003C00000
0003800000
0000800000
0000800000
0001800000
0001000000
0001000000
0002000000
0006000000
ENDCHAR
STARTCHAR 0157
ENCODING 343
SWIDTH 334 0
DWIDTH 26 0
BBX 20 55 6 -16
BITMAP
301FF0
30F800
31C000
330000
360000
340000
380000
380000
300000
300000
300000
300000
300000
300000
300000
300000
300000
300000
300000
300000
300000
300000
300000
300000
300000
300000
300000
300000
300000
300000
300000
300000
300000
300000
300000
300000
300000
300000
300000
000000
000000
000000
000000
000000
300000
780000
780000
380000
180000
100000
100000
300000
200000
600000
C00000
ENDCHAR
STARTCHAR 0158
ENCODING 344
SWIDTH 630 0
DWIDTH 49 0
BBX 36 72 8 0
BITMAP
0400004000
060000C000
0300018000
0180030000
00C0060000
00600C0000
0030180000
0018300000
000C600000
0006C00000
0003800000
0000000000
0000000000
0000000000
0000000000
0000000000
0000000000
0000000000
FFFFFFE000
C00000F800
C000001C00
C000000600
C000000300
C000000180
C000000180
C0000000C0
C0000000C0
C000000040
C000000040
C000000060
C000000060
C000000060
C000000060
C000000060
C000000060
C000000060
C000000040
C0000000C0
C0000000C0
C000000080
C000000180
C000000300
C000000700
C000000E00
C000003C00
FFFFFFF000
FFFFFF8000
C000180000
C0000C0000
C000060000
C000060000
C000030000
C000030000
C000018000
C00000C000
C00000C000
C000006000
C000006000
C000003000
C000001800
C000001800
C000000C00
C000000C00
C000000600
C000000300
C000000300
C000000180
C000000180
C0000000C0
C000000060
C000000060
C000000030
ENDCHAR
STARTCHAR 0159
ENCODING 345
SWIDTH 334 0
DWIDTH 26 0
BBX 21 58 7 0
BITMAP
800018
C00030
600060
3000E0
1801C0
0C0380
060300
030600
018C00
00D800
007000
000000
000000
000000
000000
000000
000000
000000
000000
603FE0
61F000
638000
660000
6C0000
680000
700000
700000
600000
600000
600000
600000
600000
600000
600000
600000
600000
600000
600000
600000
600000
600000
600000
600000
600000
600000
600000
600000
600000
600000
600000
600000
600000
600000
600000
600000
600000
600000
600000
ENDCHAR
STARTCHAR 015A
ENCODING 346
SWIDTH 540 0
DWIDTH 42 0
BBX 34 73 4 -1
BITMAP
0000030000
0000030000
0000060000
00000C0000
0000180000
0000180000
0000300000
0000600000
0000400000
0000C00000
0001800000
0003000000
0000000000
0000000000
0000000000
0000000000
0000000000
001FFE0000
00FC1FC000
038000F000
0600001C00
0C00000E00
1800000700
3000000380
3000000180
6000000000
6000000000
4000000000
4000000000
4000000000
4000000000
4000000000
4000000000
4000000000
6000000000
6000000000
3000000000
3000000000
1800000000
0C00000000
0700000000
03C0000000
00F8000000
003FE00000
0003FE0000
00000FC000
000000F000
0000003800
0000000C00
0000000600
0000000300
0000000180
0000000180
0000000080
00000000C0
00000000C0
00000000C0
00000000C0
00000000C0
00000000C0
00000000C0
00000000C0
00000000C0
8000000080
C000000180
E000000100
7000000300
3800000600
1C00000C00
0700003800
01E000F000
007FFFC000
000FFC0000
ENDCHAR
STARTCHAR 015B
ENCODING 347
SWIDTH 450 0
DWIDTH 35 0
BBX 27 59 4 -1
BITMAP
00001800
00003000
00006000
00006000
0000C000
00018000
00010000
00030000
00060000
000C0000
00080000
00180000
00000000
00000000
00000000
00000000
00000000
00000000
00FFE000
03C07C00
0E000E00
1C000380
100001C0
300000C0
20000000
60000000
60000000
60000000
60000000
60000000
60000000
20000000
30000000
18000000
1C000000
0F000000
03E00000
00FF8000
0007F800
00003E00
00000700
00000180
000000C0
00000040
00000060
00000060
00000020
00000020
00000020
00000020
00000020
C0000060
E0000060
700000C0
38000180
1C000380
07000E00
01FFFC00
003FE000
ENDCHAR
STARTCHAR 015C
ENCODING 348
SWIDTH 540 0
DWIDTH 42 0
BBX 34 73 4 -1
BITMAP
0000C00000
0001E00000
0003300000
0006180000
000C0C0000
0018060000
0030030000
0060018000
00C000C000
0180006000
0300003000
0000000000
0000000000
0000000000
0000000000
0000000000
0000000000
001FFE0000
00FC1FC000
038000F000
0600001C00
0C00000E00
1800000700
3000000380
3000000180
6000000000
6000000000
4000000000
4000000000
4000000000
4000000000
4000000000
4000000000
4000000000
6000000000
6000000000
3000000000
3000000000
1800000000
0C00000000
0700000000
03C0000000
00F8000000
003FE00000
0003FE0000
00000FC000
000000F000
0000003800
0000000C00
0000000600
0000000300
0000000180
0000000180
0000000080
00000000C0
00000000C0
00000000C0
00000000C0
00000000C0
00000000C0
00000000C0
00000000C0
00000000C0
8000000080
C000000180
E000000100
7000000300
3800000600
1C00000C00
0700003800
01E000F000
007FFFC000
000FFC0000
ENDCHAR
STARTCHAR 015D
ENCODING 349
SWIDTH 450 0
DWIDTH 35 0
BBX 27 59 4 -1
BITMAP
000E0000
001F0000
00338000
0061C000
00C0E000
01806000
03803000
07001800
0E000C00
0C000600
18000300
00000000
00000000
00000000
00000000
00000000
00000000
00000000
00FFE000
03C07C00
0E000E00
1C000380
100001C0
300000C0
20000000
60000000
60000000
60000000
60000000
60000000
60000000
20000000
30000000
18000000
1C000000
0F000000
03E00000
00FF8000
0007F800
00003E00
00000700
00000180
000000C0
00000040
00000060
00000060
00000020
00000020
00000020
00000020
00000020
C0000060
E0000060
700000C0
38000180
1C000380
07000E00
01FFFC00
003FE000
ENDCHAR
STARTCHAR 015E
ENCODING 350
SWIDTH 540 0
DWIDTH 42 0
BBX 34 71 4 -16
BITMAP
001FFE0000
00FC1FC000
038000F000
0600001C00
0C00000E00
1800000700
3000000380
3000000180
6000000000
6000000000
4000000000
4000000000
4000000000
4000000000
4000000000
4000000000
4000000000
6000000000
6000000000
3000000000
3000000000
1800000000
0C00000000
0700000000
03C0000000
00F8000000
003FE00000
0003FE0000
00000FC000
000000F000
0000003800
0000000C00
0000000600
0000000300
0000000180
0000000180
0000000080
00000000C0
00000000C0
00000000C0
00000000C0
00000000C0
00000000C0
00000000C0
00000000C0
00000000C0
8000000080
C000000180
E000000180
7000000300
3800000600
0C00000C00
0700003800
01E000F000
007FFFC000
000FFC0000
0000C00000
0000800000
0000800000
0000800000
0001800000
0001FC0000
0000070000
0000030000
0000010000
0000010000
0000010000
0008030000
000C060000
0007FC0000
0000E00000
ENDCHAR
STARTCHAR 015F
ENCODING 351
SWIDTH 450 0
DWIDTH 35 0
BBX 27 56 4 -16
BITMAP
00FFE000
03C07C00
0E000E00
1C000380
100001C0
300000C0
20000000
60000000
60000000
60000000
60000000
60000000
60000000
20000000
30000000
18000000
1C000000
0F000000
03E00000
00FF8000
0007F800
00003E00
00000700
00000180
000000C0
00000040
00000060
00000060
00000020
00000020
00000020
00000020
00000020
C0000060
E0000060
700000C0
38000180
1C000380
07000E00
01FFFC00
003FE000
00060000
00060000
00040000
00040000
000C0000
000FF000
00003800
00001800
00000800
00000C00
00000800
00001800
00603000
003FE000
00078000
ENDCHAR
STARTCHAR 0160
ENCODING 352
SWIDTH 540 0
DWIDTH 42 0
BBX 34 73 4 -1
BITMAP
0300003000
0180006000
00C000C000
0060018000
0030030000
0018060000
000C0C0000
0006180000
0007300000
0003E00000
0001C00000
0000000000
0000000000
0000000000
0000000000
0000000000
0000000000
001FFE0000
00FC1FC000
038000F000
0600001C00
0C00000E00
1800000700
3000000380
3000000180
6000000000
6000000000
4000000000
4000000000
4000000000
4000000000
4000000000
4000000000
4000000000
6000000000
6000000000
3000000000
3000000000
1800000000
0C00000000
0700000000
03C0000000
00F8000000
003FE00000
0003FE0000
00000FC000
000000F000
0000003800
0000000C00
0000000600
0000000300
0000000180
0000000180
0000000080
00000000C0
00000000C0
00000000C0
00000000C0
00000000C0
00000000C0
00000000C0
00000000C0
00000000C0
8000000080
C000000180
E000000100
7000000300
3800000600
1C00000C00
0700003800
01E000F000
007FFFC000
000FFC0000
ENDCHAR
STARTCHAR 0161
ENCODING 353
SWIDTH 450 0
DWIDTH 35 0
BBX 27 59 4 -1
BITMAP
10000100
18000300
0C000600
06000C00
03001800
01803000
00C06000
0060C000
00318000
001B0000
000E0000
00000000
00000000
00000000
00000000
00000000
00000000
00000000
00FFE000
03C07C00
0E000E00
1C000380
100001C0
300000C0
20000000
60000000
60000000
60000000
60000000
60000000
60000000
20000000
30000000
18000000
1C000000
0F000000
03E00000
00FF8000
0007F800
00003E00
00000700
00000180
000000C0
00000040
00000060
00000060
00000020
00000020
00000020
00000020
00000020
C0000060
E0000060
700000C0
38000180
1C000380
07000E00
01FFFC00
003FE000
ENDCHAR
STARTCHAR 0162
ENCODING 354
SWIDTH 552 0
DWIDTH 43 0
BBX 41 70 1 -16
BITMAP
FFFFFFFFFF80
00000C000000
00000C000000
00000C000000
00000C000000
00000C000000
00000C000000
00000C000000
00000C000000
00000C000000
00000C000000
00000C000000
00000C000000
00000C000000
00000C000000
00000C000000
00000C000000
00000C000000
00000C000000
00000C000000
00000C000000
00000C000000
00000C000000
00000C000000
00000C000000
00000C000000
00000C000000
00000C000000
00000C000000
00000C000000
00000C000000
00000C000000
00000C000000
00000C000000
00000C000000
00000C000000
00000C000000
00000C000000
00000C000000
00000C000000
00000C000000
00000C000000
00000C000000
00000C000000
00000C000000
00000C000000
00000C000000
00000C000000
00000C000000
00000C000000
00000C000000
00000C000000
00000C000000
00000C000000
000000000000
000000000000
000000000000
000000000000
000000000000
00000C000000
00001E000000
00001E000000
00001E000000
000004000000
000004000000
000004000000
00000C000000
000008000000
000018000000
000030000000
ENDCHAR
STARTCHAR 0163
ENCODING 355
SWIDTH 308 0
DWIDTH 24 0
BBX 19 67 2 -16
BITMAP
008000
008000
008000
008000
008000
008000
008000
008000
008000
008000
008000
038000
FFFFE0
008000
008000
008000
008000
008000
008000
008000
008000
008000
008000
008000
008000
008000
008000
008000
008000
008000
008000
008000
008000
008000
008000
008000
008000
008000
008000
008000
008000
008000
008000
008000
008000
008000
008000
008000
008000
008000
00FFC0
000000
000000
000000
000000
000000
000C00
001E00
001E00
001E00
000400
000400
000400
000C00
000800
001800
003000
ENDCHAR
STARTCHAR 0164
ENCODING 356
SWIDTH 552 0
DWIDTH 43 0
BBX 41 72 1 0
BITMAP
003000020000
001800060000
000C000C0000
000600180000
000300300000
000180600000
0001C0C00000
0000E1800000
000073000000
00003E000000
00001C000000
000000000000
000000000000
000000000000
000000000000
000000000000
000000000000
000000000000
FFFFFFFFFF80
00000C000000
00000C000000
00000C000000
00000C000000
00000C000000
00000C000000
00000C000000
00000C000000
00000C000000
00000C000000
00000C000000
00000C000000
00000C000000
00000C000000
00000C000000
00000C000000
00000C000000
00000C000000
00000C000000
00000C000000
00000C000000
00000C000000
00000C000000
00000C000000
00000C000000
00000C000000
00000C000000
00000C000000
00000C000000
00000C000000
00000C000000
00000C000000
00000C000000
00000C000000
00000C000000
00000C000000
00000C000000
00000C000000
00000C000000
00000C000000
00000C000000
00000C000000
00000C000000
00000C000000
00000C000000
00000C000000
00000C000000
00000C000000
00000C000000
00000C000000
00000C000000
00000C000000
00000C000000
ENDCHAR
STARTCHAR 0165
ENCODING 357
SWIDTH 308 0
DWIDTH 24 0
BBX 20 58 2 0
BITMAP
000030
000030
000030
000030
000030
000030
000030
008020
008020
008020
008060
008060
008060
008060
008000
008000
008000
008000
038000
FFFFE0
008000
008000
008000
008000
008000
008000
008000
008000
008000
008000
008000
008000
008000
008000
008000
008000
008000
008000
008000
008000
008000
008000
008000
008000
008000
008000
008000
008000
008000
008000
008000
008000
008000
008000
008000
008000
008000
00FFC0
ENDCHAR
STARTCHAR 0166
ENCODING 358
SWIDTH 552 0
DWIDTH 43 0
BBX 41 54 1 0
BITMAP
FFFFFFFFFF80
00000C000000
00000C000000
00000C000000
00000C000000
00000C000000
00000C000000
00000C000000
00000C000000
00000C000000
00000C000000
00000C000000
00000C000000
00000C000000
00000C000000
00000C000000
00000C000000
00000C000000
00000C000000
00000C000000
00000C000000
00000C000000
00000C000000
00000C000000
07FFFFFFF000
07FFFFFFF000
00000C000000
00000C000000
00000C000000
00000C000000
00000C000000
00000C000000
00000C000000
00000C000000
00000C000000
00000C000000
00000C000000
00000C000000
00000C000000
00000C000000
00000C000000
00000C000000
00000C000000
00000C000000
00000C000000
00000C000000
00000C000000
00000C000000
00000C000000
00000C000000
00000C000000
00000C000000
00000C000000
00000C000000
ENDCHAR
STARTCHAR 0167
ENCODING 359
SWIDTH 308 0
DWIDTH 24 0
BBX 18 51 3 0
BITMAP
018000
018000
018000
018000
018000
018000
018000
018000
018000
018000
018000
038000
FFFFC0
018000
018000
018000
018000
018000
018000
018000
018000
018000
018000
018000
018000
018000
018000
018000
3FFF00
018000
018000
018000
018000
018000
018000
018000
018000
018000
018000
018000
018000
018000
018000
018000
018000
018000
018000
018000
018000
018000
00FF80
ENDCHAR
STARTCHAR 0168
ENCODING 360
SWIDTH 642 0
DWIDTH 50 0
BBX 35 70 8 -1
BITMAP
0018000000
00FF000000
0183800000
0200E03000
00003CE000
00000FC000
0000000000
0000000000
0000000000
0000000000
0000000000
0000000000
0000000000
0000000000
0000000000
8000000060
8000000060
8000000060
8000000060
8000000060
8000000060
8000000060
8000000060
8000000060
8000000060
8000000060
8000000060
8000000060
8000000060
8000000060
8000000060
8000000060
8000000060
8000000060
8000000060
8000000060
8000000060
8000000060
8000000060
8000000060
8000000060
8000000060
8000000060
8000000060
8000000060
8000000060
8000000060
8000000060
8000000060
8000000060
C000000060
C000000060
C000000060
C000000060
C000000060
C000000060
C000000040
40000000C0
40000000C0
60000000C0
6000000080
3000000180
3000000180
1800000300
1800000600
0E00000E00
0700001C00
03C000F000
00FFFFC000
000FFE0000
ENDCHAR
STARTCHAR 0169
ENCODING 361
SWIDTH 552 0
DWIDTH 43 0
BBX 28 56 7 -1
BITMAP
00C00000
07F80000
0C1C0000
180700C0
0001E300
00007E00
00000000
00000000
00000000
00000000
00000000
00000000
00000000
00000000
00000000
00000000
C0000030
C0000030
C0000030
C0000030
C0000030
C0000030
C0000030
C0000030
C0000030
C0000030
C0000030
C0000030
C0000030
C0000030
C0000030
C0000030
C0000030
C0000030
C0000030
C0000030
C0000030
C0000030
C0000030
C0000030
C0000030
C0000030
C0000030
C0000030
40000030
40000030
60000030
60000030
20000070
30000070
180000B0
180001B0
0E000330
07800E30
01FFF830
003FC000
ENDCHAR
STARTCHAR 016A
ENCODING 362
SWIDTH 642 0
DWIDTH 50 0
BBX 35 68 8 -1
BITMAP
01FFFFE000
01FFFFE000
0000000000
0000000000
0000000000
0000000000
0000000000
0000000000
0000000000
0000000000
0000000000
0000000000
0000000000
8000000060
8000000060
8000000060
8000000060
8000000060
8000000060
8000000060
8000000060
8000000060
8000000060
8000000060
8000000060
8000000060
8000000060
8000000060
8000000060
8000000060
8000000060
8000000060
8000000060
8000000060
8000000060
8000000060
8000000060
8000000060
8000000060
8000000060
8000000060
8000000060
8000000060
8000000060
8000000060
8000000060
8000000060
8000000060
C000000060
C000000060
C000000060
C000000060
C000000060
C000000060
C000000040
40000000C0
40000000C0
60000000C0
6000000080
3000000180
3000000180
1800000300
1800000600
0E00000E00
0700001C00
03C000F000
00FFFFC000
000FFE0000
ENDCHAR
STARTCHAR 016B
ENCODING 363
SWIDTH 552 0
DWIDTH 43 0
BBX 28 54 7 -1
BITMAP
0FFFFF00
0FFFFF00
00000000
00000000
00000000
00000000
00000000
00000000
00000000
00000000
00000000
00000000
00000000
00000000
C0000030
C0000030
C0000030
C0000030
C0000030
C0000030
C0000030
C0000030
C0000030
C0000030
C0000030
C0000030
C0000030
C0000030
C0000030
C0000030
C0000030
C0000030
C0000030
C0000030
C0000030
C0000030
C0000030
C0000030
C0000030
C0000030
C0000030
C0000030
40000030
40000030
60000030
60000030
20000070
30000070
180000B0
180001B0
0E000330
07800E30
01FFF830
003FC000
ENDCHAR
STARTCHAR 016C
ENCODING 364
SWIDTH 642 0
DWIDTH 50 0
BBX 35 72 8 -1
BITMAP
0000002000
0180002000
00C0006000
00C000C000
006000C000
0020018000
0030030000
001C060000
000FFC0000
0001F00000
0000000000
0000000000
0000000000
0000000000
0000000000
0000000000
0000000000
8000000060
8000000060
8000000060
8000000060
8000000060
8000000060
8000000060
8000000060
8000000060
8000000060
8000000060
8000000060
8000000060
8000000060
8000000060
8000000060
8000000060
8000000060
8000000060
8000000060
8000000060
8000000060
8000000060
8000000060
8000000060
8000000060
8000000060
8000000060
8000000060
8000000060
8000000060
8000000060
8000000060
8000000060
8000000060
C000000060
C000000060
C000000060
C000000060
C000000060
C000000060
C000000040
40000000C0
40000000C0
60000000C0
6000000080
3000000180
3000000180
1800000300
1800000600
0E00000E00
0700001C00
03C000F000
00FFFFC000
000FFE0000
ENDCHAR
STARTCHAR 016D
ENCODING 365
SWIDTH 552 0
DWIDTH 43 0
BBX 28 58 7 -1
BITMAP
00000100
0C000100
06000300
06000600
03000600
01000C00
01801800
00E03000
007FE000
001F8000
00000000
00000000
00000000
00000000
00000000
00000000
00000000
00000000
C0000030
C0000030
C0000030
C0000030
C0000030
C0000030
C0000030
C0000030
C0000030
C0000030
C0000030
C0000030
C0000030
C0000030
C0000030
C0000030
C0000030
C0000030
C0000030
C0000030
C0000030
C0000030
C0000030
C0000030
C0000030
C0000030
C0000030
C0000030
40000030
40000030
60000030
60000030
20000070
30000070
180000B0
180001B0
0E000330
07800E30
01FFF830
003FC000
ENDCHAR
STARTCHAR 016E
ENCODING 366
SWIDTH 642 0
DWIDTH 50 0
BBX 35 75 8 -1
BITMAP
0003F00000
0007BC0000
000C060000
0018020000
0010030000
0030010000
0030010000
0030010000
0030010000
0010030000
0018030000
0008060000
000F1C0000
0003F80000
0000000000
0000000000
0000000000
0000000000
0000000000
0000000000
8000000060
8000000060
8000000060
8000000060
8000000060
8000000060
8000000060
8000000060
8000000060
8000000060
8000000060
8000000060
8000000060
8000000060
8000000060
8000000060
8000000060
8000000060
8000000060
8000000060
8000000060
8000000060
8000000060
8000000060
8000000060
8000000060
8000000060
8000000060
8000000060
8000000060
8000000060
8000000060
8000000060
8000000060
8000000060
C000000060
C000000060
C000000060
C000000060
C000000060
C000000060
C000000040
40000000C0
40000000C0
60000000C0
6000000080
3000000180
3000000180
1800000300
1800000600
0E00000E00
0700001C00
03C000F000
00FFFFC000
000FFE0000
ENDCHAR
STARTCHAR 016F
ENCODING 367
SWIDTH 552 0
DWIDTH 43 0
BBX 28 61 7 -1
BITMAP
000F8000
003DE000
00603000
00C01800
00801800
01800800
01800800
01800800
01800800
00801800
00C01800
00603000
0078E000
001FC000
00000000
00000000
00000000
00000000
00000000
00000000
00000000
C0000030
C0000030
C0000030
C0000030
C0000030
C0000030
C0000030
C0000030
C0000030
C0000030
C0000030
C0000030
C0000030
C0000030
C0000030
C0000030
C0000030
C0000030
C0000030
C0000030
C0000030
C0000030
C0000030
C0000030
C0000030
C0000030
C0000030
C0000030
40000030
40000030
60000030
60000030
20000070
30000070
180000B0
180001B0
0E000330
07800E30
01FFF830
003FC000
ENDCHAR
STARTCHAR 0170
ENCODING 368
SWIDTH 642 0
DWIDTH 50 0
BBX 35 73 8 -1
BITMAP
0000300300
0000600300
0000E00600
0000C00C00
0001801800
0003001800
0002003000
0006006000
000C004000
001800C000
0010018000
0030030000
0000000000
0000000000
0000000000
0000000000
0000000000
0000000000
8000000060
8000000060
8000000060
8000000060
8000000060
8000000060
8000000060
8000000060
8000000060
8000000060
8000000060
8000000060
8000000060
8000000060
8000000060
8000000060
8000000060
8000000060
8000000060
8000000060
8000000060
8000000060
8000000060
8000000060
8000000060
8000000060
8000000060
8000000060
8000000060
8000000060
8000000060
8000000060
8000000060
8000000060
8000000060
C000000060
C000000060
C000000060
C000000060
C000000060
C000000060
C000000040
40000000C0
40000000C0
60000000C0
6000000080
3000000180
3000000180
1800000300
1800000600
0E00000E00
0700001C00
03C000F000
00FFFFC000
000FFE0000
ENDCHAR
STARTCHAR 0171
ENCODING 369
SWIDTH 552 0
DWIDTH 43 0
BBX 29 59 7 -1
BITMAP
00018018
00030018
00070030
00060060
000C00C0
001800C0
00180180
00300300
00600200
00C00600
00C00C00
01801800
00000000
00000000
00000000
00000000
00000000
00000000
00000000
C0000030
C0000030
C0000030
C0000030
C0000030
C0000030
C0000030
C0000030
C0000030
C0000030
C0000030
C0000030
C0000030
C0000030
C0000030
C0000030
C0000030
C0000030
C0000030
C0000030
C0000030
C0000030
C0000030
C0000030
C0000030
C0000030
C0000030
C0000030
40000030
40000030
60000030
60000030
20000070
30000070
180000B0
180001B0
0E000330
07800E30
01FFF830
003FC000
ENDCHAR
STARTCHAR 0172
ENCODING 370
SWIDTH 642 0
DWIDTH 50 0
BBX 35 70 8 -16
BITMAP
8000000060
8000000060
8000000060
8000000060
8000000060
8000000060
8000000060
8000000060
8000000060
8000000060
8000000060
8000000060
8000000060
8000000060
8000000060
8000000060
8000000060
8000000060
8000000060
8000000060
8000000060
8000000060
8000000060
8000000060
8000000060
8000000060
8000000060
8000000060
8000000060
8000000060
8000000060
8000000060
8000000060
8000000060
8000000060
C000000060
C000000060
C000000060
C000000060
C000000060
C000000040
C000000040
40000000C0
40000000C0
60000000C0
6000000080
3000000180
3000000180
1800000300
1800000600
0E00000E00
0700001C00
03C000F000
00FFFFC000
000FFD8000
0000060000
00000C0000
0000100000
0000200000
0000400000
0000C00000
0000800000
0001800000
0001800000
0001800000
0001800000
0001800000
0000C0E000
00007FC000
00000E0000
ENDCHAR
STARTCHAR 0173
ENCODING 371
SWIDTH 552 0
DWIDTH 43 0
BBX 30 55 7 -16
BITMAP
C0000030
C0000030
C0000030
C0000030
C0000030
C0000030
C0000030
C0000030
C0000030
C0000030
C0000030
C0000030
C0000030
C0000030
C0000030
C0000030
C0000030
C0000030
C0000030
C0000030
C0000030
C0000030
C0000030
C0000030
C0000030
C0000030
C0000030
C0000030
40000030
40000030
60000030
60000030
20000070
30000070
180000B0
180001B0
0E000330
07800E30
01FFF830
003FC020
000000C0
00000180
00000300
00000600
00000C00
00000800
00001800
00001800
00001000
00001000
00001800
00001800
00000C0C
000007F8
000001E0
ENDCHAR
STARTCHAR 0174
ENCODING 372
SWIDTH 861 0
DWIDTH 67 0
BBX 62 72 3 0
BITMAP
0000000700000000
0000000F80000000
0000000CC0000000
0000001860000000
0000003030000000
0000006018000000
000000C00C000000
0000018006000000
0000030003000000
0000060001800000
00000C0000C00000
0000000000000000
0000000000000000
0000000000000000
0000000000000000
0000000000000000
0000000000000000
0000000000000000
800000070000000C
C00000078000000C
C00000078000000C
C000000480000008
4000000C80000018
6000000CC0000018
60000008C0000018
6000001840000010
3000001860000030
3000001860000030
3000001060000030
3000003020000020
1800003030000060
1800002030000060
1800002010000060
0800006018000040
0C000060180000C0
0C000040180000C0
0C0000C008000080
040000C00C000180
060000800C000180
0600008004000180
0600018006000100
0200018006000300
0300010006000300
0300030002000300
0300030003000200
0180030003000600
0180020001000600
0180060001800600
0080060001800400
00C0040001800C00
00C00C0000800C00
00C00C0000C00800
00400C0000C01800
0060080000C01800
0060180000401800
0060180000601000
0020100000603000
0030100000203000
0030300000303000
0030300000302000
0010200000306000
0018600000106000
0018600000186000
0008600000184000
000C40000008C000
000CC000000CC000
000CC000000CC000
00048000000D8000
0007800000058000
0007800000078000
0007800000070000
0003000000030000
ENDCHAR
STARTCHAR 0175
ENCODING 373
SWIDTH 720 0
DWIDTH 56 0
BBX 50 58 3 0
BITMAP
000000C0000000
000001E0000000
00000330000000
00000618000000
00000C0C000000
00001806000000
00003003000000
00006001800000
0000C000C00000
00018000600000
00030000300000
00000000000000
00000000000000
00000000000000
00000000000000
00000000000000
00000000000000
00000000000000
00000000000000
C00000C0000040
C00000E00000C0
400001E00000C0
600001A00000C0
60000130000080
60000130000180
30000310000180
30000218000100
30000218000300
10000608000300
18000608000200
1800040C000600
08000C0C000600
0C000C04000400
0C000806000400
04001806000C00
06001802000C00
06001003000800
06001003001800
02003001001800
03002001801000
03002001803000
01006000803000
01806000802000
01804000C02000
0080C000C06000
00C0C000406000
00C08000604000
0041800060C000
0041800020C000
00610000308000
00610000318000
00230000118000
00320000190000
00320000190000
001600000B0000
001E00000A0000
001C00000E0000
000C0000060000
ENDCHAR
STARTCHAR 0176
ENCODING 374
SWIDTH 540 0
DWIDTH 42 0
BBX 38 72 2 0
BITMAP
0000300000
0000780000
0000CC0000
0001860000
0003030000
0006018000
000C00C000
0018006000
0030003000
0060001800
00C0000C00
0000000000
0000000000
0000000000
0000000000
0000000000
0000000000
0000000000
C00000000C
600000000C
6000000018
3000000018
3000000030
1800000060
0C00000060
0C000000C0
06000000C0
0600000180
0300000300
0180000300
0180000600
00C0000600
00C0000C00
0060000800
0030001800
0030003000
0018003000
0018006000
000C004000
000600C000
0006018000
0003018000
0003030000
0001820000
0000C60000
0000CC0000
00006C0000
0000780000
0000300000
0000300000
0000300000
0000300000
0000300000
0000300000
0000300000
0000300000
0000300000
0000300000
0000300000
0000300000
0000300000
0000300000
0000300000
0000300000
0000300000
0000300000
0000300000
0000300000
0000300000
0000300000
0000300000
0000300000
ENDCHAR
STARTCHAR 0177
ENCODING 375
SWIDTH 450 0
DWIDTH 35 0
BBX 31 74 2 -16
BITMAP
00018000
0003C000
00066000
000C3000
00181800
00300C00
00600600
00C00300
01800180
030000C0
06000060
00000000
00000000
00000000
00000000
00000000
00000000
00000000
00000000
C0000006
40000006
60000004
6000000C
20000008
30000018
30000018
18000010
18000030
08000030
0C000020
0C000060
04000040
060000C0
060000C0
03000080
03000180
01000180
01800100
01800300
00800200
00C00600
00C00600
00400400
00600C00
00200C00
00300800
00301800
00101800
00181000
00183000
00082000
000C6000
00046000
00064000
0006C000
0002C000
00038000
00038000
00010000
00030000
00030000
00020000
00060000
00060000
00040000
000C0000
00080000
00180000
00180000
00100000
00300000
00300000
3FE00000
3F800000
ENDCHAR
ENDFONT
